<?xml version="1.0" encoding="UTF-8" standalone="no"?>
<!DOCTYPE svg PUBLIC "-//W3C//DTD SVG 1.1//EN"
 "http://www.w3.org/Graphics/SVG/1.1/DTD/svg11.dtd">
<!-- Generated by graphviz version 2.43.0 (0)
 -->
<!-- Title: %3 Pages: 1 -->
<svg width="297pt" height="165pt"
 viewBox="0.00 0.00 297.00 164.74" xmlns="http://www.w3.org/2000/svg" xmlns:xlink="http://www.w3.org/1999/xlink">
<g id="graph0" class="graph" transform="scale(1 1) rotate(0) translate(36 128.74)">
<title>%3</title>
<polygon fill="dimgray" stroke="transparent" points="-36,36 -36,-128.74 261,-128.74 261,36 -36,36"/>
<text text-anchor="middle" x="112.5" y="-77.54" font-family="Helvetica,sans-Serif" font-size="14.00">Sweep&#39;s Plan &amp; Progress</text>
<!-- start -->
<g id="node1" class="node">
<title>start</title>
</g>
<!-- 7d30f46f&#45;a8f6&#45;4114&#45;9d74&#45;7b9eaf044314 -->
<g id="node3" class="node">
<title>7d30f46f&#45;a8f6&#45;4114&#45;9d74&#45;7b9eaf044314</title>
<ellipse fill="yellow" stroke="black" cx="109.5" cy="-26.87" rx="56.64" ry="26.74"/>
<text text-anchor="middle" x="109.5" y="-30.67" font-family="Helvetica,sans-Serif" font-size="14.00">⋯ Create</text>
<text text-anchor="middle" x="109.5" y="-15.67" font-family="Helvetica,sans-Serif" font-size="14.00">file_path</text>
</g>
<!-- start&#45;&gt;7d30f46f&#45;a8f6&#45;4114&#45;9d74&#45;7b9eaf044314 -->
<g id="edge1" class="edge">
<title>start&#45;&gt;7d30f46f&#45;a8f6&#45;4114&#45;9d74&#45;7b9eaf044314</title>
<path fill="none" stroke="black" d="M1.2,-26.87C4.87,-26.87 22.63,-26.87 42.74,-26.87"/>
<polygon fill="black" stroke="black" points="42.75,-30.37 52.75,-26.87 42.75,-23.37 42.75,-30.37"/>
<text text-anchor="middle" x="26.97" y="-33.67" font-family="Helvetica,sans-Serif" font-size="14.00">Start</text>
</g>
<!-- end -->
<g id="node2" class="node">
<title>end</title>
</g>
<!-- 7d30f46f&#45;a8f6&#45;4114&#45;9d74&#45;7b9eaf044314&#45;&gt;end -->
<g id="edge2" class="edge">
<title>7d30f46f&#45;a8f6&#45;4114&#45;9d74&#45;7b9eaf044314&#45;&gt;end</title>
<path fill="none" stroke="black" d="M166.33,-26.87C184.38,-26.87 202.52,-26.87 213.63,-26.87"/>
<polygon fill="black" stroke="black" points="213.75,-30.37 223.75,-26.87 213.75,-23.37 213.75,-30.37"/>
<text text-anchor="middle" x="195.03" y="-33.67" font-family="Helvetica,sans-Serif" font-size="14.00">Finish</text>
</g>
</g>
</svg>
