<?xml version="1.0" encoding="UTF-8" standalone="no"?>
<!DOCTYPE svg PUBLIC "-//W3C//DTD SVG 1.1//EN"
 "http://www.w3.org/Graphics/SVG/1.1/DTD/svg11.dtd">
<!-- Generated by graphviz version 2.43.0 (0)
 -->
<!-- Title: %3 Pages: 1 -->
<svg width="1346pt" height="238pt"
 viewBox="0.00 0.00 1346.00 237.74" xmlns="http://www.w3.org/2000/svg" xmlns:xlink="http://www.w3.org/1999/xlink">
<g id="graph0" class="graph" transform="scale(1 1) rotate(0) translate(36 201.74)">
<title>%3</title>
<polygon fill="dimgray" stroke="transparent" points="-36,36 -36,-201.74 1310,-201.74 1310,36 -36,36"/>
<text text-anchor="middle" x="637" y="-150.54" font-family="Helvetica,sans-Serif" font-size="14.00">Sweep&#39;s Plan &amp; Progress</text>
<!-- start -->
<g id="node1" class="node">
<title>start</title>
</g>
<!-- 0f1a3a53&#45;1c36&#45;40b7&#45;b36d&#45;2a524bc4918a -->
<g id="node3" class="node">
<title>0f1a3a53&#45;1c36&#45;40b7&#45;b36d&#45;2a524bc4918a</title>
<ellipse fill="yellow" stroke="black" cx="228" cy="-99.87" rx="132.46" ry="26.74"/>
<text text-anchor="middle" x="228" y="-103.67" font-family="Helvetica,sans-Serif" font-size="14.00">⋯ Create</text>
<text text-anchor="middle" x="228" y="-88.67" font-family="Helvetica,sans-Serif" font-size="14.00">backend/optimization.py</text>
</g>
<!-- start&#45;&gt;0f1a3a53&#45;1c36&#45;40b7&#45;b36d&#45;2a524bc4918a -->
<g id="edge6" class="edge">
<title>start&#45;&gt;0f1a3a53&#45;1c36&#45;40b7&#45;b36d&#45;2a524bc4918a</title>
<path fill="none" stroke="black" d="M44.53,-99.87C47.6,-99.87 63.78,-99.87 85.35,-99.87"/>
<polygon fill="black" stroke="black" points="85.62,-103.37 95.62,-99.87 85.62,-96.37 85.62,-103.37"/>
<text text-anchor="middle" x="70.14" y="-106.67" font-family="Helvetica,sans-Serif" font-size="14.00">Start</text>
</g>
<!-- end -->
<g id="node2" class="node">
<title>end</title>
</g>
<!-- bc88fc58&#45;0ca9&#45;4444&#45;8bb4&#45;862681cfc1e4 -->
<g id="node4" class="node">
<title>bc88fc58&#45;0ca9&#45;4444&#45;8bb4&#45;862681cfc1e4</title>
<ellipse fill="white" stroke="black" cx="626" cy="-99.87" rx="190.42" ry="26.74"/>
<text text-anchor="middle" x="626" y="-103.67" font-family="Helvetica,sans-Serif" font-size="14.00">▶ Modify</text>
<text text-anchor="middle" x="626" y="-88.67" font-family="Helvetica,sans-Serif" font-size="14.00">components/PerformanceTracking.js</text>
</g>
<!-- 0f1a3a53&#45;1c36&#45;40b7&#45;b36d&#45;2a524bc4918a&#45;&gt;bc88fc58&#45;0ca9&#45;4444&#45;8bb4&#45;862681cfc1e4 -->
<g id="edge2" class="edge">
<title>0f1a3a53&#45;1c36&#45;40b7&#45;b36d&#45;2a524bc4918a&#45;&gt;bc88fc58&#45;0ca9&#45;4444&#45;8bb4&#45;862681cfc1e4</title>
<path fill="none" stroke="black" d="M360.54,-99.87C382.17,-99.87 403.8,-99.87 425.44,-99.87"/>
<polygon fill="black" stroke="black" points="425.72,-103.37 435.72,-99.87 425.72,-96.37 425.72,-103.37"/>
</g>
<!-- 77f6f409&#45;9201&#45;4991&#45;b0c8&#45;9eecc3e6a628 -->
<g id="node6" class="node">
<title>77f6f409&#45;9201&#45;4991&#45;b0c8&#45;9eecc3e6a628</title>
<polygon fill="white" stroke="black" points="378,-36 0,-36 0,0 378,0 378,-36"/>
<text text-anchor="middle" x="189" y="-14.3" font-family="Helvetica,sans-Serif" font-size="14.00">▶ Run GitHub Actions for `backend/optimization.py`</text>
</g>
<!-- 0f1a3a53&#45;1c36&#45;40b7&#45;b36d&#45;2a524bc4918a&#45;&gt;77f6f409&#45;9201&#45;4991&#45;b0c8&#45;9eecc3e6a628 -->
<g id="edge1" class="edge">
<title>0f1a3a53&#45;1c36&#45;40b7&#45;b36d&#45;2a524bc4918a&#45;&gt;77f6f409&#45;9201&#45;4991&#45;b0c8&#45;9eecc3e6a628</title>
<path fill="none" stroke="black" stroke-dasharray="5,2" d="M215.23,-72.72C210.92,-63.9 206.12,-54.05 201.81,-45.23"/>
<polygon fill="black" stroke="black" points="204.91,-43.6 197.37,-36.15 198.62,-46.67 204.91,-43.6"/>
</g>
<!-- 9c6cdb54&#45;10ea&#45;42d7&#45;b9c7&#45;ca56bdf0a8c2 -->
<g id="node5" class="node">
<title>9c6cdb54&#45;10ea&#45;42d7&#45;b9c7&#45;ca56bdf0a8c2</title>
<ellipse fill="white" stroke="black" cx="1037" cy="-99.87" rx="147.57" ry="26.74"/>
<text text-anchor="middle" x="1037" y="-103.67" font-family="Helvetica,sans-Serif" font-size="14.00">▶ Modify</text>
<text text-anchor="middle" x="1037" y="-88.67" font-family="Helvetica,sans-Serif" font-size="14.00">personalized_learning_ai.py</text>
</g>
<!-- bc88fc58&#45;0ca9&#45;4444&#45;8bb4&#45;862681cfc1e4&#45;&gt;9c6cdb54&#45;10ea&#45;42d7&#45;b9c7&#45;ca56bdf0a8c2 -->
<g id="edge4" class="edge">
<title>bc88fc58&#45;0ca9&#45;4444&#45;8bb4&#45;862681cfc1e4&#45;&gt;9c6cdb54&#45;10ea&#45;42d7&#45;b9c7&#45;ca56bdf0a8c2</title>
<path fill="none" stroke="black" d="M816.25,-99.87C837.12,-99.87 857.99,-99.87 878.87,-99.87"/>
<polygon fill="black" stroke="black" points="879.11,-103.37 889.11,-99.87 879.11,-96.37 879.11,-103.37"/>
</g>
<!-- faab1796&#45;1bc0&#45;4f2b&#45;bca6&#45;5f4f2de158ee -->
<g id="node7" class="node">
<title>faab1796&#45;1bc0&#45;4f2b&#45;bca6&#45;5f4f2de158ee</title>
<polygon fill="white" stroke="black" points="856,-36 396,-36 396,0 856,0 856,-36"/>
<text text-anchor="middle" x="626" y="-14.3" font-family="Helvetica,sans-Serif" font-size="14.00">▶ Run GitHub Actions for `components/PerformanceTracking.js`</text>
</g>
<!-- bc88fc58&#45;0ca9&#45;4444&#45;8bb4&#45;862681cfc1e4&#45;&gt;faab1796&#45;1bc0&#45;4f2b&#45;bca6&#45;5f4f2de158ee -->
<g id="edge3" class="edge">
<title>bc88fc58&#45;0ca9&#45;4444&#45;8bb4&#45;862681cfc1e4&#45;&gt;faab1796&#45;1bc0&#45;4f2b&#45;bca6&#45;5f4f2de158ee</title>
<path fill="none" stroke="black" stroke-dasharray="5,2" d="M626,-72.72C626,-64.27 626,-54.89 626,-46.36"/>
<polygon fill="black" stroke="black" points="629.5,-46.15 626,-36.15 622.5,-46.15 629.5,-46.15"/>
</g>
<!-- 9c6cdb54&#45;10ea&#45;42d7&#45;b9c7&#45;ca56bdf0a8c2&#45;&gt;end -->
<g id="edge7" class="edge">
<title>9c6cdb54&#45;10ea&#45;42d7&#45;b9c7&#45;ca56bdf0a8c2&#45;&gt;end</title>
<path fill="none" stroke="black" d="M1184.79,-99.87C1204.59,-99.87 1221.64,-99.87 1232.08,-99.87"/>
<polygon fill="black" stroke="black" points="1232.35,-103.37 1242.35,-99.87 1232.35,-96.37 1232.35,-103.37"/>
<text text-anchor="middle" x="1213.64" y="-106.67" font-family="Helvetica,sans-Serif" font-size="14.00">Finish</text>
</g>
<!-- 2a0002a8&#45;8bbf&#45;4b1d&#45;ad28&#45;8c73fe1e6df5 -->
<g id="node8" class="node">
<title>2a0002a8&#45;8bbf&#45;4b1d&#45;ad28&#45;8c73fe1e6df5</title>
<polygon fill="white" stroke="black" points="1274,-36 874,-36 874,0 1274,0 1274,-36"/>
<text text-anchor="middle" x="1074" y="-14.3" font-family="Helvetica,sans-Serif" font-size="14.00">▶ Run GitHub Actions for `personalized_learning_ai.py`</text>
</g>
<!-- 9c6cdb54&#45;10ea&#45;42d7&#45;b9c7&#45;ca56bdf0a8c2&#45;&gt;2a0002a8&#45;8bbf&#45;4b1d&#45;ad28&#45;8c73fe1e6df5 -->
<g id="edge5" class="edge">
<title>9c6cdb54&#45;10ea&#45;42d7&#45;b9c7&#45;ca56bdf0a8c2&#45;&gt;2a0002a8&#45;8bbf&#45;4b1d&#45;ad28&#45;8c73fe1e6df5</title>
<path fill="none" stroke="black" stroke-dasharray="5,2" d="M1049.12,-72.72C1053.2,-63.9 1057.76,-54.05 1061.85,-45.23"/>
<polygon fill="black" stroke="black" points="1065.03,-46.69 1066.06,-36.15 1058.68,-43.75 1065.03,-46.69"/>
</g>
</g>
</svg>
