<?xml version="1.0" encoding="UTF-8" standalone="no"?>
<!DOCTYPE svg PUBLIC "-//W3C//DTD SVG 1.1//EN"
 "http://www.w3.org/Graphics/SVG/1.1/DTD/svg11.dtd">
<!-- Generated by graphviz version 2.43.0 (0)
 -->
<!-- Title: %3 Pages: 1 -->
<svg width="1750pt" height="238pt"
 viewBox="0.00 0.00 1749.50 237.74" xmlns="http://www.w3.org/2000/svg" xmlns:xlink="http://www.w3.org/1999/xlink">
<g id="graph0" class="graph" transform="scale(1 1) rotate(0) translate(36 201.74)">
<title>%3</title>
<polygon fill="dimgray" stroke="transparent" points="-36,36 -36,-201.74 1713.5,-201.74 1713.5,36 -36,36"/>
<text text-anchor="middle" x="838.75" y="-150.54" font-family="Helvetica,sans-Serif" font-size="14.00">Sweep&#39;s Plan &amp; Progress</text>
<!-- start -->
<g id="node1" class="node">
<title>start</title>
</g>
<!-- 76d856fa&#45;ecaf&#45;4f29&#45;8192&#45;74fea76f7c2e -->
<g id="node3" class="node">
<title>76d856fa&#45;ecaf&#45;4f29&#45;8192&#45;74fea76f7c2e</title>
<ellipse fill="yellow" stroke="black" cx="270" cy="-99.87" rx="205.54" ry="26.74"/>
<text text-anchor="middle" x="270" y="-103.67" font-family="Helvetica,sans-Serif" font-size="14.00">⋯ Create</text>
<text text-anchor="middle" x="270" y="-88.67" font-family="Helvetica,sans-Serif" font-size="14.00">components/PerformanceTrackerUtils.js</text>
</g>
<!-- start&#45;&gt;76d856fa&#45;ecaf&#45;4f29&#45;8192&#45;74fea76f7c2e -->
<g id="edge6" class="edge">
<title>start&#45;&gt;76d856fa&#45;ecaf&#45;4f29&#45;8192&#45;74fea76f7c2e</title>
<path fill="none" stroke="black" d="M12.74,-99.87C16.24,-99.87 31.9,-99.87 53.89,-99.87"/>
<polygon fill="black" stroke="black" points="54.05,-103.37 64.05,-99.87 54.05,-96.37 54.05,-103.37"/>
<text text-anchor="middle" x="38.37" y="-106.67" font-family="Helvetica,sans-Serif" font-size="14.00">Start</text>
</g>
<!-- end -->
<g id="node2" class="node">
<title>end</title>
</g>
<!-- 009ad24d&#45;5ba4&#45;4369&#45;baee&#45;6d43bc55169e -->
<g id="node4" class="node">
<title>009ad24d&#45;5ba4&#45;4369&#45;baee&#45;6d43bc55169e</title>
<ellipse fill="white" stroke="black" cx="730" cy="-99.87" rx="190.42" ry="26.74"/>
<text text-anchor="middle" x="730" y="-103.67" font-family="Helvetica,sans-Serif" font-size="14.00">▶ Modify</text>
<text text-anchor="middle" x="730" y="-88.67" font-family="Helvetica,sans-Serif" font-size="14.00">components/PerformanceTracking.js</text>
</g>
<!-- 76d856fa&#45;ecaf&#45;4f29&#45;8192&#45;74fea76f7c2e&#45;&gt;009ad24d&#45;5ba4&#45;4369&#45;baee&#45;6d43bc55169e -->
<g id="edge2" class="edge">
<title>76d856fa&#45;ecaf&#45;4f29&#45;8192&#45;74fea76f7c2e&#45;&gt;009ad24d&#45;5ba4&#45;4369&#45;baee&#45;6d43bc55169e</title>
<path fill="none" stroke="black" d="M476.19,-99.87C493.87,-99.87 511.55,-99.87 529.23,-99.87"/>
<polygon fill="black" stroke="black" points="529.64,-103.37 539.64,-99.87 529.64,-96.37 529.64,-103.37"/>
</g>
<!-- 344262b9&#45;987b&#45;4986&#45;8cf9&#45;146e563beb8a -->
<g id="node6" class="node">
<title>344262b9&#45;987b&#45;4986&#45;8cf9&#45;146e563beb8a</title>
<polygon fill="white" stroke="black" points="482,-36 0,-36 0,0 482,0 482,-36"/>
<text text-anchor="middle" x="241" y="-14.3" font-family="Helvetica,sans-Serif" font-size="14.00">▶ Run GitHub Actions for `components/PerformanceTrackerUtils.js`</text>
</g>
<!-- 76d856fa&#45;ecaf&#45;4f29&#45;8192&#45;74fea76f7c2e&#45;&gt;344262b9&#45;987b&#45;4986&#45;8cf9&#45;146e563beb8a -->
<g id="edge1" class="edge">
<title>76d856fa&#45;ecaf&#45;4f29&#45;8192&#45;74fea76f7c2e&#45;&gt;344262b9&#45;987b&#45;4986&#45;8cf9&#45;146e563beb8a</title>
<path fill="none" stroke="black" stroke-dasharray="5,2" d="M260.5,-72.72C257.37,-64.08 253.88,-54.47 250.73,-45.79"/>
<polygon fill="black" stroke="black" points="253.93,-44.35 247.23,-36.15 247.35,-46.74 253.93,-44.35"/>
</g>
<!-- b56c69a4&#45;d730&#45;41f4&#45;8252&#45;dff11d909276 -->
<g id="node5" class="node">
<title>b56c69a4&#45;d730&#45;41f4&#45;8252&#45;dff11d909276</title>
<ellipse fill="white" stroke="black" cx="1293" cy="-99.87" rx="325.95" ry="26.74"/>
<text text-anchor="middle" x="1293" y="-103.67" font-family="Helvetica,sans-Serif" font-size="14.00">▶ Modify</text>
<text text-anchor="middle" x="1293" y="-88.67" font-family="Helvetica,sans-Serif" font-size="14.00">env/lib/python3.10/site&#45;packages/pip/_vendor/urllib3/util/ssl_.py</text>
</g>
<!-- 009ad24d&#45;5ba4&#45;4369&#45;baee&#45;6d43bc55169e&#45;&gt;b56c69a4&#45;d730&#45;41f4&#45;8252&#45;dff11d909276 -->
<g id="edge4" class="edge">
<title>009ad24d&#45;5ba4&#45;4369&#45;baee&#45;6d43bc55169e&#45;&gt;b56c69a4&#45;d730&#45;41f4&#45;8252&#45;dff11d909276</title>
<path fill="none" stroke="black" d="M920.23,-99.87C932.37,-99.87 944.5,-99.87 956.64,-99.87"/>
<polygon fill="black" stroke="black" points="956.83,-103.37 966.83,-99.87 956.83,-96.37 956.83,-103.37"/>
</g>
<!-- 9a4bf572&#45;aa80&#45;4a62&#45;bcff&#45;0bf65f55a4d5 -->
<g id="node7" class="node">
<title>9a4bf572&#45;aa80&#45;4a62&#45;bcff&#45;0bf65f55a4d5</title>
<polygon fill="white" stroke="black" points="960,-36 500,-36 500,0 960,0 960,-36"/>
<text text-anchor="middle" x="730" y="-14.3" font-family="Helvetica,sans-Serif" font-size="14.00">▶ Run GitHub Actions for `components/PerformanceTracking.js`</text>
</g>
<!-- 009ad24d&#45;5ba4&#45;4369&#45;baee&#45;6d43bc55169e&#45;&gt;9a4bf572&#45;aa80&#45;4a62&#45;bcff&#45;0bf65f55a4d5 -->
<g id="edge3" class="edge">
<title>009ad24d&#45;5ba4&#45;4369&#45;baee&#45;6d43bc55169e&#45;&gt;9a4bf572&#45;aa80&#45;4a62&#45;bcff&#45;0bf65f55a4d5</title>
<path fill="none" stroke="black" stroke-dasharray="5,2" d="M730,-72.72C730,-64.27 730,-54.89 730,-46.36"/>
<polygon fill="black" stroke="black" points="733.5,-46.15 730,-36.15 726.5,-46.15 733.5,-46.15"/>
</g>
<!-- b56c69a4&#45;d730&#45;41f4&#45;8252&#45;dff11d909276&#45;&gt;end -->
<g id="edge7" class="edge">
<title>b56c69a4&#45;d730&#45;41f4&#45;8252&#45;dff11d909276&#45;&gt;end</title>
<path fill="none" stroke="black" d="M1619.1,-99.87C1639.81,-99.87 1656.37,-99.87 1666.38,-99.87"/>
<polygon fill="black" stroke="black" points="1666.4,-103.37 1676.4,-99.87 1666.4,-96.37 1666.4,-103.37"/>
<text text-anchor="middle" x="1647.74" y="-106.67" font-family="Helvetica,sans-Serif" font-size="14.00">Finish</text>
</g>
<!-- b7473d13&#45;2f90&#45;4b37&#45;8e07&#45;7eceb25247a0 -->
<g id="node8" class="node">
<title>b7473d13&#45;2f90&#45;4b37&#45;8e07&#45;7eceb25247a0</title>
<polygon fill="white" stroke="black" points="1630,-36 978,-36 978,0 1630,0 1630,-36"/>
<text text-anchor="middle" x="1304" y="-14.3" font-family="Helvetica,sans-Serif" font-size="14.00">▶ Run GitHub Actions for `env/lib/python3.10/site&#45;packages/pip/_vendor/urllib3/util/ssl_.py`</text>
</g>
<!-- b56c69a4&#45;d730&#45;41f4&#45;8252&#45;dff11d909276&#45;&gt;b7473d13&#45;2f90&#45;4b37&#45;8e07&#45;7eceb25247a0 -->
<g id="edge5" class="edge">
<title>b56c69a4&#45;d730&#45;41f4&#45;8252&#45;dff11d909276&#45;&gt;b7473d13&#45;2f90&#45;4b37&#45;8e07&#45;7eceb25247a0</title>
<path fill="none" stroke="black" stroke-dasharray="5,2" d="M1296.6,-72.72C1297.78,-64.18 1299.09,-54.68 1300.27,-46.08"/>
<polygon fill="black" stroke="black" points="1303.74,-46.53 1301.64,-36.15 1296.81,-45.58 1303.74,-46.53"/>
</g>
</g>
</svg>
