<?xml version="1.0" encoding="UTF-8" standalone="no"?>
<!DOCTYPE svg PUBLIC "-//W3C//DTD SVG 1.1//EN"
 "http://www.w3.org/Graphics/SVG/1.1/DTD/svg11.dtd">
<!-- Generated by graphviz version 2.43.0 (0)
 -->
<!-- Title: %3 Pages: 1 -->
<svg width="775pt" height="165pt"
 viewBox="0.00 0.00 775.00 164.74" xmlns="http://www.w3.org/2000/svg" xmlns:xlink="http://www.w3.org/1999/xlink">
<g id="graph0" class="graph" transform="scale(1 1) rotate(0) translate(36 128.74)">
<title>%3</title>
<polygon fill="dimgray" stroke="transparent" points="-36,36 -36,-128.74 739,-128.74 739,36 -36,36"/>
<text text-anchor="middle" x="351.5" y="-77.54" font-family="Helvetica,sans-Serif" font-size="14.00">Sweep&#39;s Plan &amp; Progress</text>
<!-- start -->
<g id="node1" class="node">
<title>start</title>
</g>
<!-- 9229b6f8&#45;89b8&#45;41f1&#45;a326&#45;373f3c4e14b0 -->
<g id="node3" class="node">
<title>9229b6f8&#45;89b8&#45;41f1&#45;a326&#45;373f3c4e14b0</title>
<ellipse fill="yellow" stroke="black" cx="348.5" cy="-26.87" rx="295.64" ry="26.74"/>
<text text-anchor="middle" x="348.5" y="-30.67" font-family="Helvetica,sans-Serif" font-size="14.00">⋯ Create</text>
<text text-anchor="middle" x="348.5" y="-15.67" font-family="Helvetica,sans-Serif" font-size="14.00">env/lib/python3.10/site&#45;packages/scan_and_create_css.py</text>
</g>
<!-- start&#45;&gt;9229b6f8&#45;89b8&#45;41f1&#45;a326&#45;373f3c4e14b0 -->
<g id="edge1" class="edge">
<title>start&#45;&gt;9229b6f8&#45;89b8&#45;41f1&#45;a326&#45;373f3c4e14b0</title>
<path fill="none" stroke="black" d="M1.06,-26.87C4.15,-26.87 19.66,-26.87 42.56,-26.87"/>
<polygon fill="black" stroke="black" points="42.81,-30.37 52.81,-26.87 42.81,-23.37 42.81,-30.37"/>
<text text-anchor="middle" x="26.96" y="-33.67" font-family="Helvetica,sans-Serif" font-size="14.00">Start</text>
</g>
<!-- end -->
<g id="node2" class="node">
<title>end</title>
</g>
<!-- 9229b6f8&#45;89b8&#45;41f1&#45;a326&#45;373f3c4e14b0&#45;&gt;end -->
<g id="edge2" class="edge">
<title>9229b6f8&#45;89b8&#45;41f1&#45;a326&#45;373f3c4e14b0&#45;&gt;end</title>
<path fill="none" stroke="black" d="M644.44,-26.87C665.08,-26.87 681.71,-26.87 691.79,-26.87"/>
<polygon fill="black" stroke="black" points="691.89,-30.37 701.89,-26.87 691.89,-23.37 691.89,-30.37"/>
<text text-anchor="middle" x="673.04" y="-33.67" font-family="Helvetica,sans-Serif" font-size="14.00">Finish</text>
</g>
</g>
</svg>
