<?xml version="1.0" encoding="UTF-8" standalone="no"?>
<!DOCTYPE svg PUBLIC "-//W3C//DTD SVG 1.1//EN"
 "http://www.w3.org/Graphics/SVG/1.1/DTD/svg11.dtd">
<!-- Generated by graphviz version 2.43.0 (0)
 -->
<!-- Title: %3 Pages: 1 -->
<svg width="551pt" height="238pt"
 viewBox="0.00 0.00 551.00 237.74" xmlns="http://www.w3.org/2000/svg" xmlns:xlink="http://www.w3.org/1999/xlink">
<g id="graph0" class="graph" transform="scale(1 1) rotate(0) translate(36 201.74)">
<title>%3</title>
<polygon fill="dimgray" stroke="transparent" points="-36,36 -36,-201.74 515,-201.74 515,36 -36,36"/>
<text text-anchor="middle" x="239.5" y="-150.54" font-family="Helvetica,sans-Serif" font-size="14.00">Sweep&#39;s Plan &amp; Progress</text>
<!-- start -->
<g id="node1" class="node">
<title>start</title>
</g>
<!-- f6ee071a&#45;c3f0&#45;48aa&#45;adeb&#45;b6e5f9a82d3a -->
<g id="node3" class="node">
<title>f6ee071a&#45;c3f0&#45;48aa&#45;adeb&#45;b6e5f9a82d3a</title>
<ellipse fill="#0ee832" stroke="black" cx="236.5" cy="-99.87" rx="183.7" ry="26.74"/>
<text text-anchor="middle" x="236.5" y="-103.67" font-family="Helvetica,sans-Serif" font-size="14.00">✓ Modify</text>
<text text-anchor="middle" x="236.5" y="-88.67" font-family="Helvetica,sans-Serif" font-size="14.00">components/TeacherDashboard.tsx</text>
</g>
<!-- start&#45;&gt;f6ee071a&#45;c3f0&#45;48aa&#45;adeb&#45;b6e5f9a82d3a -->
<g id="edge2" class="edge">
<title>start&#45;&gt;f6ee071a&#45;c3f0&#45;48aa&#45;adeb&#45;b6e5f9a82d3a</title>
<path fill="none" stroke="black" d="M1.18,-99.87C4.57,-99.87 20.42,-99.87 42.43,-99.87"/>
<polygon fill="black" stroke="black" points="42.58,-103.37 52.58,-99.87 42.58,-96.37 42.58,-103.37"/>
<text text-anchor="middle" x="26.83" y="-106.67" font-family="Helvetica,sans-Serif" font-size="14.00">Start</text>
</g>
<!-- end -->
<g id="node2" class="node">
<title>end</title>
</g>
<!-- f6ee071a&#45;c3f0&#45;48aa&#45;adeb&#45;b6e5f9a82d3a&#45;&gt;end -->
<g id="edge3" class="edge">
<title>f6ee071a&#45;c3f0&#45;48aa&#45;adeb&#45;b6e5f9a82d3a&#45;&gt;end</title>
<path fill="none" stroke="black" d="M420.53,-99.87C440.66,-99.87 457.55,-99.87 467.82,-99.87"/>
<polygon fill="black" stroke="black" points="467.87,-103.37 477.87,-99.87 467.87,-96.37 467.87,-103.37"/>
<text text-anchor="middle" x="449.17" y="-106.67" font-family="Helvetica,sans-Serif" font-size="14.00">Finish</text>
</g>
<!-- 23203cd1&#45;9883&#45;4221&#45;bb1f&#45;e23005958cf5 -->
<g id="node4" class="node">
<title>23203cd1&#45;9883&#45;4221&#45;bb1f&#45;e23005958cf5</title>
<polygon fill="#0ee832" stroke="black" points="463,-36 10,-36 10,0 463,0 463,-36"/>
<text text-anchor="middle" x="236.5" y="-14.3" font-family="Helvetica,sans-Serif" font-size="14.00">✓ Run GitHub Actions for `components/TeacherDashboard.tsx`</text>
</g>
<!-- f6ee071a&#45;c3f0&#45;48aa&#45;adeb&#45;b6e5f9a82d3a&#45;&gt;23203cd1&#45;9883&#45;4221&#45;bb1f&#45;e23005958cf5 -->
<g id="edge1" class="edge">
<title>f6ee071a&#45;c3f0&#45;48aa&#45;adeb&#45;b6e5f9a82d3a&#45;&gt;23203cd1&#45;9883&#45;4221&#45;bb1f&#45;e23005958cf5</title>
<path fill="none" stroke="black" stroke-dasharray="5,2" d="M236.5,-72.72C236.5,-64.27 236.5,-54.89 236.5,-46.36"/>
<polygon fill="black" stroke="black" points="240,-46.15 236.5,-36.15 233,-46.15 240,-46.15"/>
</g>
</g>
</svg>
