<?xml version="1.0" encoding="UTF-8" standalone="no"?>
<!DOCTYPE svg PUBLIC "-//W3C//DTD SVG 1.1//EN"
 "http://www.w3.org/Graphics/SVG/1.1/DTD/svg11.dtd">
<!-- Generated by graphviz version 2.43.0 (0)
 -->
<!-- Title: %3 Pages: 1 -->
<svg width="1371pt" height="238pt"
 viewBox="0.00 0.00 1371.00 237.74" xmlns="http://www.w3.org/2000/svg" xmlns:xlink="http://www.w3.org/1999/xlink">
<g id="graph0" class="graph" transform="scale(1 1) rotate(0) translate(36 201.74)">
<title>%3</title>
<polygon fill="dimgray" stroke="transparent" points="-36,36 -36,-201.74 1335,-201.74 1335,36 -36,36"/>
<text text-anchor="middle" x="649.5" y="-150.54" font-family="Helvetica,sans-Serif" font-size="14.00">Sweep&#39;s Plan &amp; Progress</text>
<!-- start -->
<g id="node1" class="node">
<title>start</title>
</g>
<!-- 087d8863&#45;fff0&#45;4dcd&#45;84f1&#45;f85f1cc8954b -->
<g id="node3" class="node">
<title>087d8863&#45;fff0&#45;4dcd&#45;84f1&#45;f85f1cc8954b</title>
<ellipse fill="#0ee832" stroke="black" cx="304.5" cy="-99.87" rx="247.47" ry="26.74"/>
<text text-anchor="middle" x="304.5" y="-103.67" font-family="Helvetica,sans-Serif" font-size="14.00">✓ Create</text>
<text text-anchor="middle" x="304.5" y="-88.67" font-family="Helvetica,sans-Serif" font-size="14.00">env/lib/python3.10/site&#45;packages/ai_features.py</text>
</g>
<!-- start&#45;&gt;087d8863&#45;fff0&#45;4dcd&#45;84f1&#45;f85f1cc8954b -->
<g id="edge6" class="edge">
<title>start&#45;&gt;087d8863&#45;fff0&#45;4dcd&#45;84f1&#45;f85f1cc8954b</title>
<path fill="none" stroke="black" d="M6.36,-99.87C10.03,-99.87 25.22,-99.87 46.95,-99.87"/>
<polygon fill="black" stroke="black" points="47.01,-103.37 57.01,-99.87 47.01,-96.37 47.01,-103.37"/>
<text text-anchor="middle" x="31.51" y="-106.67" font-family="Helvetica,sans-Serif" font-size="14.00">Start</text>
</g>
<!-- end -->
<g id="node2" class="node">
<title>end</title>
</g>
<!-- ed2ae7db&#45;1088&#45;4cf7&#45;8c26&#45;a8e6e46cccdb -->
<g id="node4" class="node">
<title>ed2ae7db&#45;1088&#45;4cf7&#45;8c26&#45;a8e6e46cccdb</title>
<ellipse fill="white" stroke="black" cx="751.5" cy="-99.87" rx="130.63" ry="26.74"/>
<text text-anchor="middle" x="751.5" y="-103.67" font-family="Helvetica,sans-Serif" font-size="14.00">▶ Create</text>
<text text-anchor="middle" x="751.5" y="-88.67" font-family="Helvetica,sans-Serif" font-size="14.00">tests/test_ai_features.py</text>
</g>
<!-- 087d8863&#45;fff0&#45;4dcd&#45;84f1&#45;f85f1cc8954b&#45;&gt;ed2ae7db&#45;1088&#45;4cf7&#45;8c26&#45;a8e6e46cccdb -->
<g id="edge2" class="edge">
<title>087d8863&#45;fff0&#45;4dcd&#45;84f1&#45;f85f1cc8954b&#45;&gt;ed2ae7db&#45;1088&#45;4cf7&#45;8c26&#45;a8e6e46cccdb</title>
<path fill="none" stroke="black" d="M552.01,-99.87C571.47,-99.87 590.94,-99.87 610.4,-99.87"/>
<polygon fill="black" stroke="black" points="610.58,-103.37 620.58,-99.87 610.58,-96.37 610.58,-103.37"/>
</g>
<!-- cf654b51&#45;982f&#45;4727&#45;9476&#45;57445c3d1029 -->
<g id="node6" class="node">
<title>cf654b51&#45;982f&#45;4727&#45;9476&#45;57445c3d1029</title>
<polygon fill="yellow" stroke="black" points="545,-36 0,-36 0,0 545,0 545,-36"/>
<text text-anchor="middle" x="272.5" y="-14.3" font-family="Helvetica,sans-Serif" font-size="14.00">⋯ Run GitHub Actions for `env/lib/python3.10/site&#45;packages/ai_features.py`</text>
</g>
<!-- 087d8863&#45;fff0&#45;4dcd&#45;84f1&#45;f85f1cc8954b&#45;&gt;cf654b51&#45;982f&#45;4727&#45;9476&#45;57445c3d1029 -->
<g id="edge1" class="edge">
<title>087d8863&#45;fff0&#45;4dcd&#45;84f1&#45;f85f1cc8954b&#45;&gt;cf654b51&#45;982f&#45;4727&#45;9476&#45;57445c3d1029</title>
<path fill="none" stroke="black" stroke-dasharray="5,2" d="M294.02,-72.72C290.53,-63.99 286.63,-54.26 283.12,-45.51"/>
<polygon fill="black" stroke="black" points="286.34,-44.13 279.37,-36.15 279.84,-46.73 286.34,-44.13"/>
</g>
<!-- c52ce537&#45;41b5&#45;4415&#45;8d50&#45;31ce5d999104 -->
<g id="node5" class="node">
<title>c52ce537&#45;41b5&#45;4415&#45;8d50&#45;31ce5d999104</title>
<ellipse fill="white" stroke="black" cx="1076.5" cy="-99.87" rx="105.22" ry="26.74"/>
<text text-anchor="middle" x="1076.5" y="-103.67" font-family="Helvetica,sans-Serif" font-size="14.00">▶ Modify</text>
<text text-anchor="middle" x="1076.5" y="-88.67" font-family="Helvetica,sans-Serif" font-size="14.00">Documentation.md</text>
</g>
<!-- ed2ae7db&#45;1088&#45;4cf7&#45;8c26&#45;a8e6e46cccdb&#45;&gt;c52ce537&#45;41b5&#45;4415&#45;8d50&#45;31ce5d999104 -->
<g id="edge4" class="edge">
<title>ed2ae7db&#45;1088&#45;4cf7&#45;8c26&#45;a8e6e46cccdb&#45;&gt;c52ce537&#45;41b5&#45;4415&#45;8d50&#45;31ce5d999104</title>
<path fill="none" stroke="black" d="M882.58,-99.87C908.55,-99.87 934.52,-99.87 960.49,-99.87"/>
<polygon fill="black" stroke="black" points="960.83,-103.37 970.83,-99.87 960.83,-96.37 960.83,-103.37"/>
</g>
<!-- eab1cd84&#45;cd90&#45;45dc&#45;b565&#45;fea265fa7aed -->
<g id="node7" class="node">
<title>eab1cd84&#45;cd90&#45;45dc&#45;b565&#45;fea265fa7aed</title>
<polygon fill="white" stroke="black" points="940,-36 563,-36 563,0 940,0 940,-36"/>
<text text-anchor="middle" x="751.5" y="-14.3" font-family="Helvetica,sans-Serif" font-size="14.00">▶ Run GitHub Actions for `tests/test_ai_features.py`</text>
</g>
<!-- ed2ae7db&#45;1088&#45;4cf7&#45;8c26&#45;a8e6e46cccdb&#45;&gt;eab1cd84&#45;cd90&#45;45dc&#45;b565&#45;fea265fa7aed -->
<g id="edge3" class="edge">
<title>ed2ae7db&#45;1088&#45;4cf7&#45;8c26&#45;a8e6e46cccdb&#45;&gt;eab1cd84&#45;cd90&#45;45dc&#45;b565&#45;fea265fa7aed</title>
<path fill="none" stroke="black" stroke-dasharray="5,2" d="M751.5,-72.72C751.5,-64.27 751.5,-54.89 751.5,-46.36"/>
<polygon fill="black" stroke="black" points="755,-46.15 751.5,-36.15 748,-46.15 755,-46.15"/>
</g>
<!-- c52ce537&#45;41b5&#45;4415&#45;8d50&#45;31ce5d999104&#45;&gt;end -->
<g id="edge7" class="edge">
<title>c52ce537&#45;41b5&#45;4415&#45;8d50&#45;31ce5d999104&#45;&gt;end</title>
<path fill="none" stroke="black" d="M1182.03,-99.87C1201.11,-99.87 1218.26,-99.87 1228.76,-99.87"/>
<polygon fill="black" stroke="black" points="1228.83,-103.37 1238.83,-99.87 1228.83,-96.37 1228.83,-103.37"/>
<text text-anchor="middle" x="1210.43" y="-106.67" font-family="Helvetica,sans-Serif" font-size="14.00">Finish</text>
</g>
<!-- 2dca9f05&#45;6da3&#45;4d5f&#45;a6a7&#45;800f0c73c1ef -->
<g id="node8" class="node">
<title>2dca9f05&#45;6da3&#45;4d5f&#45;a6a7&#45;800f0c73c1ef</title>
<polygon fill="white" stroke="black" points="1299,-36 958,-36 958,0 1299,0 1299,-36"/>
<text text-anchor="middle" x="1128.5" y="-14.3" font-family="Helvetica,sans-Serif" font-size="14.00">▶ Run GitHub Actions for `Documentation.md`</text>
</g>
<!-- c52ce537&#45;41b5&#45;4415&#45;8d50&#45;31ce5d999104&#45;&gt;2dca9f05&#45;6da3&#45;4d5f&#45;a6a7&#45;800f0c73c1ef -->
<g id="edge5" class="edge">
<title>c52ce537&#45;41b5&#45;4415&#45;8d50&#45;31ce5d999104&#45;&gt;2dca9f05&#45;6da3&#45;4d5f&#45;a6a7&#45;800f0c73c1ef</title>
<path fill="none" stroke="black" stroke-dasharray="5,2" d="M1093.24,-73.16C1099.12,-64.13 1105.72,-53.98 1111.61,-44.94"/>
<polygon fill="black" stroke="black" points="1114.69,-46.63 1117.21,-36.34 1108.82,-42.81 1114.69,-46.63"/>
</g>
</g>
</svg>
