<?xml version="1.0" encoding="UTF-8" standalone="no"?>
<!DOCTYPE svg PUBLIC "-//W3C//DTD SVG 1.1//EN"
 "http://www.w3.org/Graphics/SVG/1.1/DTD/svg11.dtd">
<!-- Generated by graphviz version 2.43.0 (0)
 -->
<!-- Title: %3 Pages: 1 -->
<svg width="845pt" height="165pt"
 viewBox="0.00 0.00 845.00 164.74" xmlns="http://www.w3.org/2000/svg" xmlns:xlink="http://www.w3.org/1999/xlink">
<g id="graph0" class="graph" transform="scale(1 1) rotate(0) translate(36 128.74)">
<title>%3</title>
<polygon fill="dimgray" stroke="transparent" points="-36,36 -36,-128.74 809,-128.74 809,36 -36,36"/>
<text text-anchor="middle" x="386.5" y="-77.54" font-family="Helvetica,sans-Serif" font-size="14.00">Sweep&#39;s Plan &amp; Progress</text>
<!-- start -->
<g id="node1" class="node">
<title>start</title>
</g>
<!-- 72ca3f6c&#45;5d75&#45;4ca5&#45;9813&#45;192ea2922d0c -->
<g id="node3" class="node">
<title>72ca3f6c&#45;5d75&#45;4ca5&#45;9813&#45;192ea2922d0c</title>
<ellipse fill="#0ee832" stroke="black" cx="383.5" cy="-26.87" rx="330.85" ry="26.74"/>
<text text-anchor="middle" x="383.5" y="-30.67" font-family="Helvetica,sans-Serif" font-size="14.00">✓ Create</text>
<text text-anchor="middle" x="383.5" y="-15.67" font-family="Helvetica,sans-Serif" font-size="14.00">env/lib/python3.10/site&#45;packages/pip/_internal/cli/new_feature.py</text>
</g>
<!-- start&#45;&gt;72ca3f6c&#45;5d75&#45;4ca5&#45;9813&#45;192ea2922d0c -->
<g id="edge1" class="edge">
<title>start&#45;&gt;72ca3f6c&#45;5d75&#45;4ca5&#45;9813&#45;192ea2922d0c</title>
<path fill="none" stroke="black" d="M1.12,-26.87C4.31,-26.87 19.58,-26.87 42.32,-26.87"/>
<polygon fill="black" stroke="black" points="42.51,-30.37 52.51,-26.87 42.51,-23.37 42.51,-30.37"/>
<text text-anchor="middle" x="26.79" y="-33.67" font-family="Helvetica,sans-Serif" font-size="14.00">Start</text>
</g>
<!-- end -->
<g id="node2" class="node">
<title>end</title>
</g>
<!-- 72ca3f6c&#45;5d75&#45;4ca5&#45;9813&#45;192ea2922d0c&#45;&gt;end -->
<g id="edge2" class="edge">
<title>72ca3f6c&#45;5d75&#45;4ca5&#45;9813&#45;192ea2922d0c&#45;&gt;end</title>
<path fill="none" stroke="black" d="M714.68,-26.87C735.14,-26.87 751.52,-26.87 761.55,-26.87"/>
<polygon fill="black" stroke="black" points="761.9,-30.37 771.9,-26.87 761.9,-23.37 761.9,-30.37"/>
<text text-anchor="middle" x="743.21" y="-33.67" font-family="Helvetica,sans-Serif" font-size="14.00">Finish</text>
</g>
</g>
</svg>
