<?xml version="1.0" encoding="UTF-8" standalone="no"?>
<!DOCTYPE svg PUBLIC "-//W3C//DTD SVG 1.1//EN"
 "http://www.w3.org/Graphics/SVG/1.1/DTD/svg11.dtd">
<!-- Generated by graphviz version 2.43.0 (0)
 -->
<!-- Title: %3 Pages: 1 -->
<svg width="1354pt" height="238pt"
 viewBox="0.00 0.00 1354.00 237.74" xmlns="http://www.w3.org/2000/svg" xmlns:xlink="http://www.w3.org/1999/xlink">
<g id="graph0" class="graph" transform="scale(1 1) rotate(0) translate(36 201.74)">
<title>%3</title>
<polygon fill="dimgray" stroke="transparent" points="-36,36 -36,-201.74 1318,-201.74 1318,36 -36,36"/>
<text text-anchor="middle" x="641" y="-150.54" font-family="Helvetica,sans-Serif" font-size="14.00">Sweep&#39;s Plan &amp; Progress</text>
<!-- start -->
<g id="node1" class="node">
<title>start</title>
</g>
<!-- 0f1a3a53&#45;1c36&#45;40b7&#45;b36d&#45;2a524bc4918a -->
<g id="node3" class="node">
<title>0f1a3a53&#45;1c36&#45;40b7&#45;b36d&#45;2a524bc4918a</title>
<ellipse fill="#0ee832" stroke="black" cx="230" cy="-99.87" rx="132.46" ry="26.74"/>
<text text-anchor="middle" x="230" y="-103.67" font-family="Helvetica,sans-Serif" font-size="14.00">✓ Create</text>
<text text-anchor="middle" x="230" y="-88.67" font-family="Helvetica,sans-Serif" font-size="14.00">backend/optimization.py</text>
</g>
<!-- start&#45;&gt;0f1a3a53&#45;1c36&#45;40b7&#45;b36d&#45;2a524bc4918a -->
<g id="edge6" class="edge">
<title>start&#45;&gt;0f1a3a53&#45;1c36&#45;40b7&#45;b36d&#45;2a524bc4918a</title>
<path fill="none" stroke="black" d="M46.53,-99.87C49.6,-99.87 65.78,-99.87 87.35,-99.87"/>
<polygon fill="black" stroke="black" points="87.62,-103.37 97.62,-99.87 87.62,-96.37 87.62,-103.37"/>
<text text-anchor="middle" x="72.14" y="-106.67" font-family="Helvetica,sans-Serif" font-size="14.00">Start</text>
</g>
<!-- end -->
<g id="node2" class="node">
<title>end</title>
</g>
<!-- bc88fc58&#45;0ca9&#45;4444&#45;8bb4&#45;862681cfc1e4 -->
<g id="node4" class="node">
<title>bc88fc58&#45;0ca9&#45;4444&#45;8bb4&#45;862681cfc1e4</title>
<ellipse fill="#0ee832" stroke="black" cx="629" cy="-99.87" rx="190.42" ry="26.74"/>
<text text-anchor="middle" x="629" y="-103.67" font-family="Helvetica,sans-Serif" font-size="14.00">✓ Modify</text>
<text text-anchor="middle" x="629" y="-88.67" font-family="Helvetica,sans-Serif" font-size="14.00">components/PerformanceTracking.js</text>
</g>
<!-- 0f1a3a53&#45;1c36&#45;40b7&#45;b36d&#45;2a524bc4918a&#45;&gt;bc88fc58&#45;0ca9&#45;4444&#45;8bb4&#45;862681cfc1e4 -->
<g id="edge2" class="edge">
<title>0f1a3a53&#45;1c36&#45;40b7&#45;b36d&#45;2a524bc4918a&#45;&gt;bc88fc58&#45;0ca9&#45;4444&#45;8bb4&#45;862681cfc1e4</title>
<path fill="none" stroke="black" d="M362.48,-99.87C384.52,-99.87 406.57,-99.87 428.61,-99.87"/>
<polygon fill="black" stroke="black" points="428.74,-103.37 438.74,-99.87 428.74,-96.37 428.74,-103.37"/>
</g>
<!-- 77f6f409&#45;9201&#45;4991&#45;b0c8&#45;9eecc3e6a628 -->
<g id="node6" class="node">
<title>77f6f409&#45;9201&#45;4991&#45;b0c8&#45;9eecc3e6a628</title>
<polygon fill="#0ee832" stroke="black" points="380,-36 0,-36 0,0 380,0 380,-36"/>
<text text-anchor="middle" x="190" y="-14.3" font-family="Helvetica,sans-Serif" font-size="14.00">✓ Run GitHub Actions for `backend/optimization.py`</text>
</g>
<!-- 0f1a3a53&#45;1c36&#45;40b7&#45;b36d&#45;2a524bc4918a&#45;&gt;77f6f409&#45;9201&#45;4991&#45;b0c8&#45;9eecc3e6a628 -->
<g id="edge1" class="edge">
<title>0f1a3a53&#45;1c36&#45;40b7&#45;b36d&#45;2a524bc4918a&#45;&gt;77f6f409&#45;9201&#45;4991&#45;b0c8&#45;9eecc3e6a628</title>
<path fill="none" stroke="black" stroke-dasharray="5,2" d="M216.9,-72.72C212.49,-63.9 207.56,-54.05 203.14,-45.23"/>
<polygon fill="black" stroke="black" points="206.19,-43.52 198.59,-36.15 199.94,-46.66 206.19,-43.52"/>
</g>
<!-- 9c6cdb54&#45;10ea&#45;42d7&#45;b9c7&#45;ca56bdf0a8c2 -->
<g id="node5" class="node">
<title>9c6cdb54&#45;10ea&#45;42d7&#45;b9c7&#45;ca56bdf0a8c2</title>
<ellipse fill="#0ee832" stroke="black" cx="1041" cy="-99.87" rx="147.57" ry="26.74"/>
<text text-anchor="middle" x="1041" y="-103.67" font-family="Helvetica,sans-Serif" font-size="14.00">✓ Modify</text>
<text text-anchor="middle" x="1041" y="-88.67" font-family="Helvetica,sans-Serif" font-size="14.00">personalized_learning_ai.py</text>
</g>
<!-- bc88fc58&#45;0ca9&#45;4444&#45;8bb4&#45;862681cfc1e4&#45;&gt;9c6cdb54&#45;10ea&#45;42d7&#45;b9c7&#45;ca56bdf0a8c2 -->
<g id="edge4" class="edge">
<title>bc88fc58&#45;0ca9&#45;4444&#45;8bb4&#45;862681cfc1e4&#45;&gt;9c6cdb54&#45;10ea&#45;42d7&#45;b9c7&#45;ca56bdf0a8c2</title>
<path fill="none" stroke="black" d="M819.31,-99.87C840.49,-99.87 861.67,-99.87 882.85,-99.87"/>
<polygon fill="black" stroke="black" points="882.92,-103.37 892.92,-99.87 882.92,-96.37 882.92,-103.37"/>
</g>
<!-- faab1796&#45;1bc0&#45;4f2b&#45;bca6&#45;5f4f2de158ee -->
<g id="node7" class="node">
<title>faab1796&#45;1bc0&#45;4f2b&#45;bca6&#45;5f4f2de158ee</title>
<polygon fill="#0ee832" stroke="black" points="859.5,-36 398.5,-36 398.5,0 859.5,0 859.5,-36"/>
<text text-anchor="middle" x="629" y="-14.3" font-family="Helvetica,sans-Serif" font-size="14.00">✓ Run GitHub Actions for `components/PerformanceTracking.js`</text>
</g>
<!-- bc88fc58&#45;0ca9&#45;4444&#45;8bb4&#45;862681cfc1e4&#45;&gt;faab1796&#45;1bc0&#45;4f2b&#45;bca6&#45;5f4f2de158ee -->
<g id="edge3" class="edge">
<title>bc88fc58&#45;0ca9&#45;4444&#45;8bb4&#45;862681cfc1e4&#45;&gt;faab1796&#45;1bc0&#45;4f2b&#45;bca6&#45;5f4f2de158ee</title>
<path fill="none" stroke="black" stroke-dasharray="5,2" d="M629,-72.72C629,-64.27 629,-54.89 629,-46.36"/>
<polygon fill="black" stroke="black" points="632.5,-46.15 629,-36.15 625.5,-46.15 632.5,-46.15"/>
</g>
<!-- 9c6cdb54&#45;10ea&#45;42d7&#45;b9c7&#45;ca56bdf0a8c2&#45;&gt;end -->
<g id="edge7" class="edge">
<title>9c6cdb54&#45;10ea&#45;42d7&#45;b9c7&#45;ca56bdf0a8c2&#45;&gt;end</title>
<path fill="none" stroke="black" d="M1188.79,-99.87C1208.59,-99.87 1225.64,-99.87 1236.08,-99.87"/>
<polygon fill="black" stroke="black" points="1236.35,-103.37 1246.35,-99.87 1236.35,-96.37 1236.35,-103.37"/>
<text text-anchor="middle" x="1217.64" y="-106.67" font-family="Helvetica,sans-Serif" font-size="14.00">Finish</text>
</g>
<!-- 2a0002a8&#45;8bbf&#45;4b1d&#45;ad28&#45;8c73fe1e6df5 -->
<g id="node8" class="node">
<title>2a0002a8&#45;8bbf&#45;4b1d&#45;ad28&#45;8c73fe1e6df5</title>
<polygon fill="yellow" stroke="black" points="1282,-36 878,-36 878,0 1282,0 1282,-36"/>
<text text-anchor="middle" x="1080" y="-14.3" font-family="Helvetica,sans-Serif" font-size="14.00">⋯ Run GitHub Actions for `personalized_learning_ai.py`</text>
</g>
<!-- 9c6cdb54&#45;10ea&#45;42d7&#45;b9c7&#45;ca56bdf0a8c2&#45;&gt;2a0002a8&#45;8bbf&#45;4b1d&#45;ad28&#45;8c73fe1e6df5 -->
<g id="edge5" class="edge">
<title>9c6cdb54&#45;10ea&#45;42d7&#45;b9c7&#45;ca56bdf0a8c2&#45;&gt;2a0002a8&#45;8bbf&#45;4b1d&#45;ad28&#45;8c73fe1e6df5</title>
<path fill="none" stroke="black" stroke-dasharray="5,2" d="M1053.77,-72.72C1058.08,-63.9 1062.88,-54.05 1067.19,-45.23"/>
<polygon fill="black" stroke="black" points="1070.38,-46.67 1071.63,-36.15 1064.09,-43.6 1070.38,-46.67"/>
</g>
</g>
</svg>
