<?xml version="1.0" encoding="UTF-8" standalone="no"?>
<!DOCTYPE svg PUBLIC "-//W3C//DTD SVG 1.1//EN"
 "http://www.w3.org/Graphics/SVG/1.1/DTD/svg11.dtd">
<!-- Generated by graphviz version 2.43.0 (0)
 -->
<!-- Title: %3 Pages: 1 -->
<svg width="1294pt" height="165pt"
 viewBox="0.00 0.00 1294.00 164.74" xmlns="http://www.w3.org/2000/svg" xmlns:xlink="http://www.w3.org/1999/xlink">
<g id="graph0" class="graph" transform="scale(1 1) rotate(0) translate(36 128.74)">
<title>%3</title>
<polygon fill="dimgray" stroke="transparent" points="-36,36 -36,-128.74 1258,-128.74 1258,36 -36,36"/>
<text text-anchor="middle" x="611" y="-77.54" font-family="Helvetica,sans-Serif" font-size="14.00">Sweep&#39;s Plan &amp; Progress</text>
<!-- start -->
<g id="node1" class="node">
<title>start</title>
</g>
<!-- f0b3e533&#45;af94&#45;4c74&#45;aeac&#45;30eb818da6d8 -->
<g id="node3" class="node">
<title>f0b3e533&#45;af94&#45;4c74&#45;aeac&#45;30eb818da6d8</title>
<ellipse fill="#0ee832" stroke="black" cx="144.5" cy="-26.87" rx="91.85" ry="26.74"/>
<text text-anchor="middle" x="144.5" y="-30.67" font-family="Helvetica,sans-Serif" font-size="14.00">✓ Modify</text>
<text text-anchor="middle" x="144.5" y="-15.67" font-family="Helvetica,sans-Serif" font-size="14.00">test_backend.py</text>
</g>
<!-- start&#45;&gt;f0b3e533&#45;af94&#45;4c74&#45;aeac&#45;30eb818da6d8 -->
<g id="edge6" class="edge">
<title>start&#45;&gt;f0b3e533&#45;af94&#45;4c74&#45;aeac&#45;30eb818da6d8</title>
<path fill="none" stroke="black" d="M1.14,-26.87C4.56,-26.87 21.22,-26.87 42.06,-26.87"/>
<polygon fill="black" stroke="black" points="42.24,-30.37 52.24,-26.87 42.24,-23.37 42.24,-30.37"/>
<text text-anchor="middle" x="26.79" y="-33.67" font-family="Helvetica,sans-Serif" font-size="14.00">Start</text>
</g>
<!-- end -->
<g id="node2" class="node">
<title>end</title>
</g>
<!-- 7891478d&#45;887a&#45;4c01&#45;81bd&#45;192cc7fb8653 -->
<g id="node4" class="node">
<title>7891478d&#45;887a&#45;4c01&#45;81bd&#45;192cc7fb8653</title>
<ellipse fill="#0ee832" stroke="black" cx="361.5" cy="-26.87" rx="89.19" ry="26.74"/>
<text text-anchor="middle" x="361.5" y="-30.67" font-family="Helvetica,sans-Serif" font-size="14.00">✓ Modify</text>
<text text-anchor="middle" x="361.5" y="-15.67" font-family="Helvetica,sans-Serif" font-size="14.00">test_frontend.ts</text>
</g>
<!-- f0b3e533&#45;af94&#45;4c74&#45;aeac&#45;30eb818da6d8&#45;&gt;7891478d&#45;887a&#45;4c01&#45;81bd&#45;192cc7fb8653 -->
<g id="edge1" class="edge">
<title>f0b3e533&#45;af94&#45;4c74&#45;aeac&#45;30eb818da6d8&#45;&gt;7891478d&#45;887a&#45;4c01&#45;81bd&#45;192cc7fb8653</title>
<path fill="none" stroke="black" d="M236.47,-26.87C245.01,-26.87 253.55,-26.87 262.1,-26.87"/>
<polygon fill="black" stroke="black" points="262.12,-30.37 272.12,-26.87 262.12,-23.37 262.12,-30.37"/>
</g>
<!-- 4f4348cf&#45;b31e&#45;4bc4&#45;aae6&#45;649148f347f6 -->
<g id="node5" class="node">
<title>4f4348cf&#45;b31e&#45;4bc4&#45;aae6&#45;649148f347f6</title>
<ellipse fill="#0ee832" stroke="black" cx="549.5" cy="-26.87" rx="62.87" ry="26.74"/>
<text text-anchor="middle" x="549.5" y="-30.67" font-family="Helvetica,sans-Serif" font-size="14.00">✓ Modify</text>
<text text-anchor="middle" x="549.5" y="-15.67" font-family="Helvetica,sans-Serif" font-size="14.00">models.py</text>
</g>
<!-- 7891478d&#45;887a&#45;4c01&#45;81bd&#45;192cc7fb8653&#45;&gt;4f4348cf&#45;b31e&#45;4bc4&#45;aae6&#45;649148f347f6 -->
<g id="edge2" class="edge">
<title>7891478d&#45;887a&#45;4c01&#45;81bd&#45;192cc7fb8653&#45;&gt;4f4348cf&#45;b31e&#45;4bc4&#45;aae6&#45;649148f347f6</title>
<path fill="none" stroke="black" d="M450.73,-26.87C459.14,-26.87 467.55,-26.87 475.96,-26.87"/>
<polygon fill="black" stroke="black" points="476.22,-30.37 486.22,-26.87 476.22,-23.37 476.22,-30.37"/>
</g>
<!-- abdb589c&#45;4962&#45;4e0e&#45;8bfe&#45;28d5a06d6348 -->
<g id="node6" class="node">
<title>abdb589c&#45;4962&#45;4e0e&#45;8bfe&#45;28d5a06d6348</title>
<ellipse fill="#0ee832" stroke="black" cx="703.5" cy="-26.87" rx="55.72" ry="26.74"/>
<text text-anchor="middle" x="703.5" y="-30.67" font-family="Helvetica,sans-Serif" font-size="14.00">✓ Modify</text>
<text text-anchor="middle" x="703.5" y="-15.67" font-family="Helvetica,sans-Serif" font-size="14.00">auth.py</text>
</g>
<!-- 4f4348cf&#45;b31e&#45;4bc4&#45;aae6&#45;649148f347f6&#45;&gt;abdb589c&#45;4962&#45;4e0e&#45;8bfe&#45;28d5a06d6348 -->
<g id="edge3" class="edge">
<title>4f4348cf&#45;b31e&#45;4bc4&#45;aae6&#45;649148f347f6&#45;&gt;abdb589c&#45;4962&#45;4e0e&#45;8bfe&#45;28d5a06d6348</title>
<path fill="none" stroke="black" d="M612.66,-26.87C620.9,-26.87 629.15,-26.87 637.39,-26.87"/>
<polygon fill="black" stroke="black" points="637.44,-30.37 647.44,-26.87 637.44,-23.37 637.44,-30.37"/>
</g>
<!-- 768ed444&#45;32c4&#45;4bcc&#45;b242&#45;cb9fafdd45fa -->
<g id="node7" class="node">
<title>768ed444&#45;32c4&#45;4bcc&#45;b242&#45;cb9fafdd45fa</title>
<ellipse fill="yellow" stroke="black" cx="874.5" cy="-26.87" rx="79.81" ry="26.74"/>
<text text-anchor="middle" x="874.5" y="-30.67" font-family="Helvetica,sans-Serif" font-size="14.00">⋯ Modify</text>
<text text-anchor="middle" x="874.5" y="-15.67" font-family="Helvetica,sans-Serif" font-size="14.00">encryption.py</text>
</g>
<!-- abdb589c&#45;4962&#45;4e0e&#45;8bfe&#45;28d5a06d6348&#45;&gt;768ed444&#45;32c4&#45;4bcc&#45;b242&#45;cb9fafdd45fa -->
<g id="edge4" class="edge">
<title>abdb589c&#45;4962&#45;4e0e&#45;8bfe&#45;28d5a06d6348&#45;&gt;768ed444&#45;32c4&#45;4bcc&#45;b242&#45;cb9fafdd45fa</title>
<path fill="none" stroke="black" d="M759.61,-26.87C767.71,-26.87 775.81,-26.87 783.91,-26.87"/>
<polygon fill="black" stroke="black" points="784.17,-30.37 794.17,-26.87 784.17,-23.37 784.17,-30.37"/>
</g>
<!-- 66c8d775&#45;6098&#45;4e91&#45;80f3&#45;9890a63b9710 -->
<g id="node8" class="node">
<title>66c8d775&#45;6098&#45;4e91&#45;80f3&#45;9890a63b9710</title>
<ellipse fill="white" stroke="black" cx="1076.5" cy="-26.87" rx="86.95" ry="26.74"/>
<text text-anchor="middle" x="1076.5" y="-30.67" font-family="Helvetica,sans-Serif" font-size="14.00">▶ Create</text>
<text text-anchor="middle" x="1076.5" y="-15.67" font-family="Helvetica,sans-Serif" font-size="14.00">new_feature.py</text>
</g>
<!-- 768ed444&#45;32c4&#45;4bcc&#45;b242&#45;cb9fafdd45fa&#45;&gt;66c8d775&#45;6098&#45;4e91&#45;80f3&#45;9890a63b9710 -->
<g id="edge5" class="edge">
<title>768ed444&#45;32c4&#45;4bcc&#45;b242&#45;cb9fafdd45fa&#45;&gt;66c8d775&#45;6098&#45;4e91&#45;80f3&#45;9890a63b9710</title>
<path fill="none" stroke="black" d="M954.59,-26.87C962.83,-26.87 971.07,-26.87 979.3,-26.87"/>
<polygon fill="black" stroke="black" points="979.35,-30.37 989.35,-26.87 979.35,-23.37 979.35,-30.37"/>
</g>
<!-- 66c8d775&#45;6098&#45;4e91&#45;80f3&#45;9890a63b9710&#45;&gt;end -->
<g id="edge7" class="edge">
<title>66c8d775&#45;6098&#45;4e91&#45;80f3&#45;9890a63b9710&#45;&gt;end</title>
<path fill="none" stroke="black" d="M1163.78,-26.87C1182.47,-26.87 1199.8,-26.87 1210.5,-26.87"/>
<polygon fill="black" stroke="black" points="1210.81,-30.37 1220.81,-26.87 1210.81,-23.37 1210.81,-30.37"/>
<text text-anchor="middle" x="1192.24" y="-33.67" font-family="Helvetica,sans-Serif" font-size="14.00">Finish</text>
</g>
</g>
</svg>
