<?xml version="1.0" encoding="UTF-8" standalone="no"?>
<!DOCTYPE svg PUBLIC "-//W3C//DTD SVG 1.1//EN"
 "http://www.w3.org/Graphics/SVG/1.1/DTD/svg11.dtd">
<!-- Generated by graphviz version 2.43.0 (0)
 -->
<!-- Title: %3 Pages: 1 -->
<svg width="519pt" height="165pt"
 viewBox="0.00 0.00 519.00 164.74" xmlns="http://www.w3.org/2000/svg" xmlns:xlink="http://www.w3.org/1999/xlink">
<g id="graph0" class="graph" transform="scale(1 1) rotate(0) translate(36 128.74)">
<title>%3</title>
<polygon fill="dimgray" stroke="transparent" points="-36,36 -36,-128.74 483,-128.74 483,36 -36,36"/>
<text text-anchor="middle" x="223.5" y="-77.54" font-family="Helvetica,sans-Serif" font-size="14.00">Sweep&#39;s Plan &amp; Progress</text>
<!-- start -->
<g id="node1" class="node">
<title>start</title>
</g>
<!-- ea511b15&#45;fc4f&#45;4985&#45;bffe&#45;7a055c5944b4 -->
<g id="node3" class="node">
<title>ea511b15&#45;fc4f&#45;4985&#45;bffe&#45;7a055c5944b4</title>
<ellipse fill="#0ee832" stroke="black" cx="220.5" cy="-26.87" rx="168.08" ry="26.74"/>
<text text-anchor="middle" x="220.5" y="-30.67" font-family="Helvetica,sans-Serif" font-size="14.00">✓ Create</text>
<text text-anchor="middle" x="220.5" y="-15.67" font-family="Helvetica,sans-Serif" font-size="14.00">.github/DISCUSSION_GUIDE.md</text>
</g>
<!-- start&#45;&gt;ea511b15&#45;fc4f&#45;4985&#45;bffe&#45;7a055c5944b4 -->
<g id="edge1" class="edge">
<title>start&#45;&gt;ea511b15&#45;fc4f&#45;4985&#45;bffe&#45;7a055c5944b4</title>
<path fill="none" stroke="black" d="M1.13,-26.87C4.41,-26.87 20.22,-26.87 41.96,-26.87"/>
<polygon fill="black" stroke="black" points="41.98,-30.37 51.98,-26.87 41.98,-23.37 41.98,-30.37"/>
<text text-anchor="middle" x="26.6" y="-33.67" font-family="Helvetica,sans-Serif" font-size="14.00">Start</text>
</g>
<!-- end -->
<g id="node2" class="node">
<title>end</title>
</g>
<!-- ea511b15&#45;fc4f&#45;4985&#45;bffe&#45;7a055c5944b4&#45;&gt;end -->
<g id="edge2" class="edge">
<title>ea511b15&#45;fc4f&#45;4985&#45;bffe&#45;7a055c5944b4&#45;&gt;end</title>
<path fill="none" stroke="black" d="M388.89,-26.87C408.74,-26.87 425.56,-26.87 435.81,-26.87"/>
<polygon fill="black" stroke="black" points="435.86,-30.37 445.86,-26.87 435.86,-23.37 435.86,-30.37"/>
<text text-anchor="middle" x="417.4" y="-33.67" font-family="Helvetica,sans-Serif" font-size="14.00">Finish</text>
</g>
</g>
</svg>
