<?xml version="1.0" encoding="UTF-8" standalone="no"?>
<!DOCTYPE svg PUBLIC "-//W3C//DTD SVG 1.1//EN"
 "http://www.w3.org/Graphics/SVG/1.1/DTD/svg11.dtd">
<!-- Generated by graphviz version 2.43.0 (0)
 -->
<!-- Title: %3 Pages: 1 -->
<svg width="1350pt" height="238pt"
 viewBox="0.00 0.00 1350.00 237.74" xmlns="http://www.w3.org/2000/svg" xmlns:xlink="http://www.w3.org/1999/xlink">
<g id="graph0" class="graph" transform="scale(1 1) rotate(0) translate(36 201.74)">
<title>%3</title>
<polygon fill="dimgray" stroke="transparent" points="-36,36 -36,-201.74 1314,-201.74 1314,36 -36,36"/>
<text text-anchor="middle" x="639" y="-150.54" font-family="Helvetica,sans-Serif" font-size="14.00">Sweep&#39;s Plan &amp; Progress</text>
<!-- start -->
<g id="node1" class="node">
<title>start</title>
</g>
<!-- 0f1a3a53&#45;1c36&#45;40b7&#45;b36d&#45;2a524bc4918a -->
<g id="node3" class="node">
<title>0f1a3a53&#45;1c36&#45;40b7&#45;b36d&#45;2a524bc4918a</title>
<ellipse fill="#0ee832" stroke="black" cx="231" cy="-99.87" rx="132.46" ry="26.74"/>
<text text-anchor="middle" x="231" y="-103.67" font-family="Helvetica,sans-Serif" font-size="14.00">✓ Create</text>
<text text-anchor="middle" x="231" y="-88.67" font-family="Helvetica,sans-Serif" font-size="14.00">backend/optimization.py</text>
</g>
<!-- start&#45;&gt;0f1a3a53&#45;1c36&#45;40b7&#45;b36d&#45;2a524bc4918a -->
<g id="edge6" class="edge">
<title>start&#45;&gt;0f1a3a53&#45;1c36&#45;40b7&#45;b36d&#45;2a524bc4918a</title>
<path fill="none" stroke="black" d="M47.53,-99.87C50.6,-99.87 66.78,-99.87 88.35,-99.87"/>
<polygon fill="black" stroke="black" points="88.62,-103.37 98.62,-99.87 88.62,-96.37 88.62,-103.37"/>
<text text-anchor="middle" x="73.14" y="-106.67" font-family="Helvetica,sans-Serif" font-size="14.00">Start</text>
</g>
<!-- end -->
<g id="node2" class="node">
<title>end</title>
</g>
<!-- bc88fc58&#45;0ca9&#45;4444&#45;8bb4&#45;862681cfc1e4 -->
<g id="node4" class="node">
<title>bc88fc58&#45;0ca9&#45;4444&#45;8bb4&#45;862681cfc1e4</title>
<ellipse fill="white" stroke="black" cx="630" cy="-99.87" rx="190.42" ry="26.74"/>
<text text-anchor="middle" x="630" y="-103.67" font-family="Helvetica,sans-Serif" font-size="14.00">▶ Modify</text>
<text text-anchor="middle" x="630" y="-88.67" font-family="Helvetica,sans-Serif" font-size="14.00">components/PerformanceTracking.js</text>
</g>
<!-- 0f1a3a53&#45;1c36&#45;40b7&#45;b36d&#45;2a524bc4918a&#45;&gt;bc88fc58&#45;0ca9&#45;4444&#45;8bb4&#45;862681cfc1e4 -->
<g id="edge2" class="edge">
<title>0f1a3a53&#45;1c36&#45;40b7&#45;b36d&#45;2a524bc4918a&#45;&gt;bc88fc58&#45;0ca9&#45;4444&#45;8bb4&#45;862681cfc1e4</title>
<path fill="none" stroke="black" d="M363.48,-99.87C385.52,-99.87 407.57,-99.87 429.61,-99.87"/>
<polygon fill="black" stroke="black" points="429.74,-103.37 439.74,-99.87 429.74,-96.37 429.74,-103.37"/>
</g>
<!-- 77f6f409&#45;9201&#45;4991&#45;b0c8&#45;9eecc3e6a628 -->
<g id="node6" class="node">
<title>77f6f409&#45;9201&#45;4991&#45;b0c8&#45;9eecc3e6a628</title>
<polygon fill="yellow" stroke="black" points="382,-36 0,-36 0,0 382,0 382,-36"/>
<text text-anchor="middle" x="191" y="-14.3" font-family="Helvetica,sans-Serif" font-size="14.00">⋯ Run GitHub Actions for `backend/optimization.py`</text>
</g>
<!-- 0f1a3a53&#45;1c36&#45;40b7&#45;b36d&#45;2a524bc4918a&#45;&gt;77f6f409&#45;9201&#45;4991&#45;b0c8&#45;9eecc3e6a628 -->
<g id="edge1" class="edge">
<title>0f1a3a53&#45;1c36&#45;40b7&#45;b36d&#45;2a524bc4918a&#45;&gt;77f6f409&#45;9201&#45;4991&#45;b0c8&#45;9eecc3e6a628</title>
<path fill="none" stroke="black" stroke-dasharray="5,2" d="M217.9,-72.72C213.49,-63.9 208.56,-54.05 204.14,-45.23"/>
<polygon fill="black" stroke="black" points="207.19,-43.52 199.59,-36.15 200.94,-46.66 207.19,-43.52"/>
</g>
<!-- 9c6cdb54&#45;10ea&#45;42d7&#45;b9c7&#45;ca56bdf0a8c2 -->
<g id="node5" class="node">
<title>9c6cdb54&#45;10ea&#45;42d7&#45;b9c7&#45;ca56bdf0a8c2</title>
<ellipse fill="white" stroke="black" cx="1041" cy="-99.87" rx="147.57" ry="26.74"/>
<text text-anchor="middle" x="1041" y="-103.67" font-family="Helvetica,sans-Serif" font-size="14.00">▶ Modify</text>
<text text-anchor="middle" x="1041" y="-88.67" font-family="Helvetica,sans-Serif" font-size="14.00">personalized_learning_ai.py</text>
</g>
<!-- bc88fc58&#45;0ca9&#45;4444&#45;8bb4&#45;862681cfc1e4&#45;&gt;9c6cdb54&#45;10ea&#45;42d7&#45;b9c7&#45;ca56bdf0a8c2 -->
<g id="edge4" class="edge">
<title>bc88fc58&#45;0ca9&#45;4444&#45;8bb4&#45;862681cfc1e4&#45;&gt;9c6cdb54&#45;10ea&#45;42d7&#45;b9c7&#45;ca56bdf0a8c2</title>
<path fill="none" stroke="black" d="M820.25,-99.87C841.12,-99.87 861.99,-99.87 882.87,-99.87"/>
<polygon fill="black" stroke="black" points="883.11,-103.37 893.11,-99.87 883.11,-96.37 883.11,-103.37"/>
</g>
<!-- faab1796&#45;1bc0&#45;4f2b&#45;bca6&#45;5f4f2de158ee -->
<g id="node7" class="node">
<title>faab1796&#45;1bc0&#45;4f2b&#45;bca6&#45;5f4f2de158ee</title>
<polygon fill="white" stroke="black" points="860,-36 400,-36 400,0 860,0 860,-36"/>
<text text-anchor="middle" x="630" y="-14.3" font-family="Helvetica,sans-Serif" font-size="14.00">▶ Run GitHub Actions for `components/PerformanceTracking.js`</text>
</g>
<!-- bc88fc58&#45;0ca9&#45;4444&#45;8bb4&#45;862681cfc1e4&#45;&gt;faab1796&#45;1bc0&#45;4f2b&#45;bca6&#45;5f4f2de158ee -->
<g id="edge3" class="edge">
<title>bc88fc58&#45;0ca9&#45;4444&#45;8bb4&#45;862681cfc1e4&#45;&gt;faab1796&#45;1bc0&#45;4f2b&#45;bca6&#45;5f4f2de158ee</title>
<path fill="none" stroke="black" stroke-dasharray="5,2" d="M630,-72.72C630,-64.27 630,-54.89 630,-46.36"/>
<polygon fill="black" stroke="black" points="633.5,-46.15 630,-36.15 626.5,-46.15 633.5,-46.15"/>
</g>
<!-- 9c6cdb54&#45;10ea&#45;42d7&#45;b9c7&#45;ca56bdf0a8c2&#45;&gt;end -->
<g id="edge7" class="edge">
<title>9c6cdb54&#45;10ea&#45;42d7&#45;b9c7&#45;ca56bdf0a8c2&#45;&gt;end</title>
<path fill="none" stroke="black" d="M1188.79,-99.87C1208.59,-99.87 1225.64,-99.87 1236.08,-99.87"/>
<polygon fill="black" stroke="black" points="1236.35,-103.37 1246.35,-99.87 1236.35,-96.37 1236.35,-103.37"/>
<text text-anchor="middle" x="1217.64" y="-106.67" font-family="Helvetica,sans-Serif" font-size="14.00">Finish</text>
</g>
<!-- 2a0002a8&#45;8bbf&#45;4b1d&#45;ad28&#45;8c73fe1e6df5 -->
<g id="node8" class="node">
<title>2a0002a8&#45;8bbf&#45;4b1d&#45;ad28&#45;8c73fe1e6df5</title>
<polygon fill="white" stroke="black" points="1278,-36 878,-36 878,0 1278,0 1278,-36"/>
<text text-anchor="middle" x="1078" y="-14.3" font-family="Helvetica,sans-Serif" font-size="14.00">▶ Run GitHub Actions for `personalized_learning_ai.py`</text>
</g>
<!-- 9c6cdb54&#45;10ea&#45;42d7&#45;b9c7&#45;ca56bdf0a8c2&#45;&gt;2a0002a8&#45;8bbf&#45;4b1d&#45;ad28&#45;8c73fe1e6df5 -->
<g id="edge5" class="edge">
<title>9c6cdb54&#45;10ea&#45;42d7&#45;b9c7&#45;ca56bdf0a8c2&#45;&gt;2a0002a8&#45;8bbf&#45;4b1d&#45;ad28&#45;8c73fe1e6df5</title>
<path fill="none" stroke="black" stroke-dasharray="5,2" d="M1053.12,-72.72C1057.2,-63.9 1061.76,-54.05 1065.85,-45.23"/>
<polygon fill="black" stroke="black" points="1069.03,-46.69 1070.06,-36.15 1062.68,-43.75 1069.03,-46.69"/>
</g>
</g>
</svg>
