<?xml version="1.0" encoding="UTF-8" standalone="no"?>
<!DOCTYPE svg PUBLIC "-//W3C//DTD SVG 1.1//EN"
 "http://www.w3.org/Graphics/SVG/1.1/DTD/svg11.dtd">
<!-- Generated by graphviz version 2.43.0 (0)
 -->
<!-- Title: %3 Pages: 1 -->
<svg width="1134pt" height="238pt"
 viewBox="0.00 0.00 1134.00 237.74" xmlns="http://www.w3.org/2000/svg" xmlns:xlink="http://www.w3.org/1999/xlink">
<g id="graph0" class="graph" transform="scale(1 1) rotate(0) translate(36 201.74)">
<title>%3</title>
<polygon fill="dimgray" stroke="transparent" points="-36,36 -36,-201.74 1098,-201.74 1098,36 -36,36"/>
<text text-anchor="middle" x="531" y="-150.54" font-family="Helvetica,sans-Serif" font-size="14.00">Sweep&#39;s Plan &amp; Progress</text>
<!-- start -->
<g id="node1" class="node">
<title>start</title>
</g>
<!-- d60838d3&#45;a011&#45;499c&#45;9c1e&#45;7bd7899620c5 -->
<g id="node3" class="node">
<title>d60838d3&#45;a011&#45;499c&#45;9c1e&#45;7bd7899620c5</title>
<ellipse fill="#ee0000" stroke="black" cx="354.5" cy="-99.87" rx="301.87" ry="26.74"/>
<text text-anchor="middle" x="354.5" y="-103.67" font-family="Helvetica,sans-Serif" font-size="14.00">✗ Modify</text>
<text text-anchor="middle" x="354.5" y="-88.67" font-family="Helvetica,sans-Serif" font-size="14.00">env/lib/python3.10/site&#45;packages/pkg_resources/__init__.py</text>
</g>
<!-- start&#45;&gt;d60838d3&#45;a011&#45;499c&#45;9c1e&#45;7bd7899620c5 -->
<g id="edge4" class="edge">
<title>start&#45;&gt;d60838d3&#45;a011&#45;499c&#45;9c1e&#45;7bd7899620c5</title>
<path fill="none" stroke="black" d="M1.07,-99.87C4.16,-99.87 19.45,-99.87 42.09,-99.87"/>
<polygon fill="black" stroke="black" points="42.22,-103.37 52.22,-99.87 42.22,-96.37 42.22,-103.37"/>
<text text-anchor="middle" x="26.78" y="-106.67" font-family="Helvetica,sans-Serif" font-size="14.00">Start</text>
</g>
<!-- end -->
<g id="node2" class="node">
<title>end</title>
</g>
<!-- b3b8db10&#45;dc5c&#45;4ec3&#45;860d&#45;7f531fc83134 -->
<g id="node4" class="node">
<title>b3b8db10&#45;dc5c&#45;4ec3&#45;860d&#45;7f531fc83134</title>
<ellipse fill="white" stroke="black" cx="850.5" cy="-99.87" rx="147.57" ry="26.74"/>
<text text-anchor="middle" x="850.5" y="-103.67" font-family="Helvetica,sans-Serif" font-size="14.00">▶ Create</text>
<text text-anchor="middle" x="850.5" y="-88.67" font-family="Helvetica,sans-Serif" font-size="14.00">tests/test_pkg_resources.py</text>
</g>
<!-- d60838d3&#45;a011&#45;499c&#45;9c1e&#45;7bd7899620c5&#45;&gt;b3b8db10&#45;dc5c&#45;4ec3&#45;860d&#45;7f531fc83134 -->
<g id="edge2" class="edge">
<title>d60838d3&#45;a011&#45;499c&#45;9c1e&#45;7bd7899620c5&#45;&gt;b3b8db10&#45;dc5c&#45;4ec3&#45;860d&#45;7f531fc83134</title>
<path fill="none" stroke="black" d="M656.75,-99.87C668.67,-99.87 680.6,-99.87 692.52,-99.87"/>
<polygon fill="black" stroke="black" points="692.54,-103.37 702.54,-99.87 692.54,-96.37 692.54,-103.37"/>
</g>
<!-- e3da0b48&#45;3a52&#45;48b8&#45;baef&#45;998feb190670 -->
<g id="node5" class="node">
<title>e3da0b48&#45;3a52&#45;48b8&#45;baef&#45;998feb190670</title>
<polygon fill="#ee0000" stroke="black" points="642.5,-36 22.5,-36 22.5,0 642.5,0 642.5,-36"/>
<text text-anchor="middle" x="332.5" y="-14.3" font-family="Helvetica,sans-Serif" font-size="14.00">✗ Run GitHub Actions for `env/lib/python3.10/site&#45;packages/pkg_resources/__init__.py`</text>
</g>
<!-- d60838d3&#45;a011&#45;499c&#45;9c1e&#45;7bd7899620c5&#45;&gt;e3da0b48&#45;3a52&#45;48b8&#45;baef&#45;998feb190670 -->
<g id="edge1" class="edge">
<title>d60838d3&#45;a011&#45;499c&#45;9c1e&#45;7bd7899620c5&#45;&gt;e3da0b48&#45;3a52&#45;48b8&#45;baef&#45;998feb190670</title>
<path fill="none" stroke="black" stroke-dasharray="5,2" d="M347.3,-72.72C344.92,-64.08 342.27,-54.47 339.88,-45.79"/>
<polygon fill="black" stroke="black" points="343.25,-44.86 337.22,-36.15 336.5,-46.72 343.25,-44.86"/>
</g>
<!-- b3b8db10&#45;dc5c&#45;4ec3&#45;860d&#45;7f531fc83134&#45;&gt;end -->
<g id="edge5" class="edge">
<title>b3b8db10&#45;dc5c&#45;4ec3&#45;860d&#45;7f531fc83134&#45;&gt;end</title>
<path fill="none" stroke="black" d="M998.29,-99.87C1018.09,-99.87 1035.14,-99.87 1045.58,-99.87"/>
<polygon fill="black" stroke="black" points="1045.85,-103.37 1055.85,-99.87 1045.85,-96.37 1045.85,-103.37"/>
<text text-anchor="middle" x="1027.14" y="-106.67" font-family="Helvetica,sans-Serif" font-size="14.00">Finish</text>
</g>
<!-- f1e063fd&#45;178f&#45;42dc&#45;a0b1&#45;95c41fe4234a -->
<g id="node6" class="node">
<title>f1e063fd&#45;178f&#45;42dc&#45;a0b1&#45;95c41fe4234a</title>
<polygon fill="white" stroke="black" points="1062,-36 661,-36 661,0 1062,0 1062,-36"/>
<text text-anchor="middle" x="861.5" y="-14.3" font-family="Helvetica,sans-Serif" font-size="14.00">▶ Run GitHub Actions for `tests/test_pkg_resources.py`</text>
</g>
<!-- b3b8db10&#45;dc5c&#45;4ec3&#45;860d&#45;7f531fc83134&#45;&gt;f1e063fd&#45;178f&#45;42dc&#45;a0b1&#45;95c41fe4234a -->
<g id="edge3" class="edge">
<title>b3b8db10&#45;dc5c&#45;4ec3&#45;860d&#45;7f531fc83134&#45;&gt;f1e063fd&#45;178f&#45;42dc&#45;a0b1&#45;95c41fe4234a</title>
<path fill="none" stroke="black" stroke-dasharray="5,2" d="M854.1,-72.72C855.28,-64.18 856.59,-54.68 857.77,-46.08"/>
<polygon fill="black" stroke="black" points="861.24,-46.53 859.14,-36.15 854.31,-45.58 861.24,-46.53"/>
</g>
</g>
</svg>
