<?xml version="1.0" encoding="UTF-8" standalone="no"?>
<!DOCTYPE svg PUBLIC "-//W3C//DTD SVG 1.1//EN"
 "http://www.w3.org/Graphics/SVG/1.1/DTD/svg11.dtd">
<!-- Generated by graphviz version 2.43.0 (0)
 -->
<!-- Title: %3 Pages: 1 -->
<svg width="379pt" height="165pt"
 viewBox="0.00 0.00 379.00 164.74" xmlns="http://www.w3.org/2000/svg" xmlns:xlink="http://www.w3.org/1999/xlink">
<g id="graph0" class="graph" transform="scale(1 1) rotate(0) translate(36 128.74)">
<title>%3</title>
<polygon fill="dimgray" stroke="transparent" points="-36,36 -36,-128.74 343,-128.74 343,36 -36,36"/>
<text text-anchor="middle" x="153.5" y="-77.54" font-family="Helvetica,sans-Serif" font-size="14.00">Sweep&#39;s Plan &amp; Progress</text>
<!-- start -->
<g id="node1" class="node">
<title>start</title>
</g>
<!-- 49af707f&#45;d20f&#45;4313&#45;b09e&#45;66962632ae6e -->
<g id="node3" class="node">
<title>49af707f&#45;d20f&#45;4313&#45;b09e&#45;66962632ae6e</title>
<ellipse fill="#0ee832" stroke="black" cx="150.5" cy="-26.87" rx="98.08" ry="26.74"/>
<text text-anchor="middle" x="150.5" y="-30.67" font-family="Helvetica,sans-Serif" font-size="14.00">✓ Create</text>
<text text-anchor="middle" x="150.5" y="-15.67" font-family="Helvetica,sans-Serif" font-size="14.00">check_imports.py</text>
</g>
<!-- start&#45;&gt;49af707f&#45;d20f&#45;4313&#45;b09e&#45;66962632ae6e -->
<g id="edge1" class="edge">
<title>start&#45;&gt;49af707f&#45;d20f&#45;4313&#45;b09e&#45;66962632ae6e</title>
<path fill="none" stroke="black" d="M1.17,-26.87C4.62,-26.87 21.03,-26.87 41.8,-26.87"/>
<polygon fill="black" stroke="black" points="41.96,-30.37 51.96,-26.87 41.96,-23.37 41.96,-30.37"/>
<text text-anchor="middle" x="26.61" y="-33.67" font-family="Helvetica,sans-Serif" font-size="14.00">Start</text>
</g>
<!-- end -->
<g id="node2" class="node">
<title>end</title>
</g>
<!-- 49af707f&#45;d20f&#45;4313&#45;b09e&#45;66962632ae6e&#45;&gt;end -->
<g id="edge2" class="edge">
<title>49af707f&#45;d20f&#45;4313&#45;b09e&#45;66962632ae6e&#45;&gt;end</title>
<path fill="none" stroke="black" d="M248.85,-26.87C267.82,-26.87 285.06,-26.87 295.65,-26.87"/>
<polygon fill="black" stroke="black" points="295.82,-30.37 305.82,-26.87 295.82,-23.37 295.82,-30.37"/>
<text text-anchor="middle" x="277.39" y="-33.67" font-family="Helvetica,sans-Serif" font-size="14.00">Finish</text>
</g>
</g>
</svg>
