<?xml version="1.0" encoding="UTF-8" standalone="no"?>
<!DOCTYPE svg PUBLIC "-//W3C//DTD SVG 1.1//EN"
 "http://www.w3.org/Graphics/SVG/1.1/DTD/svg11.dtd">
<!-- Generated by graphviz version 2.43.0 (0)
 -->
<!-- Title: %3 Pages: 1 -->
<svg width="1045pt" height="238pt"
 viewBox="0.00 0.00 1044.50 237.74" xmlns="http://www.w3.org/2000/svg" xmlns:xlink="http://www.w3.org/1999/xlink">
<g id="graph0" class="graph" transform="scale(1 1) rotate(0) translate(36 201.74)">
<title>%3</title>
<polygon fill="dimgray" stroke="transparent" points="-36,36 -36,-201.74 1008.5,-201.74 1008.5,36 -36,36"/>
<text text-anchor="middle" x="486.25" y="-150.54" font-family="Helvetica,sans-Serif" font-size="14.00">Sweep&#39;s Plan &amp; Progress</text>
<!-- start -->
<g id="node1" class="node">
<title>start</title>
</g>
<!-- 8971a91c&#45;3c08&#45;4954&#45;a55c&#45;3b8cdead9017 -->
<g id="node3" class="node">
<title>8971a91c&#45;3c08&#45;4954&#45;a55c&#45;3b8cdead9017</title>
<ellipse fill="yellow" stroke="black" cx="273" cy="-99.87" rx="211.35" ry="26.74"/>
<text text-anchor="middle" x="273" y="-103.67" font-family="Helvetica,sans-Serif" font-size="14.00">⋯ Create</text>
<text text-anchor="middle" x="273" y="-88.67" font-family="Helvetica,sans-Serif" font-size="14.00">components/PerformanceOptimization.js</text>
</g>
<!-- start&#45;&gt;8971a91c&#45;3c08&#45;4954&#45;a55c&#45;3b8cdead9017 -->
<g id="edge4" class="edge">
<title>start&#45;&gt;8971a91c&#45;3c08&#45;4954&#45;a55c&#45;3b8cdead9017</title>
<path fill="none" stroke="black" d="M10.75,-99.87C14.26,-99.87 29.7,-99.87 51.47,-99.87"/>
<polygon fill="black" stroke="black" points="51.54,-103.37 61.54,-99.87 51.54,-96.37 51.54,-103.37"/>
<text text-anchor="middle" x="36.04" y="-106.67" font-family="Helvetica,sans-Serif" font-size="14.00">Start</text>
</g>
<!-- end -->
<g id="node2" class="node">
<title>end</title>
</g>
<!-- 245b8367&#45;e5e4&#45;4e71&#45;9a0b&#45;78bf8784c5d0 -->
<g id="node4" class="node">
<title>245b8367&#45;e5e4&#45;4e71&#45;9a0b&#45;78bf8784c5d0</title>
<ellipse fill="white" stroke="black" cx="724" cy="-99.87" rx="190.42" ry="26.74"/>
<text text-anchor="middle" x="724" y="-103.67" font-family="Helvetica,sans-Serif" font-size="14.00">▶ Modify</text>
<text text-anchor="middle" x="724" y="-88.67" font-family="Helvetica,sans-Serif" font-size="14.00">components/PerformanceTracking.js</text>
</g>
<!-- 8971a91c&#45;3c08&#45;4954&#45;a55c&#45;3b8cdead9017&#45;&gt;245b8367&#45;e5e4&#45;4e71&#45;9a0b&#45;78bf8784c5d0 -->
<g id="edge2" class="edge">
<title>8971a91c&#45;3c08&#45;4954&#45;a55c&#45;3b8cdead9017&#45;&gt;245b8367&#45;e5e4&#45;4e71&#45;9a0b&#45;78bf8784c5d0</title>
<path fill="none" stroke="black" d="M484.85,-99.87C497.62,-99.87 510.4,-99.87 523.18,-99.87"/>
<polygon fill="black" stroke="black" points="523.42,-103.37 533.42,-99.87 523.42,-96.37 523.42,-103.37"/>
</g>
<!-- 3d0563d8&#45;2276&#45;401b&#45;835c&#45;656a0a96bd71 -->
<g id="node5" class="node">
<title>3d0563d8&#45;2276&#45;401b&#45;835c&#45;656a0a96bd71</title>
<polygon fill="white" stroke="black" points="490,-36 0,-36 0,0 490,0 490,-36"/>
<text text-anchor="middle" x="245" y="-14.3" font-family="Helvetica,sans-Serif" font-size="14.00">▶ Run GitHub Actions for `components/PerformanceOptimization.js`</text>
</g>
<!-- 8971a91c&#45;3c08&#45;4954&#45;a55c&#45;3b8cdead9017&#45;&gt;3d0563d8&#45;2276&#45;401b&#45;835c&#45;656a0a96bd71 -->
<g id="edge1" class="edge">
<title>8971a91c&#45;3c08&#45;4954&#45;a55c&#45;3b8cdead9017&#45;&gt;3d0563d8&#45;2276&#45;401b&#45;835c&#45;656a0a96bd71</title>
<path fill="none" stroke="black" stroke-dasharray="5,2" d="M263.83,-72.72C260.81,-64.08 257.44,-54.47 254.39,-45.79"/>
<polygon fill="black" stroke="black" points="257.62,-44.43 251.01,-36.15 251.02,-46.74 257.62,-44.43"/>
</g>
<!-- 245b8367&#45;e5e4&#45;4e71&#45;9a0b&#45;78bf8784c5d0&#45;&gt;end -->
<g id="edge5" class="edge">
<title>245b8367&#45;e5e4&#45;4e71&#45;9a0b&#45;78bf8784c5d0&#45;&gt;end</title>
<path fill="none" stroke="black" d="M914.48,-99.87C934.29,-99.87 950.88,-99.87 961.07,-99.87"/>
<polygon fill="black" stroke="black" points="961.37,-103.37 971.37,-99.87 961.37,-96.37 961.37,-103.37"/>
<text text-anchor="middle" x="942.86" y="-106.67" font-family="Helvetica,sans-Serif" font-size="14.00">Finish</text>
</g>
<!-- 2bf57584&#45;335e&#45;4fca&#45;9754&#45;8c2a22ec3531 -->
<g id="node6" class="node">
<title>2bf57584&#45;335e&#45;4fca&#45;9754&#45;8c2a22ec3531</title>
<polygon fill="white" stroke="black" points="968,-36 508,-36 508,0 968,0 968,-36"/>
<text text-anchor="middle" x="738" y="-14.3" font-family="Helvetica,sans-Serif" font-size="14.00">▶ Run GitHub Actions for `components/PerformanceTracking.js`</text>
</g>
<!-- 245b8367&#45;e5e4&#45;4e71&#45;9a0b&#45;78bf8784c5d0&#45;&gt;2bf57584&#45;335e&#45;4fca&#45;9754&#45;8c2a22ec3531 -->
<g id="edge3" class="edge">
<title>245b8367&#45;e5e4&#45;4e71&#45;9a0b&#45;78bf8784c5d0&#45;&gt;2bf57584&#45;335e&#45;4fca&#45;9754&#45;8c2a22ec3531</title>
<path fill="none" stroke="black" stroke-dasharray="5,2" d="M728.58,-72.72C730.08,-64.18 731.75,-54.68 733.25,-46.08"/>
<polygon fill="black" stroke="black" points="736.72,-46.6 734.99,-36.15 729.82,-45.39 736.72,-46.6"/>
</g>
</g>
</svg>
