<?xml version="1.0" encoding="UTF-8" standalone="no"?>
<!DOCTYPE svg PUBLIC "-//W3C//DTD SVG 1.1//EN"
 "http://www.w3.org/Graphics/SVG/1.1/DTD/svg11.dtd">
<!-- Generated by graphviz version 2.43.0 (0)
 -->
<!-- Title: %3 Pages: 1 -->
<svg width="1005pt" height="238pt"
 viewBox="0.00 0.00 1005.00 237.74" xmlns="http://www.w3.org/2000/svg" xmlns:xlink="http://www.w3.org/1999/xlink">
<g id="graph0" class="graph" transform="scale(1 1) rotate(0) translate(36 201.74)">
<title>%3</title>
<polygon fill="dimgray" stroke="transparent" points="-36,36 -36,-201.74 969,-201.74 969,36 -36,36"/>
<text text-anchor="middle" x="466.5" y="-150.54" font-family="Helvetica,sans-Serif" font-size="14.00">Sweep&#39;s Plan &amp; Progress</text>
<!-- start -->
<g id="node1" class="node">
<title>start</title>
</g>
<!-- 857e1ed9&#45;9056&#45;4b2e&#45;8769&#45;e1888b6c0e1b -->
<g id="node3" class="node">
<title>857e1ed9&#45;9056&#45;4b2e&#45;8769&#45;e1888b6c0e1b</title>
<ellipse fill="yellow" stroke="black" cx="214.5" cy="-99.87" rx="75.82" ry="26.74"/>
<text text-anchor="middle" x="214.5" y="-103.67" font-family="Helvetica,sans-Serif" font-size="14.00">⋯ Create</text>
<text text-anchor="middle" x="214.5" y="-88.67" font-family="Helvetica,sans-Serif" font-size="14.00">TESTLOG.md</text>
</g>
<!-- start&#45;&gt;857e1ed9&#45;9056&#45;4b2e&#45;8769&#45;e1888b6c0e1b -->
<g id="edge6" class="edge">
<title>start&#45;&gt;857e1ed9&#45;9056&#45;4b2e&#45;8769&#45;e1888b6c0e1b</title>
<path fill="none" stroke="black" d="M87.32,-99.87C91.16,-99.87 108.09,-99.87 128.42,-99.87"/>
<polygon fill="black" stroke="black" points="128.62,-103.37 138.62,-99.87 128.62,-96.37 128.62,-103.37"/>
<text text-anchor="middle" x="112.92" y="-106.67" font-family="Helvetica,sans-Serif" font-size="14.00">Start</text>
</g>
<!-- end -->
<g id="node2" class="node">
<title>end</title>
</g>
<!-- 6cbff1c7&#45;5570&#45;4062&#45;89bd&#45;c444c17f1567 -->
<g id="node4" class="node">
<title>6cbff1c7&#45;5570&#45;4062&#45;89bd&#45;c444c17f1567</title>
<ellipse fill="white" stroke="black" cx="464.5" cy="-99.87" rx="73.58" ry="26.74"/>
<text text-anchor="middle" x="464.5" y="-103.67" font-family="Helvetica,sans-Serif" font-size="14.00">▶ Modify</text>
<text text-anchor="middle" x="464.5" y="-88.67" font-family="Helvetica,sans-Serif" font-size="14.00">README.md</text>
</g>
<!-- 857e1ed9&#45;9056&#45;4b2e&#45;8769&#45;e1888b6c0e1b&#45;&gt;6cbff1c7&#45;5570&#45;4062&#45;89bd&#45;c444c17f1567 -->
<g id="edge2" class="edge">
<title>857e1ed9&#45;9056&#45;4b2e&#45;8769&#45;e1888b6c0e1b&#45;&gt;6cbff1c7&#45;5570&#45;4062&#45;89bd&#45;c444c17f1567</title>
<path fill="none" stroke="black" d="M290.18,-99.87C320.36,-99.87 350.54,-99.87 380.73,-99.87"/>
<polygon fill="black" stroke="black" points="380.96,-103.37 390.96,-99.87 380.96,-96.37 380.96,-103.37"/>
</g>
<!-- 05696cde&#45;868a&#45;4043&#45;95d8&#45;2638539907f3 -->
<g id="node6" class="node">
<title>05696cde&#45;868a&#45;4043&#45;95d8&#45;2638539907f3</title>
<polygon fill="white" stroke="black" points="299,-36 0,-36 0,0 299,0 299,-36"/>
<text text-anchor="middle" x="149.5" y="-14.3" font-family="Helvetica,sans-Serif" font-size="14.00">▶ Run GitHub Actions for `TESTLOG.md`</text>
</g>
<!-- 857e1ed9&#45;9056&#45;4b2e&#45;8769&#45;e1888b6c0e1b&#45;&gt;05696cde&#45;868a&#45;4043&#45;95d8&#45;2638539907f3 -->
<g id="edge1" class="edge">
<title>857e1ed9&#45;9056&#45;4b2e&#45;8769&#45;e1888b6c0e1b&#45;&gt;05696cde&#45;868a&#45;4043&#45;95d8&#45;2638539907f3</title>
<path fill="none" stroke="black" stroke-dasharray="5,2" d="M193.93,-73.6C186.22,-64.13 177.47,-53.37 169.79,-43.93"/>
<polygon fill="black" stroke="black" points="172.39,-41.58 163.36,-36.04 166.96,-46 172.39,-41.58"/>
</g>
<!-- 32ba8c3d&#45;0f31&#45;47d3&#45;9dd2&#45;0cf5f94a9792 -->
<g id="node5" class="node">
<title>32ba8c3d&#45;0f31&#45;47d3&#45;9dd2&#45;0cf5f94a9792</title>
<ellipse fill="white" stroke="black" cx="717.5" cy="-99.87" rx="79.39" ry="26.74"/>
<text text-anchor="middle" x="717.5" y="-103.67" font-family="Helvetica,sans-Serif" font-size="14.00">▶ Modify</text>
<text text-anchor="middle" x="717.5" y="-88.67" font-family="Helvetica,sans-Serif" font-size="14.00">ROADMAP.md</text>
</g>
<!-- 6cbff1c7&#45;5570&#45;4062&#45;89bd&#45;c444c17f1567&#45;&gt;32ba8c3d&#45;0f31&#45;47d3&#45;9dd2&#45;0cf5f94a9792 -->
<g id="edge4" class="edge">
<title>6cbff1c7&#45;5570&#45;4062&#45;89bd&#45;c444c17f1567&#45;&gt;32ba8c3d&#45;0f31&#45;47d3&#45;9dd2&#45;0cf5f94a9792</title>
<path fill="none" stroke="black" d="M538.13,-99.87C568.03,-99.87 597.93,-99.87 627.83,-99.87"/>
<polygon fill="black" stroke="black" points="627.97,-103.37 637.97,-99.87 627.97,-96.37 627.97,-103.37"/>
</g>
<!-- 68266699&#45;e7b2&#45;450a&#45;b3c6&#45;8e4ac0326015 -->
<g id="node7" class="node">
<title>68266699&#45;e7b2&#45;450a&#45;b3c6&#45;8e4ac0326015</title>
<polygon fill="white" stroke="black" points="612,-36 317,-36 317,0 612,0 612,-36"/>
<text text-anchor="middle" x="464.5" y="-14.3" font-family="Helvetica,sans-Serif" font-size="14.00">▶ Run GitHub Actions for `README.md`</text>
</g>
<!-- 6cbff1c7&#45;5570&#45;4062&#45;89bd&#45;c444c17f1567&#45;&gt;68266699&#45;e7b2&#45;450a&#45;b3c6&#45;8e4ac0326015 -->
<g id="edge3" class="edge">
<title>6cbff1c7&#45;5570&#45;4062&#45;89bd&#45;c444c17f1567&#45;&gt;68266699&#45;e7b2&#45;450a&#45;b3c6&#45;8e4ac0326015</title>
<path fill="none" stroke="black" stroke-dasharray="5,2" d="M464.5,-72.72C464.5,-64.27 464.5,-54.89 464.5,-46.36"/>
<polygon fill="black" stroke="black" points="468,-46.15 464.5,-36.15 461,-46.15 468,-46.15"/>
</g>
<!-- 32ba8c3d&#45;0f31&#45;47d3&#45;9dd2&#45;0cf5f94a9792&#45;&gt;end -->
<g id="edge7" class="edge">
<title>32ba8c3d&#45;0f31&#45;47d3&#45;9dd2&#45;0cf5f94a9792&#45;&gt;end</title>
<path fill="none" stroke="black" d="M796.8,-99.87C815.46,-99.87 833.02,-99.87 843.76,-99.87"/>
<polygon fill="black" stroke="black" points="843.8,-103.37 853.8,-99.87 843.8,-96.37 843.8,-103.37"/>
<text text-anchor="middle" x="825.35" y="-106.67" font-family="Helvetica,sans-Serif" font-size="14.00">Finish</text>
</g>
<!-- 38b90af3&#45;d447&#45;41c2&#45;8d22&#45;a915c88ce6fd -->
<g id="node8" class="node">
<title>38b90af3&#45;d447&#45;41c2&#45;8d22&#45;a915c88ce6fd</title>
<polygon fill="white" stroke="black" points="933,-36 630,-36 630,0 933,0 933,-36"/>
<text text-anchor="middle" x="781.5" y="-14.3" font-family="Helvetica,sans-Serif" font-size="14.00">▶ Run GitHub Actions for `ROADMAP.md`</text>
</g>
<!-- 32ba8c3d&#45;0f31&#45;47d3&#45;9dd2&#45;0cf5f94a9792&#45;&gt;38b90af3&#45;d447&#45;41c2&#45;8d22&#45;a915c88ce6fd -->
<g id="edge5" class="edge">
<title>32ba8c3d&#45;0f31&#45;47d3&#45;9dd2&#45;0cf5f94a9792&#45;&gt;38b90af3&#45;d447&#45;41c2&#45;8d22&#45;a915c88ce6fd</title>
<path fill="none" stroke="black" stroke-dasharray="5,2" d="M737.75,-73.6C745.34,-64.13 753.96,-53.37 761.52,-43.93"/>
<polygon fill="black" stroke="black" points="764.33,-46.03 767.85,-36.04 758.86,-41.65 764.33,-46.03"/>
</g>
</g>
</svg>
