<?xml version="1.0" encoding="UTF-8" standalone="no"?>
<!DOCTYPE svg PUBLIC "-//W3C//DTD SVG 1.1//EN"
 "http://www.w3.org/Graphics/SVG/1.1/DTD/svg11.dtd">
<!-- Generated by graphviz version 2.43.0 (0)
 -->
<!-- Title: %3 Pages: 1 -->
<svg width="1523pt" height="165pt"
 viewBox="0.00 0.00 1523.00 164.74" xmlns="http://www.w3.org/2000/svg" xmlns:xlink="http://www.w3.org/1999/xlink">
<g id="graph0" class="graph" transform="scale(1 1) rotate(0) translate(36 128.74)">
<title>%3</title>
<polygon fill="dimgray" stroke="transparent" points="-36,36 -36,-128.74 1487,-128.74 1487,36 -36,36"/>
<text text-anchor="middle" x="725.5" y="-77.54" font-family="Helvetica,sans-Serif" font-size="14.00">Sweep&#39;s Plan &amp; Progress</text>
<!-- start -->
<g id="node1" class="node">
<title>start</title>
</g>
<!-- 626bc7ac&#45;b3c1&#45;4c18&#45;8ea0&#45;eaad00858650 -->
<g id="node3" class="node">
<title>626bc7ac&#45;b3c1&#45;4c18&#45;8ea0&#45;eaad00858650</title>
<ellipse fill="#0ee832" stroke="black" cx="157.5" cy="-26.87" rx="105.22" ry="26.74"/>
<text text-anchor="middle" x="157.5" y="-30.67" font-family="Helvetica,sans-Serif" font-size="14.00">✓ Modify</text>
<text text-anchor="middle" x="157.5" y="-15.67" font-family="Helvetica,sans-Serif" font-size="14.00">Documentation.md</text>
</g>
<!-- start&#45;&gt;626bc7ac&#45;b3c1&#45;4c18&#45;8ea0&#45;eaad00858650 -->
<g id="edge7" class="edge">
<title>start&#45;&gt;626bc7ac&#45;b3c1&#45;4c18&#45;8ea0&#45;eaad00858650</title>
<path fill="none" stroke="black" d="M1.2,-26.87C4.69,-26.87 20.91,-26.87 41.67,-26.87"/>
<polygon fill="black" stroke="black" points="41.84,-30.37 51.84,-26.87 41.84,-23.37 41.84,-30.37"/>
<text text-anchor="middle" x="26.57" y="-33.67" font-family="Helvetica,sans-Serif" font-size="14.00">Start</text>
</g>
<!-- end -->
<g id="node2" class="node">
<title>end</title>
</g>
<!-- c9a8e424&#45;cc00&#45;4c47&#45;a307&#45;a0526063336f -->
<g id="node4" class="node">
<title>c9a8e424&#45;cc00&#45;4c47&#45;a307&#45;a0526063336f</title>
<ellipse fill="#0ee832" stroke="black" cx="375.5" cy="-26.87" rx="77.15" ry="26.74"/>
<text text-anchor="middle" x="375.5" y="-30.67" font-family="Helvetica,sans-Serif" font-size="14.00">✓ Modify</text>
<text text-anchor="middle" x="375.5" y="-15.67" font-family="Helvetica,sans-Serif" font-size="14.00">ai_module.py</text>
</g>
<!-- 626bc7ac&#45;b3c1&#45;4c18&#45;8ea0&#45;eaad00858650&#45;&gt;c9a8e424&#45;cc00&#45;4c47&#45;a307&#45;a0526063336f -->
<g id="edge1" class="edge">
<title>626bc7ac&#45;b3c1&#45;4c18&#45;8ea0&#45;eaad00858650&#45;&gt;c9a8e424&#45;cc00&#45;4c47&#45;a307&#45;a0526063336f</title>
<path fill="none" stroke="black" d="M263.09,-26.87C271.42,-26.87 279.74,-26.87 288.07,-26.87"/>
<polygon fill="black" stroke="black" points="288.22,-30.37 298.22,-26.87 288.22,-23.37 288.22,-30.37"/>
</g>
<!-- 155ae0d1&#45;8f1b&#45;4c02&#45;aa99&#45;e80c6ff88b5b -->
<g id="node5" class="node">
<title>155ae0d1&#45;8f1b&#45;4c02&#45;aa99&#45;e80c6ff88b5b</title>
<ellipse fill="yellow" stroke="black" cx="545.5" cy="-26.87" rx="57.05" ry="26.74"/>
<text text-anchor="middle" x="545.5" y="-30.67" font-family="Helvetica,sans-Serif" font-size="14.00">⋯ Modify</text>
<text text-anchor="middle" x="545.5" y="-15.67" font-family="Helvetica,sans-Serif" font-size="14.00">auth.py</text>
</g>
<!-- c9a8e424&#45;cc00&#45;4c47&#45;a307&#45;a0526063336f&#45;&gt;155ae0d1&#45;8f1b&#45;4c02&#45;aa99&#45;e80c6ff88b5b -->
<g id="edge2" class="edge">
<title>c9a8e424&#45;cc00&#45;4c47&#45;a307&#45;a0526063336f&#45;&gt;155ae0d1&#45;8f1b&#45;4c02&#45;aa99&#45;e80c6ff88b5b</title>
<path fill="none" stroke="black" d="M452.86,-26.87C461.18,-26.87 469.5,-26.87 477.82,-26.87"/>
<polygon fill="black" stroke="black" points="477.96,-30.37 487.96,-26.87 477.96,-23.37 477.96,-30.37"/>
</g>
<!-- 21184f73&#45;36c9&#45;4f22&#45;86f3&#45;aac08ef9f888 -->
<g id="node6" class="node">
<title>21184f73&#45;36c9&#45;4f22&#45;86f3&#45;aac08ef9f888</title>
<ellipse fill="white" stroke="black" cx="718.5" cy="-26.87" rx="79.81" ry="26.74"/>
<text text-anchor="middle" x="718.5" y="-30.67" font-family="Helvetica,sans-Serif" font-size="14.00">▶ Modify</text>
<text text-anchor="middle" x="718.5" y="-15.67" font-family="Helvetica,sans-Serif" font-size="14.00">encryption.py</text>
</g>
<!-- 155ae0d1&#45;8f1b&#45;4c02&#45;aa99&#45;e80c6ff88b5b&#45;&gt;21184f73&#45;36c9&#45;4f22&#45;86f3&#45;aac08ef9f888 -->
<g id="edge3" class="edge">
<title>155ae0d1&#45;8f1b&#45;4c02&#45;aa99&#45;e80c6ff88b5b&#45;&gt;21184f73&#45;36c9&#45;4f22&#45;86f3&#45;aac08ef9f888</title>
<path fill="none" stroke="black" d="M602.94,-26.87C611.29,-26.87 619.63,-26.87 627.97,-26.87"/>
<polygon fill="black" stroke="black" points="628.15,-30.37 638.15,-26.87 628.15,-23.37 628.15,-30.37"/>
</g>
<!-- 96c5a179&#45;d027&#45;4a1f&#45;a0d3&#45;facc7aa9c08e -->
<g id="node7" class="node">
<title>96c5a179&#45;d027&#45;4a1f&#45;a0d3&#45;facc7aa9c08e</title>
<ellipse fill="white" stroke="black" cx="896.5" cy="-26.87" rx="62.87" ry="26.74"/>
<text text-anchor="middle" x="896.5" y="-30.67" font-family="Helvetica,sans-Serif" font-size="14.00">▶ Modify</text>
<text text-anchor="middle" x="896.5" y="-15.67" font-family="Helvetica,sans-Serif" font-size="14.00">models.py</text>
</g>
<!-- 21184f73&#45;36c9&#45;4f22&#45;86f3&#45;aac08ef9f888&#45;&gt;96c5a179&#45;d027&#45;4a1f&#45;a0d3&#45;facc7aa9c08e -->
<g id="edge4" class="edge">
<title>21184f73&#45;36c9&#45;4f22&#45;86f3&#45;aac08ef9f888&#45;&gt;96c5a179&#45;d027&#45;4a1f&#45;a0d3&#45;facc7aa9c08e</title>
<path fill="none" stroke="black" d="M798.46,-26.87C806.72,-26.87 814.98,-26.87 823.24,-26.87"/>
<polygon fill="black" stroke="black" points="823.31,-30.37 833.31,-26.87 823.31,-23.37 823.31,-30.37"/>
</g>
<!-- 1d42828e&#45;7e00&#45;4303&#45;9021&#45;ca3221802f49 -->
<g id="node8" class="node">
<title>1d42828e&#45;7e00&#45;4303&#45;9021&#45;ca3221802f49</title>
<ellipse fill="white" stroke="black" cx="1086.5" cy="-26.87" rx="91.85" ry="26.74"/>
<text text-anchor="middle" x="1086.5" y="-30.67" font-family="Helvetica,sans-Serif" font-size="14.00">▶ Modify</text>
<text text-anchor="middle" x="1086.5" y="-15.67" font-family="Helvetica,sans-Serif" font-size="14.00">test_backend.py</text>
</g>
<!-- 96c5a179&#45;d027&#45;4a1f&#45;a0d3&#45;facc7aa9c08e&#45;&gt;1d42828e&#45;7e00&#45;4303&#45;9021&#45;ca3221802f49 -->
<g id="edge5" class="edge">
<title>96c5a179&#45;d027&#45;4a1f&#45;a0d3&#45;facc7aa9c08e&#45;&gt;1d42828e&#45;7e00&#45;4303&#45;9021&#45;ca3221802f49</title>
<path fill="none" stroke="black" d="M959.59,-26.87C967.81,-26.87 976.03,-26.87 984.26,-26.87"/>
<polygon fill="black" stroke="black" points="984.29,-30.37 994.29,-26.87 984.29,-23.37 984.29,-30.37"/>
</g>
<!-- 84f285d5&#45;dde2&#45;410e&#45;900f&#45;235f4fca43af -->
<g id="node9" class="node">
<title>84f285d5&#45;dde2&#45;410e&#45;900f&#45;235f4fca43af</title>
<ellipse fill="white" stroke="black" cx="1303.5" cy="-26.87" rx="89.19" ry="26.74"/>
<text text-anchor="middle" x="1303.5" y="-30.67" font-family="Helvetica,sans-Serif" font-size="14.00">▶ Modify</text>
<text text-anchor="middle" x="1303.5" y="-15.67" font-family="Helvetica,sans-Serif" font-size="14.00">test_frontend.ts</text>
</g>
<!-- 1d42828e&#45;7e00&#45;4303&#45;9021&#45;ca3221802f49&#45;&gt;84f285d5&#45;dde2&#45;410e&#45;900f&#45;235f4fca43af -->
<g id="edge6" class="edge">
<title>1d42828e&#45;7e00&#45;4303&#45;9021&#45;ca3221802f49&#45;&gt;84f285d5&#45;dde2&#45;410e&#45;900f&#45;235f4fca43af</title>
<path fill="none" stroke="black" d="M1178.47,-26.87C1187.01,-26.87 1195.55,-26.87 1204.1,-26.87"/>
<polygon fill="black" stroke="black" points="1204.12,-30.37 1214.12,-26.87 1204.12,-23.37 1204.12,-30.37"/>
</g>
<!-- 84f285d5&#45;dde2&#45;410e&#45;900f&#45;235f4fca43af&#45;&gt;end -->
<g id="edge8" class="edge">
<title>84f285d5&#45;dde2&#45;410e&#45;900f&#45;235f4fca43af&#45;&gt;end</title>
<path fill="none" stroke="black" d="M1392.82,-26.87C1411.57,-26.87 1428.87,-26.87 1439.53,-26.87"/>
<polygon fill="black" stroke="black" points="1439.81,-30.37 1449.81,-26.87 1439.81,-23.37 1439.81,-30.37"/>
<text text-anchor="middle" x="1421.3" y="-33.67" font-family="Helvetica,sans-Serif" font-size="14.00">Finish</text>
</g>
</g>
</svg>
