<?xml version="1.0" encoding="UTF-8" standalone="no"?>
<!DOCTYPE svg PUBLIC "-//W3C//DTD SVG 1.1//EN"
 "http://www.w3.org/Graphics/SVG/1.1/DTD/svg11.dtd">
<!-- Generated by graphviz version 2.43.0 (0)
 -->
<!-- Title: %3 Pages: 1 -->
<svg width="1657pt" height="238pt"
 viewBox="0.00 0.00 1657.00 237.74" xmlns="http://www.w3.org/2000/svg" xmlns:xlink="http://www.w3.org/1999/xlink">
<g id="graph0" class="graph" transform="scale(1 1) rotate(0) translate(36 201.74)">
<title>%3</title>
<polygon fill="dimgray" stroke="transparent" points="-36,36 -36,-201.74 1621,-201.74 1621,36 -36,36"/>
<text text-anchor="middle" x="792.5" y="-150.54" font-family="Helvetica,sans-Serif" font-size="14.00">Sweep&#39;s Plan &amp; Progress</text>
<!-- start -->
<g id="node1" class="node">
<title>start</title>
</g>
<!-- 07ac6628&#45;de9d&#45;4e0a&#45;a710&#45;2732d06b6ba7 -->
<g id="node3" class="node">
<title>07ac6628&#45;de9d&#45;4e0a&#45;a710&#45;2732d06b6ba7</title>
<ellipse fill="yellow" stroke="black" cx="402.5" cy="-99.87" rx="350.04" ry="26.74"/>
<text text-anchor="middle" x="402.5" y="-103.67" font-family="Helvetica,sans-Serif" font-size="14.00">⋯ Modify</text>
<text text-anchor="middle" x="402.5" y="-88.67" font-family="Helvetica,sans-Serif" font-size="14.00">env/lib/python3.10/site&#45;packages/pip/_internal/operations/prepare.py</text>
</g>
<!-- start&#45;&gt;07ac6628&#45;de9d&#45;4e0a&#45;a710&#45;2732d06b6ba7 -->
<g id="edge4" class="edge">
<title>start&#45;&gt;07ac6628&#45;de9d&#45;4e0a&#45;a710&#45;2732d06b6ba7</title>
<path fill="none" stroke="black" d="M1.15,-99.87C4.39,-99.87 19.51,-99.87 42.12,-99.87"/>
<polygon fill="black" stroke="black" points="42.25,-103.37 52.25,-99.87 42.25,-96.37 42.25,-103.37"/>
<text text-anchor="middle" x="26.74" y="-106.67" font-family="Helvetica,sans-Serif" font-size="14.00">Start</text>
</g>
<!-- end -->
<g id="node2" class="node">
<title>end</title>
</g>
<!-- ae7037d1&#45;a119&#45;4b16&#45;a68e&#45;34b95d9d9416 -->
<g id="node4" class="node">
<title>ae7037d1&#45;a119&#45;4b16&#45;a68e&#45;34b95d9d9416</title>
<ellipse fill="white" stroke="black" cx="1157.5" cy="-99.87" rx="369.22" ry="26.74"/>
<text text-anchor="middle" x="1157.5" y="-103.67" font-family="Helvetica,sans-Serif" font-size="14.00">▶ Create</text>
<text text-anchor="middle" x="1157.5" y="-88.67" font-family="Helvetica,sans-Serif" font-size="14.00">env/lib64/python3.10/site&#45;packages/setuptools/command/easy_install.py</text>
</g>
<!-- 07ac6628&#45;de9d&#45;4e0a&#45;a710&#45;2732d06b6ba7&#45;&gt;ae7037d1&#45;a119&#45;4b16&#45;a68e&#45;34b95d9d9416 -->
<g id="edge2" class="edge">
<title>07ac6628&#45;de9d&#45;4e0a&#45;a710&#45;2732d06b6ba7&#45;&gt;ae7037d1&#45;a119&#45;4b16&#45;a68e&#45;34b95d9d9416</title>
<path fill="none" stroke="black" d="M752.72,-99.87C761.24,-99.87 769.77,-99.87 778.29,-99.87"/>
<polygon fill="black" stroke="black" points="778.3,-103.37 788.3,-99.87 778.3,-96.37 778.3,-103.37"/>
</g>
<!-- 08eb7f76&#45;0586&#45;4d03&#45;a7cf&#45;8726719232df -->
<g id="node5" class="node">
<title>08eb7f76&#45;0586&#45;4d03&#45;a7cf&#45;8726719232df</title>
<polygon fill="white" stroke="black" points="745.5,-36 59.5,-36 59.5,0 745.5,0 745.5,-36"/>
<text text-anchor="middle" x="402.5" y="-14.3" font-family="Helvetica,sans-Serif" font-size="14.00">▶ Run GitHub Actions for `env/lib/python3.10/site&#45;packages/pip/_internal/operations/prepare.py`</text>
</g>
<!-- 07ac6628&#45;de9d&#45;4e0a&#45;a710&#45;2732d06b6ba7&#45;&gt;08eb7f76&#45;0586&#45;4d03&#45;a7cf&#45;8726719232df -->
<g id="edge1" class="edge">
<title>07ac6628&#45;de9d&#45;4e0a&#45;a710&#45;2732d06b6ba7&#45;&gt;08eb7f76&#45;0586&#45;4d03&#45;a7cf&#45;8726719232df</title>
<path fill="none" stroke="black" stroke-dasharray="5,2" d="M402.5,-72.72C402.5,-64.27 402.5,-54.89 402.5,-46.36"/>
<polygon fill="black" stroke="black" points="406,-46.15 402.5,-36.15 399,-46.15 406,-46.15"/>
</g>
<!-- ae7037d1&#45;a119&#45;4b16&#45;a68e&#45;34b95d9d9416&#45;&gt;end -->
<g id="edge5" class="edge">
<title>ae7037d1&#45;a119&#45;4b16&#45;a68e&#45;34b95d9d9416&#45;&gt;end</title>
<path fill="none" stroke="black" d="M1526.91,-99.87C1547.43,-99.87 1563.72,-99.87 1573.66,-99.87"/>
<polygon fill="black" stroke="black" points="1573.91,-103.37 1583.91,-99.87 1573.91,-96.37 1573.91,-103.37"/>
<text text-anchor="middle" x="1555.3" y="-106.67" font-family="Helvetica,sans-Serif" font-size="14.00">Finish</text>
</g>
<!-- 510eb638&#45;fae6&#45;46db&#45;b428&#45;9dfe870b4ced -->
<g id="node6" class="node">
<title>510eb638&#45;fae6&#45;46db&#45;b428&#45;9dfe870b4ced</title>
<polygon fill="white" stroke="black" points="1514,-36 801,-36 801,0 1514,0 1514,-36"/>
<text text-anchor="middle" x="1157.5" y="-14.3" font-family="Helvetica,sans-Serif" font-size="14.00">▶ Run GitHub Actions for `env/lib64/python3.10/site&#45;packages/setuptools/command/easy_install.py`</text>
</g>
<!-- ae7037d1&#45;a119&#45;4b16&#45;a68e&#45;34b95d9d9416&#45;&gt;510eb638&#45;fae6&#45;46db&#45;b428&#45;9dfe870b4ced -->
<g id="edge3" class="edge">
<title>ae7037d1&#45;a119&#45;4b16&#45;a68e&#45;34b95d9d9416&#45;&gt;510eb638&#45;fae6&#45;46db&#45;b428&#45;9dfe870b4ced</title>
<path fill="none" stroke="black" stroke-dasharray="5,2" d="M1157.5,-72.72C1157.5,-64.27 1157.5,-54.89 1157.5,-46.36"/>
<polygon fill="black" stroke="black" points="1161,-46.15 1157.5,-36.15 1154,-46.15 1161,-46.15"/>
</g>
</g>
</svg>
