<?xml version="1.0" encoding="UTF-8" standalone="no"?>
<!DOCTYPE svg PUBLIC "-//W3C//DTD SVG 1.1//EN"
 "http://www.w3.org/Graphics/SVG/1.1/DTD/svg11.dtd">
<!-- Generated by graphviz version 2.43.0 (0)
 -->
<!-- Title: %3 Pages: 1 -->
<svg width="2740pt" height="238pt"
 viewBox="0.00 0.00 2740.00 237.74" xmlns="http://www.w3.org/2000/svg" xmlns:xlink="http://www.w3.org/1999/xlink">
<g id="graph0" class="graph" transform="scale(1 1) rotate(0) translate(36 201.74)">
<title>%3</title>
<polygon fill="dimgray" stroke="transparent" points="-36,36 -36,-201.74 2704,-201.74 2704,36 -36,36"/>
<text text-anchor="middle" x="1334" y="-150.54" font-family="Helvetica,sans-Serif" font-size="14.00">Sweep&#39;s Plan &amp; Progress</text>
<!-- start -->
<g id="node1" class="node">
<title>start</title>
</g>
<!-- 056feae3&#45;e30b&#45;44d1&#45;a798&#45;f8d1ca09e073 -->
<g id="node3" class="node">
<title>056feae3&#45;e30b&#45;44d1&#45;a798&#45;f8d1ca09e073</title>
<ellipse fill="#0ee832" stroke="black" cx="365.5" cy="-99.87" rx="313.5" ry="26.74"/>
<text text-anchor="middle" x="365.5" y="-103.67" font-family="Helvetica,sans-Serif" font-size="14.00">✓ Modify</text>
<text text-anchor="middle" x="365.5" y="-88.67" font-family="Helvetica,sans-Serif" font-size="14.00">env/lib/python3.10/site&#45;packages/pip/_vendor/rich/console.py</text>
</g>
<!-- start&#45;&gt;056feae3&#45;e30b&#45;44d1&#45;a798&#45;f8d1ca09e073 -->
<g id="edge8" class="edge">
<title>start&#45;&gt;056feae3&#45;e30b&#45;44d1&#45;a798&#45;f8d1ca09e073</title>
<path fill="none" stroke="black" d="M1.09,-99.87C4.2,-99.87 19.36,-99.87 41.86,-99.87"/>
<polygon fill="black" stroke="black" points="41.93,-103.37 51.93,-99.87 41.93,-96.37 41.93,-103.37"/>
<text text-anchor="middle" x="26.63" y="-106.67" font-family="Helvetica,sans-Serif" font-size="14.00">Start</text>
</g>
<!-- end -->
<g id="node2" class="node">
<title>end</title>
</g>
<!-- 3cc07f03&#45;6bc6&#45;4d74&#45;9612&#45;5aee43cbacfb -->
<g id="node4" class="node">
<title>3cc07f03&#45;6bc6&#45;4d74&#45;9612&#45;5aee43cbacfb</title>
<ellipse fill="#ee0000" stroke="black" cx="1004.5" cy="-99.87" rx="289.83" ry="26.74"/>
<text text-anchor="middle" x="1004.5" y="-103.67" font-family="Helvetica,sans-Serif" font-size="14.00">✗ Modify</text>
<text text-anchor="middle" x="1004.5" y="-88.67" font-family="Helvetica,sans-Serif" font-size="14.00">env/lib/python3.10/site&#45;packages/setuptools/depends.py</text>
</g>
<!-- 056feae3&#45;e30b&#45;44d1&#45;a798&#45;f8d1ca09e073&#45;&gt;3cc07f03&#45;6bc6&#45;4d74&#45;9612&#45;5aee43cbacfb -->
<g id="edge2" class="edge">
<title>056feae3&#45;e30b&#45;44d1&#45;a798&#45;f8d1ca09e073&#45;&gt;3cc07f03&#45;6bc6&#45;4d74&#45;9612&#45;5aee43cbacfb</title>
<path fill="none" stroke="black" d="M678.76,-99.87C687.3,-99.87 695.83,-99.87 704.37,-99.87"/>
<polygon fill="black" stroke="black" points="704.39,-103.37 714.39,-99.87 704.39,-96.37 704.39,-103.37"/>
</g>
<!-- 9fbd69f0&#45;d6c3&#45;4f2e&#45;9867&#45;5093bd3359b3 -->
<g id="node7" class="node">
<title>9fbd69f0&#45;d6c3&#45;4f2e&#45;9867&#45;5093bd3359b3</title>
<polygon fill="#0ee832" stroke="black" points="683.5,-36 47.5,-36 47.5,0 683.5,0 683.5,-36"/>
<text text-anchor="middle" x="365.5" y="-14.3" font-family="Helvetica,sans-Serif" font-size="14.00">✓ Run GitHub Actions for `env/lib/python3.10/site&#45;packages/pip/_vendor/rich/console.py`</text>
</g>
<!-- 056feae3&#45;e30b&#45;44d1&#45;a798&#45;f8d1ca09e073&#45;&gt;9fbd69f0&#45;d6c3&#45;4f2e&#45;9867&#45;5093bd3359b3 -->
<g id="edge1" class="edge">
<title>056feae3&#45;e30b&#45;44d1&#45;a798&#45;f8d1ca09e073&#45;&gt;9fbd69f0&#45;d6c3&#45;4f2e&#45;9867&#45;5093bd3359b3</title>
<path fill="none" stroke="black" stroke-dasharray="5,2" d="M365.5,-72.72C365.5,-64.27 365.5,-54.89 365.5,-46.36"/>
<polygon fill="black" stroke="black" points="369,-46.15 365.5,-36.15 362,-46.15 369,-46.15"/>
</g>
<!-- 872aa831&#45;9639&#45;4b19&#45;9b26&#45;b6242ca23f0a -->
<g id="node5" class="node">
<title>872aa831&#45;9639&#45;4b19&#45;9b26&#45;b6242ca23f0a</title>
<ellipse fill="#0ee832" stroke="black" cx="1639.5" cy="-99.87" rx="309.01" ry="26.74"/>
<text text-anchor="middle" x="1639.5" y="-103.67" font-family="Helvetica,sans-Serif" font-size="14.00">✓ Modify</text>
<text text-anchor="middle" x="1639.5" y="-88.67" font-family="Helvetica,sans-Serif" font-size="14.00">env/lib/python3.10/site&#45;packages/pip/_vendor/rich/syntax.py</text>
</g>
<!-- 3cc07f03&#45;6bc6&#45;4d74&#45;9612&#45;5aee43cbacfb&#45;&gt;872aa831&#45;9639&#45;4b19&#45;9b26&#45;b6242ca23f0a -->
<g id="edge4" class="edge">
<title>3cc07f03&#45;6bc6&#45;4d74&#45;9612&#45;5aee43cbacfb&#45;&gt;872aa831&#45;9639&#45;4b19&#45;9b26&#45;b6242ca23f0a</title>
<path fill="none" stroke="black" d="M1294.71,-99.87C1303.27,-99.87 1311.82,-99.87 1320.37,-99.87"/>
<polygon fill="black" stroke="black" points="1320.41,-103.37 1330.41,-99.87 1320.41,-96.37 1320.41,-103.37"/>
</g>
<!-- 0432148a&#45;baaa&#45;4982&#45;9bc2&#45;0c64e0426435 -->
<g id="node8" class="node">
<title>0432148a&#45;baaa&#45;4982&#45;9bc2&#45;0c64e0426435</title>
<polygon fill="#ee0000" stroke="black" points="1306,-36 703,-36 703,0 1306,0 1306,-36"/>
<text text-anchor="middle" x="1004.5" y="-14.3" font-family="Helvetica,sans-Serif" font-size="14.00">✗ Run GitHub Actions for `env/lib/python3.10/site&#45;packages/setuptools/depends.py`</text>
</g>
<!-- 3cc07f03&#45;6bc6&#45;4d74&#45;9612&#45;5aee43cbacfb&#45;&gt;0432148a&#45;baaa&#45;4982&#45;9bc2&#45;0c64e0426435 -->
<g id="edge3" class="edge">
<title>3cc07f03&#45;6bc6&#45;4d74&#45;9612&#45;5aee43cbacfb&#45;&gt;0432148a&#45;baaa&#45;4982&#45;9bc2&#45;0c64e0426435</title>
<path fill="none" stroke="black" stroke-dasharray="5,2" d="M1004.5,-72.72C1004.5,-64.27 1004.5,-54.89 1004.5,-46.36"/>
<polygon fill="black" stroke="black" points="1008,-46.15 1004.5,-36.15 1001,-46.15 1008,-46.15"/>
</g>
<!-- a63fc7d3&#45;7d60&#45;48ac&#45;b4e9&#45;60b0fcaa5217 -->
<g id="node6" class="node">
<title>a63fc7d3&#45;7d60&#45;48ac&#45;b4e9&#45;60b0fcaa5217</title>
<ellipse fill="white" stroke="black" cx="2296.5" cy="-99.87" rx="312.58" ry="26.74"/>
<text text-anchor="middle" x="2296.5" y="-103.67" font-family="Helvetica,sans-Serif" font-size="14.00">▶ Modify</text>
<text text-anchor="middle" x="2296.5" y="-88.67" font-family="Helvetica,sans-Serif" font-size="14.00">env/lib/python3.10/site&#45;packages/setuptools/_distutils/dist.py</text>
</g>
<!-- 872aa831&#45;9639&#45;4b19&#45;9b26&#45;b6242ca23f0a&#45;&gt;a63fc7d3&#45;7d60&#45;48ac&#45;b4e9&#45;60b0fcaa5217 -->
<g id="edge6" class="edge">
<title>872aa831&#45;9639&#45;4b19&#45;9b26&#45;b6242ca23f0a&#45;&gt;a63fc7d3&#45;7d60&#45;48ac&#45;b4e9&#45;60b0fcaa5217</title>
<path fill="none" stroke="black" d="M1948.75,-99.87C1957.04,-99.87 1965.33,-99.87 1973.62,-99.87"/>
<polygon fill="black" stroke="black" points="1973.73,-103.37 1983.73,-99.87 1973.73,-96.37 1973.73,-103.37"/>
</g>
<!-- d32d108e&#45;0434&#45;448b&#45;b631&#45;f5ea0e8c49bb -->
<g id="node9" class="node">
<title>d32d108e&#45;0434&#45;448b&#45;b631&#45;f5ea0e8c49bb</title>
<polygon fill="yellow" stroke="black" points="1956.5,-36 1324.5,-36 1324.5,0 1956.5,0 1956.5,-36"/>
<text text-anchor="middle" x="1640.5" y="-14.3" font-family="Helvetica,sans-Serif" font-size="14.00">⋯ Run GitHub Actions for `env/lib/python3.10/site&#45;packages/pip/_vendor/rich/syntax.py`</text>
</g>
<!-- 872aa831&#45;9639&#45;4b19&#45;9b26&#45;b6242ca23f0a&#45;&gt;d32d108e&#45;0434&#45;448b&#45;b631&#45;f5ea0e8c49bb -->
<g id="edge5" class="edge">
<title>872aa831&#45;9639&#45;4b19&#45;9b26&#45;b6242ca23f0a&#45;&gt;d32d108e&#45;0434&#45;448b&#45;b631&#45;f5ea0e8c49bb</title>
<path fill="none" stroke="black" stroke-dasharray="5,2" d="M1639.83,-72.72C1639.93,-64.27 1640.05,-54.89 1640.16,-46.36"/>
<polygon fill="black" stroke="black" points="1643.66,-46.19 1640.29,-36.15 1636.66,-46.1 1643.66,-46.19"/>
</g>
<!-- a63fc7d3&#45;7d60&#45;48ac&#45;b4e9&#45;60b0fcaa5217&#45;&gt;end -->
<g id="edge9" class="edge">
<title>a63fc7d3&#45;7d60&#45;48ac&#45;b4e9&#45;60b0fcaa5217&#45;&gt;end</title>
<path fill="none" stroke="black" d="M2609.12,-99.87C2629.94,-99.87 2646.65,-99.87 2656.77,-99.87"/>
<polygon fill="black" stroke="black" points="2656.89,-103.37 2666.89,-99.87 2656.89,-96.37 2656.89,-103.37"/>
<text text-anchor="middle" x="2638.02" y="-106.67" font-family="Helvetica,sans-Serif" font-size="14.00">Finish</text>
</g>
<!-- 56f14e21&#45;0488&#45;4006&#45;b1c6&#45;bb21673147bc -->
<g id="node10" class="node">
<title>56f14e21&#45;0488&#45;4006&#45;b1c6&#45;bb21673147bc</title>
<polygon fill="white" stroke="black" points="2613,-36 1980,-36 1980,0 2613,0 2613,-36"/>
<text text-anchor="middle" x="2296.5" y="-14.3" font-family="Helvetica,sans-Serif" font-size="14.00">▶ Run GitHub Actions for `env/lib/python3.10/site&#45;packages/setuptools/_distutils/dist.py`</text>
</g>
<!-- a63fc7d3&#45;7d60&#45;48ac&#45;b4e9&#45;60b0fcaa5217&#45;&gt;56f14e21&#45;0488&#45;4006&#45;b1c6&#45;bb21673147bc -->
<g id="edge7" class="edge">
<title>a63fc7d3&#45;7d60&#45;48ac&#45;b4e9&#45;60b0fcaa5217&#45;&gt;56f14e21&#45;0488&#45;4006&#45;b1c6&#45;bb21673147bc</title>
<path fill="none" stroke="black" stroke-dasharray="5,2" d="M2296.5,-72.72C2296.5,-64.27 2296.5,-54.89 2296.5,-46.36"/>
<polygon fill="black" stroke="black" points="2300,-46.15 2296.5,-36.15 2293,-46.15 2300,-46.15"/>
</g>
</g>
</svg>
