<?xml version="1.0" encoding="UTF-8" standalone="no"?>
<!DOCTYPE svg PUBLIC "-//W3C//DTD SVG 1.1//EN"
 "http://www.w3.org/Graphics/SVG/1.1/DTD/svg11.dtd">
<!-- Generated by graphviz version 2.43.0 (0)
 -->
<!-- Title: %3 Pages: 1 -->
<svg width="1500pt" height="238pt"
 viewBox="0.00 0.00 1499.50 237.74" xmlns="http://www.w3.org/2000/svg" xmlns:xlink="http://www.w3.org/1999/xlink">
<g id="graph0" class="graph" transform="scale(1 1) rotate(0) translate(36 201.74)">
<title>%3</title>
<polygon fill="dimgray" stroke="transparent" points="-36,36 -36,-201.74 1463.5,-201.74 1463.5,36 -36,36"/>
<text text-anchor="middle" x="713.75" y="-150.54" font-family="Helvetica,sans-Serif" font-size="14.00">Sweep&#39;s Plan &amp; Progress</text>
<!-- start -->
<g id="node1" class="node">
<title>start</title>
</g>
<!-- a6131414&#45;ab87&#45;4bc3&#45;bc8d&#45;4d899f2ccbef -->
<g id="node3" class="node">
<title>a6131414&#45;ab87&#45;4bc3&#45;bc8d&#45;4d899f2ccbef</title>
<ellipse fill="yellow" stroke="black" cx="246.5" cy="-99.87" rx="134.2" ry="26.74"/>
<text text-anchor="middle" x="246.5" y="-103.67" font-family="Helvetica,sans-Serif" font-size="14.00">⋯ Create</text>
<text text-anchor="middle" x="246.5" y="-88.67" font-family="Helvetica,sans-Serif" font-size="14.00">sweep_code_improver.py</text>
</g>
<!-- start&#45;&gt;a6131414&#45;ab87&#45;4bc3&#45;bc8d&#45;4d899f2ccbef -->
<g id="edge8" class="edge">
<title>start&#45;&gt;a6131414&#45;ab87&#45;4bc3&#45;bc8d&#45;4d899f2ccbef</title>
<path fill="none" stroke="black" d="M61.03,-99.87C64.1,-99.87 80.1,-99.87 101.53,-99.87"/>
<polygon fill="black" stroke="black" points="101.73,-103.37 111.73,-99.87 101.73,-96.37 101.73,-103.37"/>
<text text-anchor="middle" x="86.57" y="-106.67" font-family="Helvetica,sans-Serif" font-size="14.00">Start</text>
</g>
<!-- end -->
<g id="node2" class="node">
<title>end</title>
</g>
<!-- e02fec46&#45;d67c&#45;49b2&#45;9142&#45;dafc28559354 -->
<g id="node4" class="node">
<title>e02fec46&#45;d67c&#45;49b2&#45;9142&#45;dafc28559354</title>
<ellipse fill="white" stroke="black" cx="546.5" cy="-99.87" rx="73.58" ry="26.74"/>
<text text-anchor="middle" x="546.5" y="-103.67" font-family="Helvetica,sans-Serif" font-size="14.00">▶ Modify</text>
<text text-anchor="middle" x="546.5" y="-88.67" font-family="Helvetica,sans-Serif" font-size="14.00">README.md</text>
</g>
<!-- a6131414&#45;ab87&#45;4bc3&#45;bc8d&#45;4d899f2ccbef&#45;&gt;e02fec46&#45;d67c&#45;49b2&#45;9142&#45;dafc28559354 -->
<g id="edge2" class="edge">
<title>a6131414&#45;ab87&#45;4bc3&#45;bc8d&#45;4d899f2ccbef&#45;&gt;e02fec46&#45;d67c&#45;49b2&#45;9142&#45;dafc28559354</title>
<path fill="none" stroke="black" d="M380.97,-99.87C408.23,-99.87 435.49,-99.87 462.75,-99.87"/>
<polygon fill="black" stroke="black" points="462.79,-103.37 472.79,-99.87 462.79,-96.37 462.79,-103.37"/>
</g>
<!-- c2024e1d&#45;596c&#45;4edd&#45;949e&#45;160f3a1b8ba5 -->
<g id="node7" class="node">
<title>c2024e1d&#45;596c&#45;4edd&#45;949e&#45;160f3a1b8ba5</title>
<polygon fill="white" stroke="black" points="381,-36 0,-36 0,0 381,0 381,-36"/>
<text text-anchor="middle" x="190.5" y="-14.3" font-family="Helvetica,sans-Serif" font-size="14.00">▶ Run GitHub Actions for `sweep_code_improver.py`</text>
</g>
<!-- a6131414&#45;ab87&#45;4bc3&#45;bc8d&#45;4d899f2ccbef&#45;&gt;c2024e1d&#45;596c&#45;4edd&#45;949e&#45;160f3a1b8ba5 -->
<g id="edge1" class="edge">
<title>a6131414&#45;ab87&#45;4bc3&#45;bc8d&#45;4d899f2ccbef&#45;&gt;c2024e1d&#45;596c&#45;4edd&#45;949e&#45;160f3a1b8ba5</title>
<path fill="none" stroke="black" stroke-dasharray="5,2" d="M228.47,-73.16C222.08,-64.04 214.88,-53.77 208.49,-44.65"/>
<polygon fill="black" stroke="black" points="211.26,-42.52 202.66,-36.34 205.53,-46.53 211.26,-42.52"/>
</g>
<!-- c652a950&#45;72bc&#45;4e85&#45;92fd&#45;28baa6dd9769 -->
<g id="node5" class="node">
<title>c652a950&#45;72bc&#45;4e85&#45;92fd&#45;28baa6dd9769</title>
<ellipse fill="white" stroke="black" cx="882.5" cy="-99.87" rx="105.22" ry="26.74"/>
<text text-anchor="middle" x="882.5" y="-103.67" font-family="Helvetica,sans-Serif" font-size="14.00">▶ Modify</text>
<text text-anchor="middle" x="882.5" y="-88.67" font-family="Helvetica,sans-Serif" font-size="14.00">Documentation.md</text>
</g>
<!-- e02fec46&#45;d67c&#45;49b2&#45;9142&#45;dafc28559354&#45;&gt;c652a950&#45;72bc&#45;4e85&#45;92fd&#45;28baa6dd9769 -->
<g id="edge4" class="edge">
<title>e02fec46&#45;d67c&#45;49b2&#45;9142&#45;dafc28559354&#45;&gt;c652a950&#45;72bc&#45;4e85&#45;92fd&#45;28baa6dd9769</title>
<path fill="none" stroke="black" d="M620.33,-99.87C669.19,-99.87 718.05,-99.87 766.92,-99.87"/>
<polygon fill="black" stroke="black" points="767.02,-103.37 777.02,-99.87 767.02,-96.37 767.02,-103.37"/>
</g>
<!-- bcf54369&#45;af48&#45;47fa&#45;81dd&#45;2896d93c2afa -->
<g id="node8" class="node">
<title>bcf54369&#45;af48&#45;47fa&#45;81dd&#45;2896d93c2afa</title>
<polygon fill="white" stroke="black" points="694,-36 399,-36 399,0 694,0 694,-36"/>
<text text-anchor="middle" x="546.5" y="-14.3" font-family="Helvetica,sans-Serif" font-size="14.00">▶ Run GitHub Actions for `README.md`</text>
</g>
<!-- e02fec46&#45;d67c&#45;49b2&#45;9142&#45;dafc28559354&#45;&gt;bcf54369&#45;af48&#45;47fa&#45;81dd&#45;2896d93c2afa -->
<g id="edge3" class="edge">
<title>e02fec46&#45;d67c&#45;49b2&#45;9142&#45;dafc28559354&#45;&gt;bcf54369&#45;af48&#45;47fa&#45;81dd&#45;2896d93c2afa</title>
<path fill="none" stroke="black" stroke-dasharray="5,2" d="M546.5,-72.72C546.5,-64.27 546.5,-54.89 546.5,-46.36"/>
<polygon fill="black" stroke="black" points="550,-46.15 546.5,-36.15 543,-46.15 550,-46.15"/>
</g>
<!-- cac8c6af&#45;6f5e&#45;4542&#45;8491&#45;272e45274c39 -->
<g id="node6" class="node">
<title>cac8c6af&#45;6f5e&#45;4542&#45;8491&#45;272e45274c39</title>
<ellipse fill="white" stroke="black" cx="1194.5" cy="-99.87" rx="115.93" ry="26.74"/>
<text text-anchor="middle" x="1194.5" y="-103.67" font-family="Helvetica,sans-Serif" font-size="14.00">▶ Modify</text>
<text text-anchor="middle" x="1194.5" y="-88.67" font-family="Helvetica,sans-Serif" font-size="14.00">tk.egg&#45;info/PKG&#45;INFO</text>
</g>
<!-- c652a950&#45;72bc&#45;4e85&#45;92fd&#45;28baa6dd9769&#45;&gt;cac8c6af&#45;6f5e&#45;4542&#45;8491&#45;272e45274c39 -->
<g id="edge6" class="edge">
<title>c652a950&#45;72bc&#45;4e85&#45;92fd&#45;28baa6dd9769&#45;&gt;cac8c6af&#45;6f5e&#45;4542&#45;8491&#45;272e45274c39</title>
<path fill="none" stroke="black" d="M987.92,-99.87C1014.64,-99.87 1041.35,-99.87 1068.06,-99.87"/>
<polygon fill="black" stroke="black" points="1068.3,-103.37 1078.3,-99.87 1068.3,-96.37 1068.3,-103.37"/>
</g>
<!-- 28c97688&#45;65f7&#45;4135&#45;8193&#45;efb455d25688 -->
<g id="node9" class="node">
<title>28c97688&#45;65f7&#45;4135&#45;8193&#45;efb455d25688</title>
<polygon fill="white" stroke="black" points="1053,-36 712,-36 712,0 1053,0 1053,-36"/>
<text text-anchor="middle" x="882.5" y="-14.3" font-family="Helvetica,sans-Serif" font-size="14.00">▶ Run GitHub Actions for `Documentation.md`</text>
</g>
<!-- c652a950&#45;72bc&#45;4e85&#45;92fd&#45;28baa6dd9769&#45;&gt;28c97688&#45;65f7&#45;4135&#45;8193&#45;efb455d25688 -->
<g id="edge5" class="edge">
<title>c652a950&#45;72bc&#45;4e85&#45;92fd&#45;28baa6dd9769&#45;&gt;28c97688&#45;65f7&#45;4135&#45;8193&#45;efb455d25688</title>
<path fill="none" stroke="black" stroke-dasharray="5,2" d="M882.5,-72.72C882.5,-64.27 882.5,-54.89 882.5,-46.36"/>
<polygon fill="black" stroke="black" points="886,-46.15 882.5,-36.15 879,-46.15 886,-46.15"/>
</g>
<!-- cac8c6af&#45;6f5e&#45;4542&#45;8491&#45;272e45274c39&#45;&gt;end -->
<g id="edge9" class="edge">
<title>cac8c6af&#45;6f5e&#45;4542&#45;8491&#45;272e45274c39&#45;&gt;end</title>
<path fill="none" stroke="black" d="M1310.56,-99.87C1329.99,-99.87 1347.24,-99.87 1357.76,-99.87"/>
<polygon fill="black" stroke="black" points="1357.83,-103.37 1367.83,-99.87 1357.83,-96.37 1357.83,-103.37"/>
<text text-anchor="middle" x="1339.23" y="-106.67" font-family="Helvetica,sans-Serif" font-size="14.00">Finish</text>
</g>
<!-- a147e4c2&#45;d0a8&#45;42d0&#45;b20e&#45;7f810b50ab28 -->
<g id="node10" class="node">
<title>a147e4c2&#45;d0a8&#45;42d0&#45;b20e&#45;7f810b50ab28</title>
<polygon fill="white" stroke="black" points="1427.5,-36 1071.5,-36 1071.5,0 1427.5,0 1427.5,-36"/>
<text text-anchor="middle" x="1249.5" y="-14.3" font-family="Helvetica,sans-Serif" font-size="14.00">▶ Run GitHub Actions for `tk.egg&#45;info/PKG&#45;INFO`</text>
</g>
<!-- cac8c6af&#45;6f5e&#45;4542&#45;8491&#45;272e45274c39&#45;&gt;a147e4c2&#45;d0a8&#45;42d0&#45;b20e&#45;7f810b50ab28 -->
<g id="edge7" class="edge">
<title>cac8c6af&#45;6f5e&#45;4542&#45;8491&#45;272e45274c39&#45;&gt;a147e4c2&#45;d0a8&#45;42d0&#45;b20e&#45;7f810b50ab28</title>
<path fill="none" stroke="black" stroke-dasharray="5,2" d="M1212.21,-73.16C1218.49,-64.04 1225.55,-53.77 1231.83,-44.65"/>
<polygon fill="black" stroke="black" points="1234.77,-46.56 1237.56,-36.34 1229.01,-42.59 1234.77,-46.56"/>
</g>
</g>
</svg>
