<?xml version="1.0" encoding="UTF-8" standalone="no"?>
<!DOCTYPE svg PUBLIC "-//W3C//DTD SVG 1.1//EN"
 "http://www.w3.org/Graphics/SVG/1.1/DTD/svg11.dtd">
<!-- Generated by graphviz version 2.43.0 (0)
 -->
<!-- Title: %3 Pages: 1 -->
<svg width="377pt" height="238pt"
 viewBox="0.00 0.00 377.00 237.74" xmlns="http://www.w3.org/2000/svg" xmlns:xlink="http://www.w3.org/1999/xlink">
<g id="graph0" class="graph" transform="scale(1 1) rotate(0) translate(36 201.74)">
<title>%3</title>
<polygon fill="dimgray" stroke="transparent" points="-36,36 -36,-201.74 341,-201.74 341,36 -36,36"/>
<text text-anchor="middle" x="152.5" y="-150.54" font-family="Helvetica,sans-Serif" font-size="14.00">Sweep&#39;s Plan &amp; Progress</text>
<!-- start -->
<g id="node1" class="node">
<title>start</title>
</g>
<!-- e15fca0d&#45;de09&#45;4f16&#45;b3a0&#45;98751469815d -->
<g id="node3" class="node">
<title>e15fca0d&#45;de09&#45;4f16&#45;b3a0&#45;98751469815d</title>
<ellipse fill="#0ee832" stroke="black" cx="152.5" cy="-99.87" rx="79.39" ry="26.74"/>
<text text-anchor="middle" x="152.5" y="-103.67" font-family="Helvetica,sans-Serif" font-size="14.00">✓ Modify</text>
<text text-anchor="middle" x="152.5" y="-88.67" font-family="Helvetica,sans-Serif" font-size="14.00">ROADMAP.md</text>
</g>
<!-- start&#45;&gt;e15fca0d&#45;de09&#45;4f16&#45;b3a0&#45;98751469815d -->
<g id="edge2" class="edge">
<title>start&#45;&gt;e15fca0d&#45;de09&#45;4f16&#45;b3a0&#45;98751469815d</title>
<path fill="none" stroke="black" d="M22.34,-99.87C26.18,-99.87 42.78,-99.87 62.92,-99.87"/>
<polygon fill="black" stroke="black" points="63.05,-103.37 73.05,-99.87 63.05,-96.37 63.05,-103.37"/>
<text text-anchor="middle" x="47.65" y="-106.67" font-family="Helvetica,sans-Serif" font-size="14.00">Start</text>
</g>
<!-- end -->
<g id="node2" class="node">
<title>end</title>
</g>
<!-- e15fca0d&#45;de09&#45;4f16&#45;b3a0&#45;98751469815d&#45;&gt;end -->
<g id="edge3" class="edge">
<title>e15fca0d&#45;de09&#45;4f16&#45;b3a0&#45;98751469815d&#45;&gt;end</title>
<path fill="none" stroke="black" d="M231.8,-99.87C250.46,-99.87 268.02,-99.87 278.76,-99.87"/>
<polygon fill="black" stroke="black" points="278.8,-103.37 288.8,-99.87 278.8,-96.37 278.8,-103.37"/>
<text text-anchor="middle" x="260.35" y="-106.67" font-family="Helvetica,sans-Serif" font-size="14.00">Finish</text>
</g>
<!-- ea6b1d6a&#45;4b89&#45;4afd&#45;a6d9&#45;c8117c6c9cea -->
<g id="node4" class="node">
<title>ea6b1d6a&#45;4b89&#45;4afd&#45;a6d9&#45;c8117c6c9cea</title>
<polygon fill="#0ee832" stroke="black" points="305,-36 0,-36 0,0 305,0 305,-36"/>
<text text-anchor="middle" x="152.5" y="-14.3" font-family="Helvetica,sans-Serif" font-size="14.00">✓ Run GitHub Actions for `ROADMAP.md`</text>
</g>
<!-- e15fca0d&#45;de09&#45;4f16&#45;b3a0&#45;98751469815d&#45;&gt;ea6b1d6a&#45;4b89&#45;4afd&#45;a6d9&#45;c8117c6c9cea -->
<g id="edge1" class="edge">
<title>e15fca0d&#45;de09&#45;4f16&#45;b3a0&#45;98751469815d&#45;&gt;ea6b1d6a&#45;4b89&#45;4afd&#45;a6d9&#45;c8117c6c9cea</title>
<path fill="none" stroke="black" stroke-dasharray="5,2" d="M152.5,-72.72C152.5,-64.27 152.5,-54.89 152.5,-46.36"/>
<polygon fill="black" stroke="black" points="156,-46.15 152.5,-36.15 149,-46.15 156,-46.15"/>
</g>
</g>
</svg>
