<?xml version="1.0" encoding="UTF-8" standalone="no"?>
<!DOCTYPE svg PUBLIC "-//W3C//DTD SVG 1.1//EN"
 "http://www.w3.org/Graphics/SVG/1.1/DTD/svg11.dtd">
<!-- Generated by graphviz version 2.43.0 (0)
 -->
<!-- Title: %3 Pages: 1 -->
<svg width="819pt" height="165pt"
 viewBox="0.00 0.00 819.00 164.74" xmlns="http://www.w3.org/2000/svg" xmlns:xlink="http://www.w3.org/1999/xlink">
<g id="graph0" class="graph" transform="scale(1 1) rotate(0) translate(36 128.74)">
<title>%3</title>
<polygon fill="dimgray" stroke="transparent" points="-36,36 -36,-128.74 783,-128.74 783,36 -36,36"/>
<text text-anchor="middle" x="373.5" y="-77.54" font-family="Helvetica,sans-Serif" font-size="14.00">Sweep&#39;s Plan &amp; Progress</text>
<!-- start -->
<g id="node1" class="node">
<title>start</title>
</g>
<!-- 2d907910&#45;1378&#45;4dea&#45;b034&#45;293bb482492e -->
<g id="node3" class="node">
<title>2d907910&#45;1378&#45;4dea&#45;b034&#45;293bb482492e</title>
<ellipse fill="yellow" stroke="black" cx="370.5" cy="-26.87" rx="318.4" ry="26.74"/>
<text text-anchor="middle" x="370.5" y="-30.67" font-family="Helvetica,sans-Serif" font-size="14.00">⋯ Create</text>
<text text-anchor="middle" x="370.5" y="-15.67" font-family="Helvetica,sans-Serif" font-size="14.00">env/lib/python3.10/site&#45;packages/sweep_issues_aggregator.py</text>
</g>
<!-- start&#45;&gt;2d907910&#45;1378&#45;4dea&#45;b034&#45;293bb482492e -->
<g id="edge1" class="edge">
<title>start&#45;&gt;2d907910&#45;1378&#45;4dea&#45;b034&#45;293bb482492e</title>
<path fill="none" stroke="black" d="M1.1,-26.87C4.24,-26.87 19.48,-26.87 42.12,-26.87"/>
<polygon fill="black" stroke="black" points="42.26,-30.37 52.26,-26.87 42.26,-23.37 42.26,-30.37"/>
<text text-anchor="middle" x="26.65" y="-33.67" font-family="Helvetica,sans-Serif" font-size="14.00">Start</text>
</g>
<!-- end -->
<g id="node2" class="node">
<title>end</title>
</g>
<!-- 2d907910&#45;1378&#45;4dea&#45;b034&#45;293bb482492e&#45;&gt;end -->
<g id="edge2" class="edge">
<title>2d907910&#45;1378&#45;4dea&#45;b034&#45;293bb482492e&#45;&gt;end</title>
<path fill="none" stroke="black" d="M688.98,-26.87C709.3,-26.87 725.6,-26.87 735.59,-26.87"/>
<polygon fill="black" stroke="black" points="735.9,-30.37 745.9,-26.87 735.9,-23.37 735.9,-30.37"/>
<text text-anchor="middle" x="717.35" y="-33.67" font-family="Helvetica,sans-Serif" font-size="14.00">Finish</text>
</g>
</g>
</svg>
