<?xml version="1.0" encoding="UTF-8" standalone="no"?>
<!DOCTYPE svg PUBLIC "-//W3C//DTD SVG 1.1//EN"
 "http://www.w3.org/Graphics/SVG/1.1/DTD/svg11.dtd">
<!-- Generated by graphviz version 2.43.0 (0)
 -->
<!-- Title: %3 Pages: 1 -->
<svg width="3001pt" height="238pt"
 viewBox="0.00 0.00 3001.00 237.74" xmlns="http://www.w3.org/2000/svg" xmlns:xlink="http://www.w3.org/1999/xlink">
<g id="graph0" class="graph" transform="scale(1 1) rotate(0) translate(36 201.74)">
<title>%3</title>
<polygon fill="dimgray" stroke="transparent" points="-36,36 -36,-201.74 2965,-201.74 2965,36 -36,36"/>
<text text-anchor="middle" x="1464.5" y="-150.54" font-family="Helvetica,sans-Serif" font-size="14.00">Sweep&#39;s Plan &amp; Progress</text>
<!-- start -->
<g id="node1" class="node">
<title>start</title>
</g>
<!-- 5201e19f&#45;777d&#45;4410&#45;b58a&#45;abf34ea48b47 -->
<g id="node3" class="node">
<title>5201e19f&#45;777d&#45;4410&#45;b58a&#45;abf34ea48b47</title>
<ellipse fill="#0ee832" stroke="black" cx="402.5" cy="-99.87" rx="350.04" ry="26.74"/>
<text text-anchor="middle" x="402.5" y="-103.67" font-family="Helvetica,sans-Serif" font-size="14.00">✓ Modify</text>
<text text-anchor="middle" x="402.5" y="-88.67" font-family="Helvetica,sans-Serif" font-size="14.00">env/lib/python3.10/site&#45;packages/pip/_internal/operations/prepare.py</text>
</g>
<!-- start&#45;&gt;5201e19f&#45;777d&#45;4410&#45;b58a&#45;abf34ea48b47 -->
<g id="edge8" class="edge">
<title>start&#45;&gt;5201e19f&#45;777d&#45;4410&#45;b58a&#45;abf34ea48b47</title>
<path fill="none" stroke="black" d="M1.15,-99.87C4.39,-99.87 19.51,-99.87 42.12,-99.87"/>
<polygon fill="black" stroke="black" points="42.25,-103.37 52.25,-99.87 42.25,-96.37 42.25,-103.37"/>
<text text-anchor="middle" x="26.74" y="-106.67" font-family="Helvetica,sans-Serif" font-size="14.00">Start</text>
</g>
<!-- end -->
<g id="node2" class="node">
<title>end</title>
</g>
<!-- 385ddcbe&#45;ab03&#45;4a44&#45;8363&#45;43cbeafe93e1 -->
<g id="node4" class="node">
<title>385ddcbe&#45;ab03&#45;4a44&#45;8363&#45;43cbeafe93e1</title>
<ellipse fill="#ee0000" stroke="black" cx="1144.5" cy="-99.87" rx="356.26" ry="26.74"/>
<text text-anchor="middle" x="1144.5" y="-103.67" font-family="Helvetica,sans-Serif" font-size="14.00">✗ Modify</text>
<text text-anchor="middle" x="1144.5" y="-88.67" font-family="Helvetica,sans-Serif" font-size="14.00">env/lib/python3.10/site&#45;packages/setuptools/command/easy_install.py</text>
</g>
<!-- 5201e19f&#45;777d&#45;4410&#45;b58a&#45;abf34ea48b47&#45;&gt;385ddcbe&#45;ab03&#45;4a44&#45;8363&#45;43cbeafe93e1 -->
<g id="edge2" class="edge">
<title>5201e19f&#45;777d&#45;4410&#45;b58a&#45;abf34ea48b47&#45;&gt;385ddcbe&#45;ab03&#45;4a44&#45;8363&#45;43cbeafe93e1</title>
<path fill="none" stroke="black" d="M752.85,-99.87C761.19,-99.87 769.53,-99.87 777.86,-99.87"/>
<polygon fill="black" stroke="black" points="778.04,-103.37 788.04,-99.87 778.04,-96.37 778.04,-103.37"/>
</g>
<!-- e2cc01fc&#45;e84a&#45;40b4&#45;83e5&#45;ca5a53328c26 -->
<g id="node7" class="node">
<title>e2cc01fc&#45;e84a&#45;40b4&#45;83e5&#45;ca5a53328c26</title>
<polygon fill="#0ee832" stroke="black" points="746.5,-36 58.5,-36 58.5,0 746.5,0 746.5,-36"/>
<text text-anchor="middle" x="402.5" y="-14.3" font-family="Helvetica,sans-Serif" font-size="14.00">✓ Run GitHub Actions for `env/lib/python3.10/site&#45;packages/pip/_internal/operations/prepare.py`</text>
</g>
<!-- 5201e19f&#45;777d&#45;4410&#45;b58a&#45;abf34ea48b47&#45;&gt;e2cc01fc&#45;e84a&#45;40b4&#45;83e5&#45;ca5a53328c26 -->
<g id="edge1" class="edge">
<title>5201e19f&#45;777d&#45;4410&#45;b58a&#45;abf34ea48b47&#45;&gt;e2cc01fc&#45;e84a&#45;40b4&#45;83e5&#45;ca5a53328c26</title>
<path fill="none" stroke="black" stroke-dasharray="5,2" d="M402.5,-72.72C402.5,-64.27 402.5,-54.89 402.5,-46.36"/>
<polygon fill="black" stroke="black" points="406,-46.15 402.5,-36.15 399,-46.15 406,-46.15"/>
</g>
<!-- f0ea4c25&#45;f34e&#45;456b&#45;94e0&#45;68c4fbb0d35e -->
<g id="node5" class="node">
<title>f0ea4c25&#45;f34e&#45;456b&#45;94e0&#45;68c4fbb0d35e</title>
<ellipse fill="white" stroke="black" cx="1846.5" cy="-99.87" rx="309.93" ry="26.74"/>
<text text-anchor="middle" x="1846.5" y="-103.67" font-family="Helvetica,sans-Serif" font-size="14.00">▶ Modify</text>
<text text-anchor="middle" x="1846.5" y="-88.67" font-family="Helvetica,sans-Serif" font-size="14.00">env/lib/python3.10/site&#45;packages/setuptools/_distutils/util.py</text>
</g>
<!-- 385ddcbe&#45;ab03&#45;4a44&#45;8363&#45;43cbeafe93e1&#45;&gt;f0ea4c25&#45;f34e&#45;456b&#45;94e0&#45;68c4fbb0d35e -->
<g id="edge4" class="edge">
<title>385ddcbe&#45;ab03&#45;4a44&#45;8363&#45;43cbeafe93e1&#45;&gt;f0ea4c25&#45;f34e&#45;456b&#45;94e0&#45;68c4fbb0d35e</title>
<path fill="none" stroke="black" d="M1500.98,-99.87C1509.55,-99.87 1518.12,-99.87 1526.69,-99.87"/>
<polygon fill="black" stroke="black" points="1526.75,-103.37 1536.75,-99.87 1526.75,-96.37 1526.75,-103.37"/>
</g>
<!-- ed76137a&#45;6526&#45;4512&#45;8ec5&#45;3e288ae50511 -->
<g id="node8" class="node">
<title>ed76137a&#45;6526&#45;4512&#45;8ec5&#45;3e288ae50511</title>
<polygon fill="#ee0000" stroke="black" points="1493,-36 796,-36 796,0 1493,0 1493,-36"/>
<text text-anchor="middle" x="1144.5" y="-14.3" font-family="Helvetica,sans-Serif" font-size="14.00">✗ Run GitHub Actions for `env/lib/python3.10/site&#45;packages/setuptools/command/easy_install.py`</text>
</g>
<!-- 385ddcbe&#45;ab03&#45;4a44&#45;8363&#45;43cbeafe93e1&#45;&gt;ed76137a&#45;6526&#45;4512&#45;8ec5&#45;3e288ae50511 -->
<g id="edge3" class="edge">
<title>385ddcbe&#45;ab03&#45;4a44&#45;8363&#45;43cbeafe93e1&#45;&gt;ed76137a&#45;6526&#45;4512&#45;8ec5&#45;3e288ae50511</title>
<path fill="none" stroke="black" stroke-dasharray="5,2" d="M1144.5,-72.72C1144.5,-64.27 1144.5,-54.89 1144.5,-46.36"/>
<polygon fill="black" stroke="black" points="1148,-46.15 1144.5,-36.15 1141,-46.15 1148,-46.15"/>
</g>
<!-- 660c25be&#45;5cfe&#45;483f&#45;b0a6&#45;eea383fae856 -->
<g id="node6" class="node">
<title>660c25be&#45;5cfe&#45;483f&#45;b0a6&#45;eea383fae856</title>
<ellipse fill="white" stroke="black" cx="2531.5" cy="-99.87" rx="339.32" ry="26.74"/>
<text text-anchor="middle" x="2531.5" y="-103.67" font-family="Helvetica,sans-Serif" font-size="14.00">▶ Modify</text>
<text text-anchor="middle" x="2531.5" y="-88.67" font-family="Helvetica,sans-Serif" font-size="14.00">env/lib/python3.10/site&#45;packages/setuptools/_vendor/pyparsing.py</text>
</g>
<!-- f0ea4c25&#45;f34e&#45;456b&#45;94e0&#45;68c4fbb0d35e&#45;&gt;660c25be&#45;5cfe&#45;483f&#45;b0a6&#45;eea383fae856 -->
<g id="edge6" class="edge">
<title>f0ea4c25&#45;f34e&#45;456b&#45;94e0&#45;68c4fbb0d35e&#45;&gt;660c25be&#45;5cfe&#45;483f&#45;b0a6&#45;eea383fae856</title>
<path fill="none" stroke="black" d="M2156.22,-99.87C2164.65,-99.87 2173.07,-99.87 2181.49,-99.87"/>
<polygon fill="black" stroke="black" points="2181.77,-103.37 2191.77,-99.87 2181.77,-96.37 2181.77,-103.37"/>
</g>
<!-- 065251c0&#45;439e&#45;4c35&#45;93b7&#45;a5fcb5e3f603 -->
<g id="node9" class="node">
<title>065251c0&#45;439e&#45;4c35&#45;93b7&#45;a5fcb5e3f603</title>
<polygon fill="white" stroke="black" points="2161,-36 1532,-36 1532,0 2161,0 2161,-36"/>
<text text-anchor="middle" x="1846.5" y="-14.3" font-family="Helvetica,sans-Serif" font-size="14.00">▶ Run GitHub Actions for `env/lib/python3.10/site&#45;packages/setuptools/_distutils/util.py`</text>
</g>
<!-- f0ea4c25&#45;f34e&#45;456b&#45;94e0&#45;68c4fbb0d35e&#45;&gt;065251c0&#45;439e&#45;4c35&#45;93b7&#45;a5fcb5e3f603 -->
<g id="edge5" class="edge">
<title>f0ea4c25&#45;f34e&#45;456b&#45;94e0&#45;68c4fbb0d35e&#45;&gt;065251c0&#45;439e&#45;4c35&#45;93b7&#45;a5fcb5e3f603</title>
<path fill="none" stroke="black" stroke-dasharray="5,2" d="M1846.5,-72.72C1846.5,-64.27 1846.5,-54.89 1846.5,-46.36"/>
<polygon fill="black" stroke="black" points="1850,-46.15 1846.5,-36.15 1843,-46.15 1850,-46.15"/>
</g>
<!-- 660c25be&#45;5cfe&#45;483f&#45;b0a6&#45;eea383fae856&#45;&gt;end -->
<g id="edge9" class="edge">
<title>660c25be&#45;5cfe&#45;483f&#45;b0a6&#45;eea383fae856&#45;&gt;end</title>
<path fill="none" stroke="black" d="M2871.2,-99.87C2891.52,-99.87 2907.74,-99.87 2917.67,-99.87"/>
<polygon fill="black" stroke="black" points="2917.91,-103.37 2927.91,-99.87 2917.91,-96.37 2917.91,-103.37"/>
<text text-anchor="middle" x="2899.46" y="-106.67" font-family="Helvetica,sans-Serif" font-size="14.00">Finish</text>
</g>
<!-- 583c0d74&#45;d31d&#45;49f3&#45;89a9&#45;2d070b6fa34a -->
<g id="node10" class="node">
<title>583c0d74&#45;d31d&#45;49f3&#45;89a9&#45;2d070b6fa34a</title>
<polygon fill="white" stroke="black" points="2867,-36 2196,-36 2196,0 2867,0 2867,-36"/>
<text text-anchor="middle" x="2531.5" y="-14.3" font-family="Helvetica,sans-Serif" font-size="14.00">▶ Run GitHub Actions for `env/lib/python3.10/site&#45;packages/setuptools/_vendor/pyparsing.py`</text>
</g>
<!-- 660c25be&#45;5cfe&#45;483f&#45;b0a6&#45;eea383fae856&#45;&gt;583c0d74&#45;d31d&#45;49f3&#45;89a9&#45;2d070b6fa34a -->
<g id="edge7" class="edge">
<title>660c25be&#45;5cfe&#45;483f&#45;b0a6&#45;eea383fae856&#45;&gt;583c0d74&#45;d31d&#45;49f3&#45;89a9&#45;2d070b6fa34a</title>
<path fill="none" stroke="black" stroke-dasharray="5,2" d="M2531.5,-72.72C2531.5,-64.27 2531.5,-54.89 2531.5,-46.36"/>
<polygon fill="black" stroke="black" points="2535,-46.15 2531.5,-36.15 2528,-46.15 2535,-46.15"/>
</g>
</g>
</svg>
