<?xml version="1.0" encoding="UTF-8" standalone="no"?>
<!DOCTYPE svg PUBLIC "-//W3C//DTD SVG 1.1//EN"
 "http://www.w3.org/Graphics/SVG/1.1/DTD/svg11.dtd">
<!-- Generated by graphviz version 2.43.0 (0)
 -->
<!-- Title: %3 Pages: 1 -->
<svg width="1007pt" height="238pt"
 viewBox="0.00 0.00 1006.50 237.74" xmlns="http://www.w3.org/2000/svg" xmlns:xlink="http://www.w3.org/1999/xlink">
<g id="graph0" class="graph" transform="scale(1 1) rotate(0) translate(36 201.74)">
<title>%3</title>
<polygon fill="dimgray" stroke="transparent" points="-36,36 -36,-201.74 970.5,-201.74 970.5,36 -36,36"/>
<text text-anchor="middle" x="467.25" y="-150.54" font-family="Helvetica,sans-Serif" font-size="14.00">Sweep&#39;s Plan &amp; Progress</text>
<!-- start -->
<g id="node1" class="node">
<title>start</title>
</g>
<!-- 857e1ed9&#45;9056&#45;4b2e&#45;8769&#45;e1888b6c0e1b -->
<g id="node3" class="node">
<title>857e1ed9&#45;9056&#45;4b2e&#45;8769&#45;e1888b6c0e1b</title>
<ellipse fill="#0ee832" stroke="black" cx="215" cy="-99.87" rx="75.82" ry="26.74"/>
<text text-anchor="middle" x="215" y="-103.67" font-family="Helvetica,sans-Serif" font-size="14.00">✓ Create</text>
<text text-anchor="middle" x="215" y="-88.67" font-family="Helvetica,sans-Serif" font-size="14.00">TESTLOG.md</text>
</g>
<!-- start&#45;&gt;857e1ed9&#45;9056&#45;4b2e&#45;8769&#45;e1888b6c0e1b -->
<g id="edge6" class="edge">
<title>start&#45;&gt;857e1ed9&#45;9056&#45;4b2e&#45;8769&#45;e1888b6c0e1b</title>
<path fill="none" stroke="black" d="M87.82,-99.87C91.66,-99.87 108.59,-99.87 128.92,-99.87"/>
<polygon fill="black" stroke="black" points="129.12,-103.37 139.12,-99.87 129.12,-96.37 129.12,-103.37"/>
<text text-anchor="middle" x="113.42" y="-106.67" font-family="Helvetica,sans-Serif" font-size="14.00">Start</text>
</g>
<!-- end -->
<g id="node2" class="node">
<title>end</title>
</g>
<!-- 6cbff1c7&#45;5570&#45;4062&#45;89bd&#45;c444c17f1567 -->
<g id="node4" class="node">
<title>6cbff1c7&#45;5570&#45;4062&#45;89bd&#45;c444c17f1567</title>
<ellipse fill="white" stroke="black" cx="466" cy="-99.87" rx="73.58" ry="26.74"/>
<text text-anchor="middle" x="466" y="-103.67" font-family="Helvetica,sans-Serif" font-size="14.00">▶ Modify</text>
<text text-anchor="middle" x="466" y="-88.67" font-family="Helvetica,sans-Serif" font-size="14.00">README.md</text>
</g>
<!-- 857e1ed9&#45;9056&#45;4b2e&#45;8769&#45;e1888b6c0e1b&#45;&gt;6cbff1c7&#45;5570&#45;4062&#45;89bd&#45;c444c17f1567 -->
<g id="edge2" class="edge">
<title>857e1ed9&#45;9056&#45;4b2e&#45;8769&#45;e1888b6c0e1b&#45;&gt;6cbff1c7&#45;5570&#45;4062&#45;89bd&#45;c444c17f1567</title>
<path fill="none" stroke="black" d="M290.99,-99.87C321.29,-99.87 351.59,-99.87 381.89,-99.87"/>
<polygon fill="black" stroke="black" points="382.17,-103.37 392.17,-99.87 382.17,-96.37 382.17,-103.37"/>
</g>
<!-- 05696cde&#45;868a&#45;4043&#45;95d8&#45;2638539907f3 -->
<g id="node6" class="node">
<title>05696cde&#45;868a&#45;4043&#45;95d8&#45;2638539907f3</title>
<polygon fill="#0ee832" stroke="black" points="300,-36 0,-36 0,0 300,0 300,-36"/>
<text text-anchor="middle" x="150" y="-14.3" font-family="Helvetica,sans-Serif" font-size="14.00">✓ Run GitHub Actions for `TESTLOG.md`</text>
</g>
<!-- 857e1ed9&#45;9056&#45;4b2e&#45;8769&#45;e1888b6c0e1b&#45;&gt;05696cde&#45;868a&#45;4043&#45;95d8&#45;2638539907f3 -->
<g id="edge1" class="edge">
<title>857e1ed9&#45;9056&#45;4b2e&#45;8769&#45;e1888b6c0e1b&#45;&gt;05696cde&#45;868a&#45;4043&#45;95d8&#45;2638539907f3</title>
<path fill="none" stroke="black" stroke-dasharray="5,2" d="M194.43,-73.6C186.72,-64.13 177.97,-53.37 170.29,-43.93"/>
<polygon fill="black" stroke="black" points="172.89,-41.58 163.86,-36.04 167.46,-46 172.89,-41.58"/>
</g>
<!-- 32ba8c3d&#45;0f31&#45;47d3&#45;9dd2&#45;0cf5f94a9792 -->
<g id="node5" class="node">
<title>32ba8c3d&#45;0f31&#45;47d3&#45;9dd2&#45;0cf5f94a9792</title>
<ellipse fill="white" stroke="black" cx="719" cy="-99.87" rx="79.39" ry="26.74"/>
<text text-anchor="middle" x="719" y="-103.67" font-family="Helvetica,sans-Serif" font-size="14.00">▶ Modify</text>
<text text-anchor="middle" x="719" y="-88.67" font-family="Helvetica,sans-Serif" font-size="14.00">ROADMAP.md</text>
</g>
<!-- 6cbff1c7&#45;5570&#45;4062&#45;89bd&#45;c444c17f1567&#45;&gt;32ba8c3d&#45;0f31&#45;47d3&#45;9dd2&#45;0cf5f94a9792 -->
<g id="edge4" class="edge">
<title>6cbff1c7&#45;5570&#45;4062&#45;89bd&#45;c444c17f1567&#45;&gt;32ba8c3d&#45;0f31&#45;47d3&#45;9dd2&#45;0cf5f94a9792</title>
<path fill="none" stroke="black" d="M539.63,-99.87C569.53,-99.87 599.43,-99.87 629.33,-99.87"/>
<polygon fill="black" stroke="black" points="629.47,-103.37 639.47,-99.87 629.47,-96.37 629.47,-103.37"/>
</g>
<!-- 68266699&#45;e7b2&#45;450a&#45;b3c6&#45;8e4ac0326015 -->
<g id="node7" class="node">
<title>68266699&#45;e7b2&#45;450a&#45;b3c6&#45;8e4ac0326015</title>
<polygon fill="white" stroke="black" points="613.5,-36 318.5,-36 318.5,0 613.5,0 613.5,-36"/>
<text text-anchor="middle" x="466" y="-14.3" font-family="Helvetica,sans-Serif" font-size="14.00">▶ Run GitHub Actions for `README.md`</text>
</g>
<!-- 6cbff1c7&#45;5570&#45;4062&#45;89bd&#45;c444c17f1567&#45;&gt;68266699&#45;e7b2&#45;450a&#45;b3c6&#45;8e4ac0326015 -->
<g id="edge3" class="edge">
<title>6cbff1c7&#45;5570&#45;4062&#45;89bd&#45;c444c17f1567&#45;&gt;68266699&#45;e7b2&#45;450a&#45;b3c6&#45;8e4ac0326015</title>
<path fill="none" stroke="black" stroke-dasharray="5,2" d="M466,-72.72C466,-64.27 466,-54.89 466,-46.36"/>
<polygon fill="black" stroke="black" points="469.5,-46.15 466,-36.15 462.5,-46.15 469.5,-46.15"/>
</g>
<!-- 32ba8c3d&#45;0f31&#45;47d3&#45;9dd2&#45;0cf5f94a9792&#45;&gt;end -->
<g id="edge7" class="edge">
<title>32ba8c3d&#45;0f31&#45;47d3&#45;9dd2&#45;0cf5f94a9792&#45;&gt;end</title>
<path fill="none" stroke="black" d="M798.3,-99.87C816.96,-99.87 834.52,-99.87 845.26,-99.87"/>
<polygon fill="black" stroke="black" points="845.3,-103.37 855.3,-99.87 845.3,-96.37 845.3,-103.37"/>
<text text-anchor="middle" x="826.85" y="-106.67" font-family="Helvetica,sans-Serif" font-size="14.00">Finish</text>
</g>
<!-- 38b90af3&#45;d447&#45;41c2&#45;8d22&#45;a915c88ce6fd -->
<g id="node8" class="node">
<title>38b90af3&#45;d447&#45;41c2&#45;8d22&#45;a915c88ce6fd</title>
<polygon fill="white" stroke="black" points="934.5,-36 631.5,-36 631.5,0 934.5,0 934.5,-36"/>
<text text-anchor="middle" x="783" y="-14.3" font-family="Helvetica,sans-Serif" font-size="14.00">▶ Run GitHub Actions for `ROADMAP.md`</text>
</g>
<!-- 32ba8c3d&#45;0f31&#45;47d3&#45;9dd2&#45;0cf5f94a9792&#45;&gt;38b90af3&#45;d447&#45;41c2&#45;8d22&#45;a915c88ce6fd -->
<g id="edge5" class="edge">
<title>32ba8c3d&#45;0f31&#45;47d3&#45;9dd2&#45;0cf5f94a9792&#45;&gt;38b90af3&#45;d447&#45;41c2&#45;8d22&#45;a915c88ce6fd</title>
<path fill="none" stroke="black" stroke-dasharray="5,2" d="M739.25,-73.6C746.84,-64.13 755.46,-53.37 763.02,-43.93"/>
<polygon fill="black" stroke="black" points="765.83,-46.03 769.35,-36.04 760.36,-41.65 765.83,-46.03"/>
</g>
</g>
</svg>
