<?xml version="1.0" encoding="UTF-8" standalone="no"?>
<!DOCTYPE svg PUBLIC "-//W3C//DTD SVG 1.1//EN"
 "http://www.w3.org/Graphics/SVG/1.1/DTD/svg11.dtd">
<!-- Generated by graphviz version 2.43.0 (0)
 -->
<!-- Title: %3 Pages: 1 -->
<svg width="1506pt" height="238pt"
 viewBox="0.00 0.00 1505.50 237.74" xmlns="http://www.w3.org/2000/svg" xmlns:xlink="http://www.w3.org/1999/xlink">
<g id="graph0" class="graph" transform="scale(1 1) rotate(0) translate(36 201.74)">
<title>%3</title>
<polygon fill="dimgray" stroke="transparent" points="-36,36 -36,-201.74 1469.5,-201.74 1469.5,36 -36,36"/>
<text text-anchor="middle" x="716.75" y="-150.54" font-family="Helvetica,sans-Serif" font-size="14.00">Sweep&#39;s Plan &amp; Progress</text>
<!-- start -->
<g id="node1" class="node">
<title>start</title>
</g>
<!-- a6131414&#45;ab87&#45;4bc3&#45;bc8d&#45;4d899f2ccbef -->
<g id="node3" class="node">
<title>a6131414&#45;ab87&#45;4bc3&#45;bc8d&#45;4d899f2ccbef</title>
<ellipse fill="#0ee832" stroke="black" cx="249.5" cy="-99.87" rx="134.2" ry="26.74"/>
<text text-anchor="middle" x="249.5" y="-103.67" font-family="Helvetica,sans-Serif" font-size="14.00">✓ Create</text>
<text text-anchor="middle" x="249.5" y="-88.67" font-family="Helvetica,sans-Serif" font-size="14.00">sweep_code_improver.py</text>
</g>
<!-- start&#45;&gt;a6131414&#45;ab87&#45;4bc3&#45;bc8d&#45;4d899f2ccbef -->
<g id="edge8" class="edge">
<title>start&#45;&gt;a6131414&#45;ab87&#45;4bc3&#45;bc8d&#45;4d899f2ccbef</title>
<path fill="none" stroke="black" d="M64.03,-99.87C67.1,-99.87 83.1,-99.87 104.53,-99.87"/>
<polygon fill="black" stroke="black" points="104.73,-103.37 114.73,-99.87 104.73,-96.37 104.73,-103.37"/>
<text text-anchor="middle" x="89.57" y="-106.67" font-family="Helvetica,sans-Serif" font-size="14.00">Start</text>
</g>
<!-- end -->
<g id="node2" class="node">
<title>end</title>
</g>
<!-- e02fec46&#45;d67c&#45;49b2&#45;9142&#45;dafc28559354 -->
<g id="node4" class="node">
<title>e02fec46&#45;d67c&#45;49b2&#45;9142&#45;dafc28559354</title>
<ellipse fill="#0ee832" stroke="black" cx="550.5" cy="-99.87" rx="73.58" ry="26.74"/>
<text text-anchor="middle" x="550.5" y="-103.67" font-family="Helvetica,sans-Serif" font-size="14.00">✓ Modify</text>
<text text-anchor="middle" x="550.5" y="-88.67" font-family="Helvetica,sans-Serif" font-size="14.00">README.md</text>
</g>
<!-- a6131414&#45;ab87&#45;4bc3&#45;bc8d&#45;4d899f2ccbef&#45;&gt;e02fec46&#45;d67c&#45;49b2&#45;9142&#45;dafc28559354 -->
<g id="edge2" class="edge">
<title>a6131414&#45;ab87&#45;4bc3&#45;bc8d&#45;4d899f2ccbef&#45;&gt;e02fec46&#45;d67c&#45;49b2&#45;9142&#45;dafc28559354</title>
<path fill="none" stroke="black" d="M384.13,-99.87C411.62,-99.87 439.11,-99.87 466.61,-99.87"/>
<polygon fill="black" stroke="black" points="466.74,-103.37 476.74,-99.87 466.74,-96.37 466.74,-103.37"/>
</g>
<!-- c2024e1d&#45;596c&#45;4edd&#45;949e&#45;160f3a1b8ba5 -->
<g id="node7" class="node">
<title>c2024e1d&#45;596c&#45;4edd&#45;949e&#45;160f3a1b8ba5</title>
<polygon fill="#0ee832" stroke="black" points="383,-36 0,-36 0,0 383,0 383,-36"/>
<text text-anchor="middle" x="191.5" y="-14.3" font-family="Helvetica,sans-Serif" font-size="14.00">✓ Run GitHub Actions for `sweep_code_improver.py`</text>
</g>
<!-- a6131414&#45;ab87&#45;4bc3&#45;bc8d&#45;4d899f2ccbef&#45;&gt;c2024e1d&#45;596c&#45;4edd&#45;949e&#45;160f3a1b8ba5 -->
<g id="edge1" class="edge">
<title>a6131414&#45;ab87&#45;4bc3&#45;bc8d&#45;4d899f2ccbef&#45;&gt;c2024e1d&#45;596c&#45;4edd&#45;949e&#45;160f3a1b8ba5</title>
<path fill="none" stroke="black" stroke-dasharray="5,2" d="M230.83,-73.16C224.2,-64.04 216.75,-53.77 210.13,-44.65"/>
<polygon fill="black" stroke="black" points="212.8,-42.37 204.09,-36.34 207.13,-46.48 212.8,-42.37"/>
</g>
<!-- c652a950&#45;72bc&#45;4e85&#45;92fd&#45;28baa6dd9769 -->
<g id="node5" class="node">
<title>c652a950&#45;72bc&#45;4e85&#45;92fd&#45;28baa6dd9769</title>
<ellipse fill="white" stroke="black" cx="888.5" cy="-99.87" rx="105.22" ry="26.74"/>
<text text-anchor="middle" x="888.5" y="-103.67" font-family="Helvetica,sans-Serif" font-size="14.00">▶ Modify</text>
<text text-anchor="middle" x="888.5" y="-88.67" font-family="Helvetica,sans-Serif" font-size="14.00">Documentation.md</text>
</g>
<!-- e02fec46&#45;d67c&#45;49b2&#45;9142&#45;dafc28559354&#45;&gt;c652a950&#45;72bc&#45;4e85&#45;92fd&#45;28baa6dd9769 -->
<g id="edge4" class="edge">
<title>e02fec46&#45;d67c&#45;49b2&#45;9142&#45;dafc28559354&#45;&gt;c652a950&#45;72bc&#45;4e85&#45;92fd&#45;28baa6dd9769</title>
<path fill="none" stroke="black" d="M624.11,-99.87C673.63,-99.87 723.14,-99.87 772.66,-99.87"/>
<polygon fill="black" stroke="black" points="772.9,-103.37 782.9,-99.87 772.9,-96.37 772.9,-103.37"/>
</g>
<!-- bcf54369&#45;af48&#45;47fa&#45;81dd&#45;2896d93c2afa -->
<g id="node8" class="node">
<title>bcf54369&#45;af48&#45;47fa&#45;81dd&#45;2896d93c2afa</title>
<polygon fill="yellow" stroke="black" points="700,-36 401,-36 401,0 700,0 700,-36"/>
<text text-anchor="middle" x="550.5" y="-14.3" font-family="Helvetica,sans-Serif" font-size="14.00">⋯ Run GitHub Actions for `README.md`</text>
</g>
<!-- e02fec46&#45;d67c&#45;49b2&#45;9142&#45;dafc28559354&#45;&gt;bcf54369&#45;af48&#45;47fa&#45;81dd&#45;2896d93c2afa -->
<g id="edge3" class="edge">
<title>e02fec46&#45;d67c&#45;49b2&#45;9142&#45;dafc28559354&#45;&gt;bcf54369&#45;af48&#45;47fa&#45;81dd&#45;2896d93c2afa</title>
<path fill="none" stroke="black" stroke-dasharray="5,2" d="M550.5,-72.72C550.5,-64.27 550.5,-54.89 550.5,-46.36"/>
<polygon fill="black" stroke="black" points="554,-46.15 550.5,-36.15 547,-46.15 554,-46.15"/>
</g>
<!-- cac8c6af&#45;6f5e&#45;4542&#45;8491&#45;272e45274c39 -->
<g id="node6" class="node">
<title>cac8c6af&#45;6f5e&#45;4542&#45;8491&#45;272e45274c39</title>
<ellipse fill="white" stroke="black" cx="1200.5" cy="-99.87" rx="115.93" ry="26.74"/>
<text text-anchor="middle" x="1200.5" y="-103.67" font-family="Helvetica,sans-Serif" font-size="14.00">▶ Modify</text>
<text text-anchor="middle" x="1200.5" y="-88.67" font-family="Helvetica,sans-Serif" font-size="14.00">tk.egg&#45;info/PKG&#45;INFO</text>
</g>
<!-- c652a950&#45;72bc&#45;4e85&#45;92fd&#45;28baa6dd9769&#45;&gt;cac8c6af&#45;6f5e&#45;4542&#45;8491&#45;272e45274c39 -->
<g id="edge6" class="edge">
<title>c652a950&#45;72bc&#45;4e85&#45;92fd&#45;28baa6dd9769&#45;&gt;cac8c6af&#45;6f5e&#45;4542&#45;8491&#45;272e45274c39</title>
<path fill="none" stroke="black" d="M993.92,-99.87C1020.64,-99.87 1047.35,-99.87 1074.06,-99.87"/>
<polygon fill="black" stroke="black" points="1074.3,-103.37 1084.3,-99.87 1074.3,-96.37 1074.3,-103.37"/>
</g>
<!-- 28c97688&#45;65f7&#45;4135&#45;8193&#45;efb455d25688 -->
<g id="node9" class="node">
<title>28c97688&#45;65f7&#45;4135&#45;8193&#45;efb455d25688</title>
<polygon fill="white" stroke="black" points="1059,-36 718,-36 718,0 1059,0 1059,-36"/>
<text text-anchor="middle" x="888.5" y="-14.3" font-family="Helvetica,sans-Serif" font-size="14.00">▶ Run GitHub Actions for `Documentation.md`</text>
</g>
<!-- c652a950&#45;72bc&#45;4e85&#45;92fd&#45;28baa6dd9769&#45;&gt;28c97688&#45;65f7&#45;4135&#45;8193&#45;efb455d25688 -->
<g id="edge5" class="edge">
<title>c652a950&#45;72bc&#45;4e85&#45;92fd&#45;28baa6dd9769&#45;&gt;28c97688&#45;65f7&#45;4135&#45;8193&#45;efb455d25688</title>
<path fill="none" stroke="black" stroke-dasharray="5,2" d="M888.5,-72.72C888.5,-64.27 888.5,-54.89 888.5,-46.36"/>
<polygon fill="black" stroke="black" points="892,-46.15 888.5,-36.15 885,-46.15 892,-46.15"/>
</g>
<!-- cac8c6af&#45;6f5e&#45;4542&#45;8491&#45;272e45274c39&#45;&gt;end -->
<g id="edge9" class="edge">
<title>cac8c6af&#45;6f5e&#45;4542&#45;8491&#45;272e45274c39&#45;&gt;end</title>
<path fill="none" stroke="black" d="M1316.56,-99.87C1335.99,-99.87 1353.24,-99.87 1363.76,-99.87"/>
<polygon fill="black" stroke="black" points="1363.83,-103.37 1373.83,-99.87 1363.83,-96.37 1363.83,-103.37"/>
<text text-anchor="middle" x="1345.23" y="-106.67" font-family="Helvetica,sans-Serif" font-size="14.00">Finish</text>
</g>
<!-- a147e4c2&#45;d0a8&#45;42d0&#45;b20e&#45;7f810b50ab28 -->
<g id="node10" class="node">
<title>a147e4c2&#45;d0a8&#45;42d0&#45;b20e&#45;7f810b50ab28</title>
<polygon fill="white" stroke="black" points="1433.5,-36 1077.5,-36 1077.5,0 1433.5,0 1433.5,-36"/>
<text text-anchor="middle" x="1255.5" y="-14.3" font-family="Helvetica,sans-Serif" font-size="14.00">▶ Run GitHub Actions for `tk.egg&#45;info/PKG&#45;INFO`</text>
</g>
<!-- cac8c6af&#45;6f5e&#45;4542&#45;8491&#45;272e45274c39&#45;&gt;a147e4c2&#45;d0a8&#45;42d0&#45;b20e&#45;7f810b50ab28 -->
<g id="edge7" class="edge">
<title>cac8c6af&#45;6f5e&#45;4542&#45;8491&#45;272e45274c39&#45;&gt;a147e4c2&#45;d0a8&#45;42d0&#45;b20e&#45;7f810b50ab28</title>
<path fill="none" stroke="black" stroke-dasharray="5,2" d="M1218.21,-73.16C1224.49,-64.04 1231.55,-53.77 1237.83,-44.65"/>
<polygon fill="black" stroke="black" points="1240.77,-46.56 1243.56,-36.34 1235.01,-42.59 1240.77,-46.56"/>
</g>
</g>
</svg>
