<?xml version="1.0" encoding="UTF-8" standalone="no"?>
<!DOCTYPE svg PUBLIC "-//W3C//DTD SVG 1.1//EN"
 "http://www.w3.org/Graphics/SVG/1.1/DTD/svg11.dtd">
<!-- Generated by graphviz version 2.43.0 (0)
 -->
<!-- Title: %3 Pages: 1 -->
<svg width="1372pt" height="238pt"
 viewBox="0.00 0.00 1371.50 237.74" xmlns="http://www.w3.org/2000/svg" xmlns:xlink="http://www.w3.org/1999/xlink">
<g id="graph0" class="graph" transform="scale(1 1) rotate(0) translate(36 201.74)">
<title>%3</title>
<polygon fill="dimgray" stroke="transparent" points="-36,36 -36,-201.74 1335.5,-201.74 1335.5,36 -36,36"/>
<text text-anchor="middle" x="649.75" y="-150.54" font-family="Helvetica,sans-Serif" font-size="14.00">Sweep&#39;s Plan &amp; Progress</text>
<!-- start -->
<g id="node1" class="node">
<title>start</title>
</g>
<!-- 087d8863&#45;fff0&#45;4dcd&#45;84f1&#45;f85f1cc8954b -->
<g id="node3" class="node">
<title>087d8863&#45;fff0&#45;4dcd&#45;84f1&#45;f85f1cc8954b</title>
<ellipse fill="#0ee832" stroke="black" cx="303" cy="-99.87" rx="247.47" ry="26.74"/>
<text text-anchor="middle" x="303" y="-103.67" font-family="Helvetica,sans-Serif" font-size="14.00">✓ Create</text>
<text text-anchor="middle" x="303" y="-88.67" font-family="Helvetica,sans-Serif" font-size="14.00">env/lib/python3.10/site&#45;packages/ai_features.py</text>
</g>
<!-- start&#45;&gt;087d8863&#45;fff0&#45;4dcd&#45;84f1&#45;f85f1cc8954b -->
<g id="edge6" class="edge">
<title>start&#45;&gt;087d8863&#45;fff0&#45;4dcd&#45;84f1&#45;f85f1cc8954b</title>
<path fill="none" stroke="black" d="M4.86,-99.87C8.53,-99.87 23.72,-99.87 45.45,-99.87"/>
<polygon fill="black" stroke="black" points="45.51,-103.37 55.51,-99.87 45.51,-96.37 45.51,-103.37"/>
<text text-anchor="middle" x="30.01" y="-106.67" font-family="Helvetica,sans-Serif" font-size="14.00">Start</text>
</g>
<!-- end -->
<g id="node2" class="node">
<title>end</title>
</g>
<!-- ed2ae7db&#45;1088&#45;4cf7&#45;8c26&#45;a8e6e46cccdb -->
<g id="node4" class="node">
<title>ed2ae7db&#45;1088&#45;4cf7&#45;8c26&#45;a8e6e46cccdb</title>
<ellipse fill="#0ee832" stroke="black" cx="750" cy="-99.87" rx="130.63" ry="26.74"/>
<text text-anchor="middle" x="750" y="-103.67" font-family="Helvetica,sans-Serif" font-size="14.00">✓ Create</text>
<text text-anchor="middle" x="750" y="-88.67" font-family="Helvetica,sans-Serif" font-size="14.00">tests/test_ai_features.py</text>
</g>
<!-- 087d8863&#45;fff0&#45;4dcd&#45;84f1&#45;f85f1cc8954b&#45;&gt;ed2ae7db&#45;1088&#45;4cf7&#45;8c26&#45;a8e6e46cccdb -->
<g id="edge2" class="edge">
<title>087d8863&#45;fff0&#45;4dcd&#45;84f1&#45;f85f1cc8954b&#45;&gt;ed2ae7db&#45;1088&#45;4cf7&#45;8c26&#45;a8e6e46cccdb</title>
<path fill="none" stroke="black" d="M550.51,-99.87C569.97,-99.87 589.44,-99.87 608.9,-99.87"/>
<polygon fill="black" stroke="black" points="609.08,-103.37 619.08,-99.87 609.08,-96.37 609.08,-103.37"/>
</g>
<!-- cf654b51&#45;982f&#45;4727&#45;9476&#45;57445c3d1029 -->
<g id="node6" class="node">
<title>cf654b51&#45;982f&#45;4727&#45;9476&#45;57445c3d1029</title>
<polygon fill="#0ee832" stroke="black" points="542,-36 0,-36 0,0 542,0 542,-36"/>
<text text-anchor="middle" x="271" y="-14.3" font-family="Helvetica,sans-Serif" font-size="14.00">✓ Run GitHub Actions for `env/lib/python3.10/site&#45;packages/ai_features.py`</text>
</g>
<!-- 087d8863&#45;fff0&#45;4dcd&#45;84f1&#45;f85f1cc8954b&#45;&gt;cf654b51&#45;982f&#45;4727&#45;9476&#45;57445c3d1029 -->
<g id="edge1" class="edge">
<title>087d8863&#45;fff0&#45;4dcd&#45;84f1&#45;f85f1cc8954b&#45;&gt;cf654b51&#45;982f&#45;4727&#45;9476&#45;57445c3d1029</title>
<path fill="none" stroke="black" stroke-dasharray="5,2" d="M292.52,-72.72C289.03,-63.99 285.13,-54.26 281.62,-45.51"/>
<polygon fill="black" stroke="black" points="284.84,-44.13 277.87,-36.15 278.34,-46.73 284.84,-44.13"/>
</g>
<!-- c52ce537&#45;41b5&#45;4415&#45;8d50&#45;31ce5d999104 -->
<g id="node5" class="node">
<title>c52ce537&#45;41b5&#45;4415&#45;8d50&#45;31ce5d999104</title>
<ellipse fill="white" stroke="black" cx="1076" cy="-99.87" rx="105.22" ry="26.74"/>
<text text-anchor="middle" x="1076" y="-103.67" font-family="Helvetica,sans-Serif" font-size="14.00">▶ Modify</text>
<text text-anchor="middle" x="1076" y="-88.67" font-family="Helvetica,sans-Serif" font-size="14.00">Documentation.md</text>
</g>
<!-- ed2ae7db&#45;1088&#45;4cf7&#45;8c26&#45;a8e6e46cccdb&#45;&gt;c52ce537&#45;41b5&#45;4415&#45;8d50&#45;31ce5d999104 -->
<g id="edge4" class="edge">
<title>ed2ae7db&#45;1088&#45;4cf7&#45;8c26&#45;a8e6e46cccdb&#45;&gt;c52ce537&#45;41b5&#45;4415&#45;8d50&#45;31ce5d999104</title>
<path fill="none" stroke="black" d="M880.85,-99.87C907.32,-99.87 933.8,-99.87 960.27,-99.87"/>
<polygon fill="black" stroke="black" points="960.42,-103.37 970.42,-99.87 960.42,-96.37 960.42,-103.37"/>
</g>
<!-- eab1cd84&#45;cd90&#45;45dc&#45;b565&#45;fea265fa7aed -->
<g id="node7" class="node">
<title>eab1cd84&#45;cd90&#45;45dc&#45;b565&#45;fea265fa7aed</title>
<polygon fill="yellow" stroke="black" points="940,-36 560,-36 560,0 940,0 940,-36"/>
<text text-anchor="middle" x="750" y="-14.3" font-family="Helvetica,sans-Serif" font-size="14.00">⋯ Run GitHub Actions for `tests/test_ai_features.py`</text>
</g>
<!-- ed2ae7db&#45;1088&#45;4cf7&#45;8c26&#45;a8e6e46cccdb&#45;&gt;eab1cd84&#45;cd90&#45;45dc&#45;b565&#45;fea265fa7aed -->
<g id="edge3" class="edge">
<title>ed2ae7db&#45;1088&#45;4cf7&#45;8c26&#45;a8e6e46cccdb&#45;&gt;eab1cd84&#45;cd90&#45;45dc&#45;b565&#45;fea265fa7aed</title>
<path fill="none" stroke="black" stroke-dasharray="5,2" d="M750,-72.72C750,-64.27 750,-54.89 750,-46.36"/>
<polygon fill="black" stroke="black" points="753.5,-46.15 750,-36.15 746.5,-46.15 753.5,-46.15"/>
</g>
<!-- c52ce537&#45;41b5&#45;4415&#45;8d50&#45;31ce5d999104&#45;&gt;end -->
<g id="edge7" class="edge">
<title>c52ce537&#45;41b5&#45;4415&#45;8d50&#45;31ce5d999104&#45;&gt;end</title>
<path fill="none" stroke="black" d="M1181.53,-99.87C1200.61,-99.87 1217.76,-99.87 1228.26,-99.87"/>
<polygon fill="black" stroke="black" points="1228.33,-103.37 1238.33,-99.87 1228.33,-96.37 1228.33,-103.37"/>
<text text-anchor="middle" x="1209.93" y="-106.67" font-family="Helvetica,sans-Serif" font-size="14.00">Finish</text>
</g>
<!-- 2dca9f05&#45;6da3&#45;4d5f&#45;a6a7&#45;800f0c73c1ef -->
<g id="node8" class="node">
<title>2dca9f05&#45;6da3&#45;4d5f&#45;a6a7&#45;800f0c73c1ef</title>
<polygon fill="white" stroke="black" points="1299.5,-36 958.5,-36 958.5,0 1299.5,0 1299.5,-36"/>
<text text-anchor="middle" x="1129" y="-14.3" font-family="Helvetica,sans-Serif" font-size="14.00">▶ Run GitHub Actions for `Documentation.md`</text>
</g>
<!-- c52ce537&#45;41b5&#45;4415&#45;8d50&#45;31ce5d999104&#45;&gt;2dca9f05&#45;6da3&#45;4d5f&#45;a6a7&#45;800f0c73c1ef -->
<g id="edge5" class="edge">
<title>c52ce537&#45;41b5&#45;4415&#45;8d50&#45;31ce5d999104&#45;&gt;2dca9f05&#45;6da3&#45;4d5f&#45;a6a7&#45;800f0c73c1ef</title>
<path fill="none" stroke="black" stroke-dasharray="5,2" d="M1093.06,-73.16C1099.05,-64.13 1105.79,-53.98 1111.79,-44.94"/>
<polygon fill="black" stroke="black" points="1114.88,-46.6 1117.5,-36.34 1109.05,-42.73 1114.88,-46.6"/>
</g>
</g>
</svg>
