<?xml version="1.0" encoding="UTF-8" standalone="no"?>
<!DOCTYPE svg PUBLIC "-//W3C//DTD SVG 1.1//EN"
 "http://www.w3.org/Graphics/SVG/1.1/DTD/svg11.dtd">
<!-- Generated by graphviz version 2.43.0 (0)
 -->
<!-- Title: %3 Pages: 1 -->
<svg width="581pt" height="165pt"
 viewBox="0.00 0.00 581.00 164.74" xmlns="http://www.w3.org/2000/svg" xmlns:xlink="http://www.w3.org/1999/xlink">
<g id="graph0" class="graph" transform="scale(1 1) rotate(0) translate(36 128.74)">
<title>%3</title>
<polygon fill="dimgray" stroke="transparent" points="-36,36 -36,-128.74 545,-128.74 545,36 -36,36"/>
<text text-anchor="middle" x="254.5" y="-77.54" font-family="Helvetica,sans-Serif" font-size="14.00">Sweep&#39;s Plan &amp; Progress</text>
<!-- start -->
<g id="node1" class="node">
<title>start</title>
</g>
<!-- bdec3a41&#45;9716&#45;4af2&#45;b4f7&#45;c355b9decb12 -->
<g id="node3" class="node">
<title>bdec3a41&#45;9716&#45;4af2&#45;b4f7&#45;c355b9decb12</title>
<ellipse fill="#0ee832" stroke="black" cx="144.5" cy="-26.87" rx="91.85" ry="26.74"/>
<text text-anchor="middle" x="144.5" y="-30.67" font-family="Helvetica,sans-Serif" font-size="14.00">✓ Modify</text>
<text text-anchor="middle" x="144.5" y="-15.67" font-family="Helvetica,sans-Serif" font-size="14.00">test_backend.py</text>
</g>
<!-- start&#45;&gt;bdec3a41&#45;9716&#45;4af2&#45;b4f7&#45;c355b9decb12 -->
<g id="edge2" class="edge">
<title>start&#45;&gt;bdec3a41&#45;9716&#45;4af2&#45;b4f7&#45;c355b9decb12</title>
<path fill="none" stroke="black" d="M1.14,-26.87C4.56,-26.87 21.22,-26.87 42.06,-26.87"/>
<polygon fill="black" stroke="black" points="42.24,-30.37 52.24,-26.87 42.24,-23.37 42.24,-30.37"/>
<text text-anchor="middle" x="26.79" y="-33.67" font-family="Helvetica,sans-Serif" font-size="14.00">Start</text>
</g>
<!-- end -->
<g id="node2" class="node">
<title>end</title>
</g>
<!-- 5afeae3f&#45;60b7&#45;4c9f&#45;946a&#45;4ccdc1e2b9d0 -->
<g id="node4" class="node">
<title>5afeae3f&#45;60b7&#45;4c9f&#45;946a&#45;4ccdc1e2b9d0</title>
<ellipse fill="#0ee832" stroke="black" cx="361.5" cy="-26.87" rx="89.19" ry="26.74"/>
<text text-anchor="middle" x="361.5" y="-30.67" font-family="Helvetica,sans-Serif" font-size="14.00">✓ Modify</text>
<text text-anchor="middle" x="361.5" y="-15.67" font-family="Helvetica,sans-Serif" font-size="14.00">test_frontend.ts</text>
</g>
<!-- bdec3a41&#45;9716&#45;4af2&#45;b4f7&#45;c355b9decb12&#45;&gt;5afeae3f&#45;60b7&#45;4c9f&#45;946a&#45;4ccdc1e2b9d0 -->
<g id="edge1" class="edge">
<title>bdec3a41&#45;9716&#45;4af2&#45;b4f7&#45;c355b9decb12&#45;&gt;5afeae3f&#45;60b7&#45;4c9f&#45;946a&#45;4ccdc1e2b9d0</title>
<path fill="none" stroke="black" d="M236.47,-26.87C245.01,-26.87 253.55,-26.87 262.1,-26.87"/>
<polygon fill="black" stroke="black" points="262.12,-30.37 272.12,-26.87 262.12,-23.37 262.12,-30.37"/>
</g>
<!-- 5afeae3f&#45;60b7&#45;4c9f&#45;946a&#45;4ccdc1e2b9d0&#45;&gt;end -->
<g id="edge3" class="edge">
<title>5afeae3f&#45;60b7&#45;4c9f&#45;946a&#45;4ccdc1e2b9d0&#45;&gt;end</title>
<path fill="none" stroke="black" d="M450.82,-26.87C469.57,-26.87 486.87,-26.87 497.53,-26.87"/>
<polygon fill="black" stroke="black" points="497.81,-30.37 507.81,-26.87 497.81,-23.37 497.81,-30.37"/>
<text text-anchor="middle" x="479.3" y="-33.67" font-family="Helvetica,sans-Serif" font-size="14.00">Finish</text>
</g>
</g>
</svg>
