<?xml version="1.0" encoding="UTF-8" standalone="no"?>
<!DOCTYPE svg PUBLIC "-//W3C//DTD SVG 1.1//EN"
 "http://www.w3.org/Graphics/SVG/1.1/DTD/svg11.dtd">
<!-- Generated by graphviz version 2.43.0 (0)
 -->
<!-- Title: %3 Pages: 1 -->
<svg width="742pt" height="165pt"
 viewBox="0.00 0.00 742.00 164.74" xmlns="http://www.w3.org/2000/svg" xmlns:xlink="http://www.w3.org/1999/xlink">
<g id="graph0" class="graph" transform="scale(1 1) rotate(0) translate(36 128.74)">
<title>%3</title>
<polygon fill="dimgray" stroke="transparent" points="-36,36 -36,-128.74 706,-128.74 706,36 -36,36"/>
<text text-anchor="middle" x="335" y="-77.54" font-family="Helvetica,sans-Serif" font-size="14.00">Sweep&#39;s Plan &amp; Progress</text>
<!-- start -->
<g id="node1" class="node">
<title>start</title>
</g>
<!-- a4a7338c&#45;8221&#45;4853&#45;8d74&#45;7186683c7bf3 -->
<g id="node3" class="node">
<title>a4a7338c&#45;8221&#45;4853&#45;8d74&#45;7186683c7bf3</title>
<ellipse fill="yellow" stroke="black" cx="115.5" cy="-26.87" rx="62.87" ry="26.74"/>
<text text-anchor="middle" x="115.5" y="-30.67" font-family="Helvetica,sans-Serif" font-size="14.00">⋯ Modify</text>
<text text-anchor="middle" x="115.5" y="-15.67" font-family="Helvetica,sans-Serif" font-size="14.00">models.py</text>
</g>
<!-- start&#45;&gt;a4a7338c&#45;8221&#45;4853&#45;8d74&#45;7186683c7bf3 -->
<g id="edge3" class="edge">
<title>start&#45;&gt;a4a7338c&#45;8221&#45;4853&#45;8d74&#45;7186683c7bf3</title>
<path fill="none" stroke="black" d="M1.23,-26.87C4.95,-26.87 22.29,-26.87 42.38,-26.87"/>
<polygon fill="black" stroke="black" points="42.42,-30.37 52.42,-26.87 42.42,-23.37 42.42,-30.37"/>
<text text-anchor="middle" x="26.78" y="-33.67" font-family="Helvetica,sans-Serif" font-size="14.00">Start</text>
</g>
<!-- end -->
<g id="node2" class="node">
<title>end</title>
</g>
<!-- b2ceb49b&#45;1c20&#45;420a&#45;864c&#45;a6f8322080a7 -->
<g id="node4" class="node">
<title>b2ceb49b&#45;1c20&#45;420a&#45;864c&#45;a6f8322080a7</title>
<ellipse fill="white" stroke="black" cx="305.5" cy="-26.87" rx="91.85" ry="26.74"/>
<text text-anchor="middle" x="305.5" y="-30.67" font-family="Helvetica,sans-Serif" font-size="14.00">▶ Modify</text>
<text text-anchor="middle" x="305.5" y="-15.67" font-family="Helvetica,sans-Serif" font-size="14.00">test_backend.py</text>
</g>
<!-- a4a7338c&#45;8221&#45;4853&#45;8d74&#45;7186683c7bf3&#45;&gt;b2ceb49b&#45;1c20&#45;420a&#45;864c&#45;a6f8322080a7 -->
<g id="edge1" class="edge">
<title>a4a7338c&#45;8221&#45;4853&#45;8d74&#45;7186683c7bf3&#45;&gt;b2ceb49b&#45;1c20&#45;420a&#45;864c&#45;a6f8322080a7</title>
<path fill="none" stroke="black" d="M178.59,-26.87C186.81,-26.87 195.03,-26.87 203.26,-26.87"/>
<polygon fill="black" stroke="black" points="203.29,-30.37 213.29,-26.87 203.29,-23.37 203.29,-30.37"/>
</g>
<!-- 13f06983&#45;2c84&#45;4e80&#45;8219&#45;22102ada767e -->
<g id="node5" class="node">
<title>13f06983&#45;2c84&#45;4e80&#45;8219&#45;22102ada767e</title>
<ellipse fill="white" stroke="black" cx="522.5" cy="-26.87" rx="89.19" ry="26.74"/>
<text text-anchor="middle" x="522.5" y="-30.67" font-family="Helvetica,sans-Serif" font-size="14.00">▶ Modify</text>
<text text-anchor="middle" x="522.5" y="-15.67" font-family="Helvetica,sans-Serif" font-size="14.00">test_frontend.ts</text>
</g>
<!-- b2ceb49b&#45;1c20&#45;420a&#45;864c&#45;a6f8322080a7&#45;&gt;13f06983&#45;2c84&#45;4e80&#45;8219&#45;22102ada767e -->
<g id="edge2" class="edge">
<title>b2ceb49b&#45;1c20&#45;420a&#45;864c&#45;a6f8322080a7&#45;&gt;13f06983&#45;2c84&#45;4e80&#45;8219&#45;22102ada767e</title>
<path fill="none" stroke="black" d="M397.47,-26.87C406.01,-26.87 414.55,-26.87 423.1,-26.87"/>
<polygon fill="black" stroke="black" points="423.12,-30.37 433.12,-26.87 423.12,-23.37 423.12,-30.37"/>
</g>
<!-- 13f06983&#45;2c84&#45;4e80&#45;8219&#45;22102ada767e&#45;&gt;end -->
<g id="edge4" class="edge">
<title>13f06983&#45;2c84&#45;4e80&#45;8219&#45;22102ada767e&#45;&gt;end</title>
<path fill="none" stroke="black" d="M611.82,-26.87C630.57,-26.87 647.87,-26.87 658.53,-26.87"/>
<polygon fill="black" stroke="black" points="658.81,-30.37 668.81,-26.87 658.81,-23.37 658.81,-30.37"/>
<text text-anchor="middle" x="640.3" y="-33.67" font-family="Helvetica,sans-Serif" font-size="14.00">Finish</text>
</g>
</g>
</svg>
