<?xml version="1.0" encoding="UTF-8" standalone="no"?>
<!DOCTYPE svg PUBLIC "-//W3C//DTD SVG 1.1//EN"
 "http://www.w3.org/Graphics/SVG/1.1/DTD/svg11.dtd">
<!-- Generated by graphviz version 2.43.0 (0)
 -->
<!-- Title: %3 Pages: 1 -->
<svg width="357pt" height="165pt"
 viewBox="0.00 0.00 357.00 164.74" xmlns="http://www.w3.org/2000/svg" xmlns:xlink="http://www.w3.org/1999/xlink">
<g id="graph0" class="graph" transform="scale(1 1) rotate(0) translate(36 128.74)">
<title>%3</title>
<polygon fill="dimgray" stroke="transparent" points="-36,36 -36,-128.74 321,-128.74 321,36 -36,36"/>
<text text-anchor="middle" x="142.5" y="-77.54" font-family="Helvetica,sans-Serif" font-size="14.00">Sweep&#39;s Plan &amp; Progress</text>
<!-- start -->
<g id="node1" class="node">
<title>start</title>
</g>
<!-- 2189db94&#45;a56b&#45;433f&#45;95c2&#45;05bb6663882a -->
<g id="node3" class="node">
<title>2189db94&#45;a56b&#45;433f&#45;95c2&#45;05bb6663882a</title>
<ellipse fill="yellow" stroke="black" cx="139.5" cy="-26.87" rx="86.95" ry="26.74"/>
<text text-anchor="middle" x="139.5" y="-30.67" font-family="Helvetica,sans-Serif" font-size="14.00">⋯ Create</text>
<text text-anchor="middle" x="139.5" y="-15.67" font-family="Helvetica,sans-Serif" font-size="14.00">new_feature.py</text>
</g>
<!-- start&#45;&gt;2189db94&#45;a56b&#45;433f&#45;95c2&#45;05bb6663882a -->
<g id="edge1" class="edge">
<title>start&#45;&gt;2189db94&#45;a56b&#45;433f&#45;95c2&#45;05bb6663882a</title>
<path fill="none" stroke="black" d="M1.39,-26.87C5.3,-26.87 21.73,-26.87 41.96,-26.87"/>
<polygon fill="black" stroke="black" points="42.17,-30.37 52.17,-26.87 42.17,-23.37 42.17,-30.37"/>
<text text-anchor="middle" x="26.76" y="-33.67" font-family="Helvetica,sans-Serif" font-size="14.00">Start</text>
</g>
<!-- end -->
<g id="node2" class="node">
<title>end</title>
</g>
<!-- 2189db94&#45;a56b&#45;433f&#45;95c2&#45;05bb6663882a&#45;&gt;end -->
<g id="edge2" class="edge">
<title>2189db94&#45;a56b&#45;433f&#45;95c2&#45;05bb6663882a&#45;&gt;end</title>
<path fill="none" stroke="black" d="M226.78,-26.87C245.47,-26.87 262.8,-26.87 273.5,-26.87"/>
<polygon fill="black" stroke="black" points="273.81,-30.37 283.81,-26.87 273.81,-23.37 273.81,-30.37"/>
<text text-anchor="middle" x="255.24" y="-33.67" font-family="Helvetica,sans-Serif" font-size="14.00">Finish</text>
</g>
</g>
</svg>
