<?xml version="1.0" encoding="UTF-8" standalone="no"?>
<!DOCTYPE svg PUBLIC "-//W3C//DTD SVG 1.1//EN"
 "http://www.w3.org/Graphics/SVG/1.1/DTD/svg11.dtd">
<!-- Generated by graphviz version 2.43.0 (0)
 -->
<!-- Title: %3 Pages: 1 -->
<svg width="1430pt" height="238pt"
 viewBox="0.00 0.00 1430.00 237.74" xmlns="http://www.w3.org/2000/svg" xmlns:xlink="http://www.w3.org/1999/xlink">
<g id="graph0" class="graph" transform="scale(1 1) rotate(0) translate(36 201.74)">
<title>%3</title>
<polygon fill="dimgray" stroke="transparent" points="-36,36 -36,-201.74 1394,-201.74 1394,36 -36,36"/>
<text text-anchor="middle" x="679" y="-150.54" font-family="Helvetica,sans-Serif" font-size="14.00">Sweep&#39;s Plan &amp; Progress</text>
<!-- start -->
<g id="node1" class="node">
<title>start</title>
</g>
<!-- 54f5a927&#45;e884&#45;4eec&#45;a4ca&#45;b42a42ecce68 -->
<g id="node3" class="node">
<title>54f5a927&#45;e884&#45;4eec&#45;a4ca&#45;b42a42ecce68</title>
<ellipse fill="#ee0000" stroke="black" cx="354.5" cy="-99.87" rx="301.87" ry="26.74"/>
<text text-anchor="middle" x="354.5" y="-103.67" font-family="Helvetica,sans-Serif" font-size="14.00">✗ Modify</text>
<text text-anchor="middle" x="354.5" y="-88.67" font-family="Helvetica,sans-Serif" font-size="14.00">env/lib/python3.10/site&#45;packages/pkg_resources/__init__.py</text>
</g>
<!-- start&#45;&gt;54f5a927&#45;e884&#45;4eec&#45;a4ca&#45;b42a42ecce68 -->
<g id="edge4" class="edge">
<title>start&#45;&gt;54f5a927&#45;e884&#45;4eec&#45;a4ca&#45;b42a42ecce68</title>
<path fill="none" stroke="black" d="M1.07,-99.87C4.16,-99.87 19.45,-99.87 42.09,-99.87"/>
<polygon fill="black" stroke="black" points="42.22,-103.37 52.22,-99.87 42.22,-96.37 42.22,-103.37"/>
<text text-anchor="middle" x="26.78" y="-106.67" font-family="Helvetica,sans-Serif" font-size="14.00">Start</text>
</g>
<!-- end -->
<g id="node2" class="node">
<title>end</title>
</g>
<!-- 2e6bbd0f&#45;d7cc&#45;4842&#45;98c4&#45;c6ef20b2fea4 -->
<g id="node4" class="node">
<title>2e6bbd0f&#45;d7cc&#45;4842&#45;98c4&#45;c6ef20b2fea4</title>
<ellipse fill="white" stroke="black" cx="995.5" cy="-99.87" rx="304.11" ry="26.74"/>
<text text-anchor="middle" x="995.5" y="-103.67" font-family="Helvetica,sans-Serif" font-size="14.00">▶ Create</text>
<text text-anchor="middle" x="995.5" y="-88.67" font-family="Helvetica,sans-Serif" font-size="14.00">env/lib/python3.10/site&#45;packages/pip/_vendor/pyparsing.py</text>
</g>
<!-- 54f5a927&#45;e884&#45;4eec&#45;a4ca&#45;b42a42ecce68&#45;&gt;2e6bbd0f&#45;d7cc&#45;4842&#45;98c4&#45;c6ef20b2fea4 -->
<g id="edge2" class="edge">
<title>54f5a927&#45;e884&#45;4eec&#45;a4ca&#45;b42a42ecce68&#45;&gt;2e6bbd0f&#45;d7cc&#45;4842&#45;98c4&#45;c6ef20b2fea4</title>
<path fill="none" stroke="black" d="M656.53,-99.87C664.77,-99.87 673.01,-99.87 681.24,-99.87"/>
<polygon fill="black" stroke="black" points="681.29,-103.37 691.29,-99.87 681.29,-96.37 681.29,-103.37"/>
</g>
<!-- 0c7479a9&#45;1867&#45;4f53&#45;b516&#45;51d286b7d175 -->
<g id="node5" class="node">
<title>0c7479a9&#45;1867&#45;4f53&#45;b516&#45;51d286b7d175</title>
<polygon fill="#ee0000" stroke="black" points="664.5,-36 44.5,-36 44.5,0 664.5,0 664.5,-36"/>
<text text-anchor="middle" x="354.5" y="-14.3" font-family="Helvetica,sans-Serif" font-size="14.00">✗ Run GitHub Actions for `env/lib/python3.10/site&#45;packages/pkg_resources/__init__.py`</text>
</g>
<!-- 54f5a927&#45;e884&#45;4eec&#45;a4ca&#45;b42a42ecce68&#45;&gt;0c7479a9&#45;1867&#45;4f53&#45;b516&#45;51d286b7d175 -->
<g id="edge1" class="edge">
<title>54f5a927&#45;e884&#45;4eec&#45;a4ca&#45;b42a42ecce68&#45;&gt;0c7479a9&#45;1867&#45;4f53&#45;b516&#45;51d286b7d175</title>
<path fill="none" stroke="black" stroke-dasharray="5,2" d="M354.5,-72.72C354.5,-64.27 354.5,-54.89 354.5,-46.36"/>
<polygon fill="black" stroke="black" points="358,-46.15 354.5,-36.15 351,-46.15 358,-46.15"/>
</g>
<!-- 2e6bbd0f&#45;d7cc&#45;4842&#45;98c4&#45;c6ef20b2fea4&#45;&gt;end -->
<g id="edge5" class="edge">
<title>2e6bbd0f&#45;d7cc&#45;4842&#45;98c4&#45;c6ef20b2fea4&#45;&gt;end</title>
<path fill="none" stroke="black" d="M1299.74,-99.87C1320.32,-99.87 1336.85,-99.87 1346.87,-99.87"/>
<polygon fill="black" stroke="black" points="1346.9,-103.37 1356.9,-99.87 1346.9,-96.37 1346.9,-103.37"/>
<text text-anchor="middle" x="1328.28" y="-106.67" font-family="Helvetica,sans-Serif" font-size="14.00">Finish</text>
</g>
<!-- bf6d1660&#45;b006&#45;4977&#45;85ee&#45;3cf1a9b129f7 -->
<g id="node6" class="node">
<title>bf6d1660&#45;b006&#45;4977&#45;85ee&#45;3cf1a9b129f7</title>
<polygon fill="white" stroke="black" points="1306,-36 685,-36 685,0 1306,0 1306,-36"/>
<text text-anchor="middle" x="995.5" y="-14.3" font-family="Helvetica,sans-Serif" font-size="14.00">▶ Run GitHub Actions for `env/lib/python3.10/site&#45;packages/pip/_vendor/pyparsing.py`</text>
</g>
<!-- 2e6bbd0f&#45;d7cc&#45;4842&#45;98c4&#45;c6ef20b2fea4&#45;&gt;bf6d1660&#45;b006&#45;4977&#45;85ee&#45;3cf1a9b129f7 -->
<g id="edge3" class="edge">
<title>2e6bbd0f&#45;d7cc&#45;4842&#45;98c4&#45;c6ef20b2fea4&#45;&gt;bf6d1660&#45;b006&#45;4977&#45;85ee&#45;3cf1a9b129f7</title>
<path fill="none" stroke="black" stroke-dasharray="5,2" d="M995.5,-72.72C995.5,-64.27 995.5,-54.89 995.5,-46.36"/>
<polygon fill="black" stroke="black" points="999,-46.15 995.5,-36.15 992,-46.15 999,-46.15"/>
</g>
</g>
</svg>
