<?xml version="1.0" encoding="UTF-8" standalone="no"?>
<!DOCTYPE svg PUBLIC "-//W3C//DTD SVG 1.1//EN"
 "http://www.w3.org/Graphics/SVG/1.1/DTD/svg11.dtd">
<!-- Generated by graphviz version 2.43.0 (0)
 -->
<!-- Title: %3 Pages: 1 -->
<svg width="3166pt" height="238pt"
 viewBox="0.00 0.00 3166.00 237.74" xmlns="http://www.w3.org/2000/svg" xmlns:xlink="http://www.w3.org/1999/xlink">
<g id="graph0" class="graph" transform="scale(1 1) rotate(0) translate(36 201.74)">
<title>%3</title>
<polygon fill="dimgray" stroke="transparent" points="-36,36 -36,-201.74 3130,-201.74 3130,36 -36,36"/>
<text text-anchor="middle" x="1547" y="-150.54" font-family="Helvetica,sans-Serif" font-size="14.00">Sweep&#39;s Plan &amp; Progress</text>
<!-- start -->
<g id="node1" class="node">
<title>start</title>
</g>
<!-- 183527c8&#45;902a&#45;4000&#45;b626&#45;89d10e76a860 -->
<g id="node3" class="node">
<title>183527c8&#45;902a&#45;4000&#45;b626&#45;89d10e76a860</title>
<ellipse fill="#0ee832" stroke="black" cx="402.5" cy="-99.87" rx="350.04" ry="26.74"/>
<text text-anchor="middle" x="402.5" y="-103.67" font-family="Helvetica,sans-Serif" font-size="14.00">✓ Modify</text>
<text text-anchor="middle" x="402.5" y="-88.67" font-family="Helvetica,sans-Serif" font-size="14.00">env/lib/python3.10/site&#45;packages/pip/_internal/operations/prepare.py</text>
</g>
<!-- start&#45;&gt;183527c8&#45;902a&#45;4000&#45;b626&#45;89d10e76a860 -->
<g id="edge8" class="edge">
<title>start&#45;&gt;183527c8&#45;902a&#45;4000&#45;b626&#45;89d10e76a860</title>
<path fill="none" stroke="black" d="M1.15,-99.87C4.39,-99.87 19.51,-99.87 42.12,-99.87"/>
<polygon fill="black" stroke="black" points="42.25,-103.37 52.25,-99.87 42.25,-96.37 42.25,-103.37"/>
<text text-anchor="middle" x="26.74" y="-106.67" font-family="Helvetica,sans-Serif" font-size="14.00">Start</text>
</g>
<!-- end -->
<g id="node2" class="node">
<title>end</title>
</g>
<!-- b25b11bb&#45;e360&#45;4ed7&#45;8355&#45;bddd5281b32d -->
<g id="node4" class="node">
<title>b25b11bb&#45;e360&#45;4ed7&#45;8355&#45;bddd5281b32d</title>
<ellipse fill="white" stroke="black" cx="1150.5" cy="-99.87" rx="362.99" ry="26.74"/>
<text text-anchor="middle" x="1150.5" y="-103.67" font-family="Helvetica,sans-Serif" font-size="14.00">▶ Create</text>
<text text-anchor="middle" x="1150.5" y="-88.67" font-family="Helvetica,sans-Serif" font-size="14.00">env/lib64/python3.10/site&#45;packages/pip/_internal/operations/prepare.py</text>
</g>
<!-- 183527c8&#45;902a&#45;4000&#45;b626&#45;89d10e76a860&#45;&gt;b25b11bb&#45;e360&#45;4ed7&#45;8355&#45;bddd5281b32d -->
<g id="edge2" class="edge">
<title>183527c8&#45;902a&#45;4000&#45;b626&#45;89d10e76a860&#45;&gt;b25b11bb&#45;e360&#45;4ed7&#45;8355&#45;bddd5281b32d</title>
<path fill="none" stroke="black" d="M752.76,-99.87C761.04,-99.87 769.33,-99.87 777.61,-99.87"/>
<polygon fill="black" stroke="black" points="777.72,-103.37 787.72,-99.87 777.72,-96.37 777.72,-103.37"/>
</g>
<!-- 0bce99d9&#45;6aae&#45;4d72&#45;8324&#45;ee6252057edd -->
<g id="node7" class="node">
<title>0bce99d9&#45;6aae&#45;4d72&#45;8324&#45;ee6252057edd</title>
<polygon fill="yellow" stroke="black" points="747.5,-36 57.5,-36 57.5,0 747.5,0 747.5,-36"/>
<text text-anchor="middle" x="402.5" y="-14.3" font-family="Helvetica,sans-Serif" font-size="14.00">⋯ Run GitHub Actions for `env/lib/python3.10/site&#45;packages/pip/_internal/operations/prepare.py`</text>
</g>
<!-- 183527c8&#45;902a&#45;4000&#45;b626&#45;89d10e76a860&#45;&gt;0bce99d9&#45;6aae&#45;4d72&#45;8324&#45;ee6252057edd -->
<g id="edge1" class="edge">
<title>183527c8&#45;902a&#45;4000&#45;b626&#45;89d10e76a860&#45;&gt;0bce99d9&#45;6aae&#45;4d72&#45;8324&#45;ee6252057edd</title>
<path fill="none" stroke="black" stroke-dasharray="5,2" d="M402.5,-72.72C402.5,-64.27 402.5,-54.89 402.5,-46.36"/>
<polygon fill="black" stroke="black" points="406,-46.15 402.5,-36.15 399,-46.15 406,-46.15"/>
</g>
<!-- 521c5b45&#45;4544&#45;46aa&#45;b684&#45;912f09063ed1 -->
<g id="node5" class="node">
<title>521c5b45&#45;4544&#45;46aa&#45;b684&#45;912f09063ed1</title>
<ellipse fill="white" stroke="black" cx="1905.5" cy="-99.87" rx="356.26" ry="26.74"/>
<text text-anchor="middle" x="1905.5" y="-103.67" font-family="Helvetica,sans-Serif" font-size="14.00">▶ Modify</text>
<text text-anchor="middle" x="1905.5" y="-88.67" font-family="Helvetica,sans-Serif" font-size="14.00">env/lib/python3.10/site&#45;packages/setuptools/command/easy_install.py</text>
</g>
<!-- b25b11bb&#45;e360&#45;4ed7&#45;8355&#45;bddd5281b32d&#45;&gt;521c5b45&#45;4544&#45;46aa&#45;b684&#45;912f09063ed1 -->
<g id="edge4" class="edge">
<title>b25b11bb&#45;e360&#45;4ed7&#45;8355&#45;bddd5281b32d&#45;&gt;521c5b45&#45;4544&#45;46aa&#45;b684&#45;912f09063ed1</title>
<path fill="none" stroke="black" d="M1513.25,-99.87C1521.79,-99.87 1530.32,-99.87 1538.86,-99.87"/>
<polygon fill="black" stroke="black" points="1538.88,-103.37 1548.88,-99.87 1538.88,-96.37 1538.88,-103.37"/>
</g>
<!-- c7051105&#45;71ab&#45;4135&#45;b055&#45;dad85482baff -->
<g id="node8" class="node">
<title>c7051105&#45;71ab&#45;4135&#45;b055&#45;dad85482baff</title>
<polygon fill="white" stroke="black" points="1502.5,-36 798.5,-36 798.5,0 1502.5,0 1502.5,-36"/>
<text text-anchor="middle" x="1150.5" y="-14.3" font-family="Helvetica,sans-Serif" font-size="14.00">▶ Run GitHub Actions for `env/lib64/python3.10/site&#45;packages/pip/_internal/operations/prepare.py`</text>
</g>
<!-- b25b11bb&#45;e360&#45;4ed7&#45;8355&#45;bddd5281b32d&#45;&gt;c7051105&#45;71ab&#45;4135&#45;b055&#45;dad85482baff -->
<g id="edge3" class="edge">
<title>b25b11bb&#45;e360&#45;4ed7&#45;8355&#45;bddd5281b32d&#45;&gt;c7051105&#45;71ab&#45;4135&#45;b055&#45;dad85482baff</title>
<path fill="none" stroke="black" stroke-dasharray="5,2" d="M1150.5,-72.72C1150.5,-64.27 1150.5,-54.89 1150.5,-46.36"/>
<polygon fill="black" stroke="black" points="1154,-46.15 1150.5,-36.15 1147,-46.15 1154,-46.15"/>
</g>
<!-- e2dab0ad&#45;20eb&#45;4367&#45;9eca&#45;5232752fd9e7 -->
<g id="node6" class="node">
<title>e2dab0ad&#45;20eb&#45;4367&#45;9eca&#45;5232752fd9e7</title>
<ellipse fill="white" stroke="black" cx="2666.5" cy="-99.87" rx="369.22" ry="26.74"/>
<text text-anchor="middle" x="2666.5" y="-103.67" font-family="Helvetica,sans-Serif" font-size="14.00">▶ Create</text>
<text text-anchor="middle" x="2666.5" y="-88.67" font-family="Helvetica,sans-Serif" font-size="14.00">env/lib64/python3.10/site&#45;packages/setuptools/command/easy_install.py</text>
</g>
<!-- 521c5b45&#45;4544&#45;46aa&#45;b684&#45;912f09063ed1&#45;&gt;e2dab0ad&#45;20eb&#45;4367&#45;9eca&#45;5232752fd9e7 -->
<g id="edge6" class="edge">
<title>521c5b45&#45;4544&#45;46aa&#45;b684&#45;912f09063ed1&#45;&gt;e2dab0ad&#45;20eb&#45;4367&#45;9eca&#45;5232752fd9e7</title>
<path fill="none" stroke="black" d="M2262.22,-99.87C2270.55,-99.87 2278.87,-99.87 2287.2,-99.87"/>
<polygon fill="black" stroke="black" points="2287.36,-103.37 2297.36,-99.87 2287.36,-96.37 2287.36,-103.37"/>
</g>
<!-- c03f583e&#45;fdb9&#45;40b7&#45;9700&#45;99b2a622552a -->
<g id="node9" class="node">
<title>c03f583e&#45;fdb9&#45;40b7&#45;9700&#45;99b2a622552a</title>
<polygon fill="white" stroke="black" points="2253,-36 1558,-36 1558,0 2253,0 2253,-36"/>
<text text-anchor="middle" x="1905.5" y="-14.3" font-family="Helvetica,sans-Serif" font-size="14.00">▶ Run GitHub Actions for `env/lib/python3.10/site&#45;packages/setuptools/command/easy_install.py`</text>
</g>
<!-- 521c5b45&#45;4544&#45;46aa&#45;b684&#45;912f09063ed1&#45;&gt;c03f583e&#45;fdb9&#45;40b7&#45;9700&#45;99b2a622552a -->
<g id="edge5" class="edge">
<title>521c5b45&#45;4544&#45;46aa&#45;b684&#45;912f09063ed1&#45;&gt;c03f583e&#45;fdb9&#45;40b7&#45;9700&#45;99b2a622552a</title>
<path fill="none" stroke="black" stroke-dasharray="5,2" d="M1905.5,-72.72C1905.5,-64.27 1905.5,-54.89 1905.5,-46.36"/>
<polygon fill="black" stroke="black" points="1909,-46.15 1905.5,-36.15 1902,-46.15 1909,-46.15"/>
</g>
<!-- e2dab0ad&#45;20eb&#45;4367&#45;9eca&#45;5232752fd9e7&#45;&gt;end -->
<g id="edge9" class="edge">
<title>e2dab0ad&#45;20eb&#45;4367&#45;9eca&#45;5232752fd9e7&#45;&gt;end</title>
<path fill="none" stroke="black" d="M3035.91,-99.87C3056.43,-99.87 3072.72,-99.87 3082.66,-99.87"/>
<polygon fill="black" stroke="black" points="3082.91,-103.37 3092.91,-99.87 3082.91,-96.37 3082.91,-103.37"/>
<text text-anchor="middle" x="3064.3" y="-106.67" font-family="Helvetica,sans-Serif" font-size="14.00">Finish</text>
</g>
<!-- b75f379e&#45;7f03&#45;447a&#45;9475&#45;0f27f49e82eb -->
<g id="node10" class="node">
<title>b75f379e&#45;7f03&#45;447a&#45;9475&#45;0f27f49e82eb</title>
<polygon fill="white" stroke="black" points="3023,-36 2310,-36 2310,0 3023,0 3023,-36"/>
<text text-anchor="middle" x="2666.5" y="-14.3" font-family="Helvetica,sans-Serif" font-size="14.00">▶ Run GitHub Actions for `env/lib64/python3.10/site&#45;packages/setuptools/command/easy_install.py`</text>
</g>
<!-- e2dab0ad&#45;20eb&#45;4367&#45;9eca&#45;5232752fd9e7&#45;&gt;b75f379e&#45;7f03&#45;447a&#45;9475&#45;0f27f49e82eb -->
<g id="edge7" class="edge">
<title>e2dab0ad&#45;20eb&#45;4367&#45;9eca&#45;5232752fd9e7&#45;&gt;b75f379e&#45;7f03&#45;447a&#45;9475&#45;0f27f49e82eb</title>
<path fill="none" stroke="black" stroke-dasharray="5,2" d="M2666.5,-72.72C2666.5,-64.27 2666.5,-54.89 2666.5,-46.36"/>
<polygon fill="black" stroke="black" points="2670,-46.15 2666.5,-36.15 2663,-46.15 2670,-46.15"/>
</g>
</g>
</svg>
