<?xml version="1.0" encoding="UTF-8" standalone="no"?>
<!DOCTYPE svg PUBLIC "-//W3C//DTD SVG 1.1//EN"
 "http://www.w3.org/Graphics/SVG/1.1/DTD/svg11.dtd">
<!-- Generated by graphviz version 2.43.0 (0)
 -->
<!-- Title: %3 Pages: 1 -->
<svg width="1713pt" height="238pt"
 viewBox="0.00 0.00 1712.50 237.74" xmlns="http://www.w3.org/2000/svg" xmlns:xlink="http://www.w3.org/1999/xlink">
<g id="graph0" class="graph" transform="scale(1 1) rotate(0) translate(36 201.74)">
<title>%3</title>
<polygon fill="dimgray" stroke="transparent" points="-36,36 -36,-201.74 1676.5,-201.74 1676.5,36 -36,36"/>
<text text-anchor="middle" x="820.25" y="-150.54" font-family="Helvetica,sans-Serif" font-size="14.00">Sweep&#39;s Plan &amp; Progress</text>
<!-- start -->
<g id="node1" class="node">
<title>start</title>
</g>
<!-- ca32b990&#45;9fb2&#45;412f&#45;b338&#45;8bbddfe23cf2 -->
<g id="node3" class="node">
<title>ca32b990&#45;9fb2&#45;412f&#45;b338&#45;8bbddfe23cf2</title>
<ellipse fill="#0ee832" stroke="black" cx="353.5" cy="-99.87" rx="300.54" ry="26.74"/>
<text text-anchor="middle" x="353.5" y="-103.67" font-family="Helvetica,sans-Serif" font-size="14.00">✓ Create</text>
<text text-anchor="middle" x="353.5" y="-88.67" font-family="Helvetica,sans-Serif" font-size="14.00">env/lib/python3.10/site&#45;packages/sweep_code_improver.py</text>
</g>
<!-- start&#45;&gt;ca32b990&#45;9fb2&#45;412f&#45;b338&#45;8bbddfe23cf2 -->
<g id="edge6" class="edge">
<title>start&#45;&gt;ca32b990&#45;9fb2&#45;412f&#45;b338&#45;8bbddfe23cf2</title>
<path fill="none" stroke="black" d="M1.07,-99.87C4.17,-99.87 19.67,-99.87 42.57,-99.87"/>
<polygon fill="black" stroke="black" points="42.82,-103.37 52.82,-99.87 42.82,-96.37 42.82,-103.37"/>
<text text-anchor="middle" x="26.99" y="-106.67" font-family="Helvetica,sans-Serif" font-size="14.00">Start</text>
</g>
<!-- end -->
<g id="node2" class="node">
<title>end</title>
</g>
<!-- e42391bc&#45;a5b7&#45;4b1f&#45;812c&#45;bb7c39b3ec1d -->
<g id="node4" class="node">
<title>e42391bc&#45;a5b7&#45;4b1f&#45;812c&#45;bb7c39b3ec1d</title>
<ellipse fill="#0ee832" stroke="black" cx="1007.5" cy="-99.87" rx="318.4" ry="26.74"/>
<text text-anchor="middle" x="1007.5" y="-103.67" font-family="Helvetica,sans-Serif" font-size="14.00">✓ Modify</text>
<text text-anchor="middle" x="1007.5" y="-88.67" font-family="Helvetica,sans-Serif" font-size="14.00">env/lib/python3.10/site&#45;packages/sweep_issues_aggregator.py</text>
</g>
<!-- ca32b990&#45;9fb2&#45;412f&#45;b338&#45;8bbddfe23cf2&#45;&gt;e42391bc&#45;a5b7&#45;4b1f&#45;812c&#45;bb7c39b3ec1d -->
<g id="edge2" class="edge">
<title>ca32b990&#45;9fb2&#45;412f&#45;b338&#45;8bbddfe23cf2&#45;&gt;e42391bc&#45;a5b7&#45;4b1f&#45;812c&#45;bb7c39b3ec1d</title>
<path fill="none" stroke="black" d="M654.31,-99.87C662.57,-99.87 670.83,-99.87 679.08,-99.87"/>
<polygon fill="black" stroke="black" points="679.15,-103.37 689.15,-99.87 679.15,-96.37 679.15,-103.37"/>
</g>
<!-- 84f11fc2&#45;fea2&#45;4217&#45;9aeb&#45;82fc5572aa90 -->
<g id="node6" class="node">
<title>84f11fc2&#45;fea2&#45;4217&#45;9aeb&#45;82fc5572aa90</title>
<polygon fill="#0ee832" stroke="black" points="662.5,-36 44.5,-36 44.5,0 662.5,0 662.5,-36"/>
<text text-anchor="middle" x="353.5" y="-14.3" font-family="Helvetica,sans-Serif" font-size="14.00">✓ Run GitHub Actions for `env/lib/python3.10/site&#45;packages/sweep_code_improver.py`</text>
</g>
<!-- ca32b990&#45;9fb2&#45;412f&#45;b338&#45;8bbddfe23cf2&#45;&gt;84f11fc2&#45;fea2&#45;4217&#45;9aeb&#45;82fc5572aa90 -->
<g id="edge1" class="edge">
<title>ca32b990&#45;9fb2&#45;412f&#45;b338&#45;8bbddfe23cf2&#45;&gt;84f11fc2&#45;fea2&#45;4217&#45;9aeb&#45;82fc5572aa90</title>
<path fill="none" stroke="black" stroke-dasharray="5,2" d="M353.5,-72.72C353.5,-64.27 353.5,-54.89 353.5,-46.36"/>
<polygon fill="black" stroke="black" points="357,-46.15 353.5,-36.15 350,-46.15 357,-46.15"/>
</g>
<!-- b5305150&#45;c0d5&#45;46f1&#45;abec&#45;d8ec3f80b541 -->
<g id="node5" class="node">
<title>b5305150&#45;c0d5&#45;46f1&#45;abec&#45;d8ec3f80b541</title>
<ellipse fill="#0ee832" stroke="black" cx="1463.5" cy="-99.87" rx="73.58" ry="26.74"/>
<text text-anchor="middle" x="1463.5" y="-103.67" font-family="Helvetica,sans-Serif" font-size="14.00">✓ Modify</text>
<text text-anchor="middle" x="1463.5" y="-88.67" font-family="Helvetica,sans-Serif" font-size="14.00">README.md</text>
</g>
<!-- e42391bc&#45;a5b7&#45;4b1f&#45;812c&#45;bb7c39b3ec1d&#45;&gt;b5305150&#45;c0d5&#45;46f1&#45;abec&#45;d8ec3f80b541 -->
<g id="edge4" class="edge">
<title>e42391bc&#45;a5b7&#45;4b1f&#45;812c&#45;bb7c39b3ec1d&#45;&gt;b5305150&#45;c0d5&#45;46f1&#45;abec&#45;d8ec3f80b541</title>
<path fill="none" stroke="black" d="M1325.9,-99.87C1343.72,-99.87 1361.54,-99.87 1379.37,-99.87"/>
<polygon fill="black" stroke="black" points="1379.86,-103.37 1389.86,-99.87 1379.86,-96.37 1379.86,-103.37"/>
</g>
<!-- 2e23d57a&#45;1371&#45;49d8&#45;a766&#45;c4462c8ce22a -->
<g id="node7" class="node">
<title>2e23d57a&#45;1371&#45;49d8&#45;a766&#45;c4462c8ce22a</title>
<polygon fill="#0ee832" stroke="black" points="1326,-36 683,-36 683,0 1326,0 1326,-36"/>
<text text-anchor="middle" x="1004.5" y="-14.3" font-family="Helvetica,sans-Serif" font-size="14.00">✓ Run GitHub Actions for `env/lib/python3.10/site&#45;packages/sweep_issues_aggregator.py`</text>
</g>
<!-- e42391bc&#45;a5b7&#45;4b1f&#45;812c&#45;bb7c39b3ec1d&#45;&gt;2e23d57a&#45;1371&#45;49d8&#45;a766&#45;c4462c8ce22a -->
<g id="edge3" class="edge">
<title>e42391bc&#45;a5b7&#45;4b1f&#45;812c&#45;bb7c39b3ec1d&#45;&gt;2e23d57a&#45;1371&#45;49d8&#45;a766&#45;c4462c8ce22a</title>
<path fill="none" stroke="black" stroke-dasharray="5,2" d="M1006.52,-72.72C1006.2,-64.27 1005.85,-54.89 1005.53,-46.36"/>
<polygon fill="black" stroke="black" points="1009.02,-46.01 1005.14,-36.15 1002.02,-46.27 1009.02,-46.01"/>
</g>
<!-- b5305150&#45;c0d5&#45;46f1&#45;abec&#45;d8ec3f80b541&#45;&gt;end -->
<g id="edge7" class="edge">
<title>b5305150&#45;c0d5&#45;46f1&#45;abec&#45;d8ec3f80b541&#45;&gt;end</title>
<path fill="none" stroke="black" d="M1537.22,-99.87C1555.84,-99.87 1573.64,-99.87 1584.56,-99.87"/>
<polygon fill="black" stroke="black" points="1584.78,-103.37 1594.78,-99.87 1584.78,-96.37 1584.78,-103.37"/>
<text text-anchor="middle" x="1566.02" y="-106.67" font-family="Helvetica,sans-Serif" font-size="14.00">Finish</text>
</g>
<!-- 7dc5ac94&#45;c083&#45;4586&#45;b24e&#45;4d638c9e7285 -->
<g id="node8" class="node">
<title>7dc5ac94&#45;c083&#45;4586&#45;b24e&#45;4d638c9e7285</title>
<polygon fill="#0ee832" stroke="black" points="1640.5,-36 1344.5,-36 1344.5,0 1640.5,0 1640.5,-36"/>
<text text-anchor="middle" x="1492.5" y="-14.3" font-family="Helvetica,sans-Serif" font-size="14.00">✓ Run GitHub Actions for `README.md`</text>
</g>
<!-- b5305150&#45;c0d5&#45;46f1&#45;abec&#45;d8ec3f80b541&#45;&gt;7dc5ac94&#45;c083&#45;4586&#45;b24e&#45;4d638c9e7285 -->
<g id="edge5" class="edge">
<title>b5305150&#45;c0d5&#45;46f1&#45;abec&#45;d8ec3f80b541&#45;&gt;7dc5ac94&#45;c083&#45;4586&#45;b24e&#45;4d638c9e7285</title>
<path fill="none" stroke="black" stroke-dasharray="5,2" d="M1472.84,-73.16C1476.01,-64.41 1479.57,-54.62 1482.77,-45.79"/>
<polygon fill="black" stroke="black" points="1486.08,-46.93 1486.21,-36.34 1479.5,-44.54 1486.08,-46.93"/>
</g>
</g>
</svg>
