<?xml version="1.0" encoding="UTF-8" standalone="no"?>
<!DOCTYPE svg PUBLIC "-//W3C//DTD SVG 1.1//EN"
 "http://www.w3.org/Graphics/SVG/1.1/DTD/svg11.dtd">
<!-- Generated by graphviz version 2.43.0 (0)
 -->
<!-- Title: %3 Pages: 1 -->
<svg width="415pt" height="165pt"
 viewBox="0.00 0.00 415.00 164.74" xmlns="http://www.w3.org/2000/svg" xmlns:xlink="http://www.w3.org/1999/xlink">
<g id="graph0" class="graph" transform="scale(1 1) rotate(0) translate(36 128.74)">
<title>%3</title>
<polygon fill="dimgray" stroke="transparent" points="-36,36 -36,-128.74 379,-128.74 379,36 -36,36"/>
<text text-anchor="middle" x="171.5" y="-77.54" font-family="Helvetica,sans-Serif" font-size="14.00">Sweep&#39;s Plan &amp; Progress</text>
<!-- start -->
<g id="node1" class="node">
<title>start</title>
</g>
<!-- fe4f1617&#45;1ba0&#45;4b8e&#45;85ca&#45;00bb37f3ce4c -->
<g id="node3" class="node">
<title>fe4f1617&#45;1ba0&#45;4b8e&#45;85ca&#45;00bb37f3ce4c</title>
<ellipse fill="yellow" stroke="black" cx="168.5" cy="-26.87" rx="115.93" ry="26.74"/>
<text text-anchor="middle" x="168.5" y="-30.67" font-family="Helvetica,sans-Serif" font-size="14.00">⋯ Create</text>
<text text-anchor="middle" x="168.5" y="-15.67" font-family="Helvetica,sans-Serif" font-size="14.00">any file in the project</text>
</g>
<!-- start&#45;&gt;fe4f1617&#45;1ba0&#45;4b8e&#45;85ca&#45;00bb37f3ce4c -->
<g id="edge1" class="edge">
<title>start&#45;&gt;fe4f1617&#45;1ba0&#45;4b8e&#45;85ca&#45;00bb37f3ce4c</title>
<path fill="none" stroke="black" d="M1.25,-26.87C4.86,-26.87 21.18,-26.87 42.31,-26.87"/>
<polygon fill="black" stroke="black" points="42.33,-30.37 52.33,-26.87 42.33,-23.37 42.33,-30.37"/>
<text text-anchor="middle" x="26.77" y="-33.67" font-family="Helvetica,sans-Serif" font-size="14.00">Start</text>
</g>
<!-- end -->
<g id="node2" class="node">
<title>end</title>
</g>
<!-- fe4f1617&#45;1ba0&#45;4b8e&#45;85ca&#45;00bb37f3ce4c&#45;&gt;end -->
<g id="edge2" class="edge">
<title>fe4f1617&#45;1ba0&#45;4b8e&#45;85ca&#45;00bb37f3ce4c&#45;&gt;end</title>
<path fill="none" stroke="black" d="M284.56,-26.87C303.99,-26.87 321.24,-26.87 331.76,-26.87"/>
<polygon fill="black" stroke="black" points="331.83,-30.37 341.83,-26.87 331.83,-23.37 331.83,-30.37"/>
<text text-anchor="middle" x="313.23" y="-33.67" font-family="Helvetica,sans-Serif" font-size="14.00">Finish</text>
</g>
</g>
</svg>
