<?xml version="1.0" encoding="UTF-8" standalone="no"?>
<!DOCTYPE svg PUBLIC "-//W3C//DTD SVG 1.1//EN"
 "http://www.w3.org/Graphics/SVG/1.1/DTD/svg11.dtd">
<!-- Generated by graphviz version 2.43.0 (0)
 -->
<!-- Title: %3 Pages: 1 -->
<svg width="390pt" height="238pt"
 viewBox="0.00 0.00 390.00 237.74" xmlns="http://www.w3.org/2000/svg" xmlns:xlink="http://www.w3.org/1999/xlink">
<g id="graph0" class="graph" transform="scale(1 1) rotate(0) translate(36 201.74)">
<title>%3</title>
<polygon fill="dimgray" stroke="transparent" points="-36,36 -36,-201.74 354,-201.74 354,36 -36,36"/>
<text text-anchor="middle" x="159" y="-150.54" font-family="Helvetica,sans-Serif" font-size="14.00">Sweep&#39;s Plan &amp; Progress</text>
<!-- start -->
<g id="node1" class="node">
<title>start</title>
</g>
<!-- bb90647f&#45;1f45&#45;478a&#45;9f7d&#45;c3308d045acb -->
<g id="node3" class="node">
<title>bb90647f&#45;1f45&#45;478a&#45;9f7d&#45;c3308d045acb</title>
<ellipse fill="#0ee832" stroke="black" cx="159" cy="-99.87" rx="86.95" ry="26.74"/>
<text text-anchor="middle" x="159" y="-103.67" font-family="Helvetica,sans-Serif" font-size="14.00">✓ Modify</text>
<text text-anchor="middle" x="159" y="-88.67" font-family="Helvetica,sans-Serif" font-size="14.00">new_feature.py</text>
</g>
<!-- start&#45;&gt;bb90647f&#45;1f45&#45;478a&#45;9f7d&#45;c3308d045acb -->
<g id="edge2" class="edge">
<title>start&#45;&gt;bb90647f&#45;1f45&#45;478a&#45;9f7d&#45;c3308d045acb</title>
<path fill="none" stroke="black" d="M20.89,-99.87C24.8,-99.87 41.23,-99.87 61.46,-99.87"/>
<polygon fill="black" stroke="black" points="61.67,-103.37 71.67,-99.87 61.67,-96.37 61.67,-103.37"/>
<text text-anchor="middle" x="46.26" y="-106.67" font-family="Helvetica,sans-Serif" font-size="14.00">Start</text>
</g>
<!-- end -->
<g id="node2" class="node">
<title>end</title>
</g>
<!-- bb90647f&#45;1f45&#45;478a&#45;9f7d&#45;c3308d045acb&#45;&gt;end -->
<g id="edge3" class="edge">
<title>bb90647f&#45;1f45&#45;478a&#45;9f7d&#45;c3308d045acb&#45;&gt;end</title>
<path fill="none" stroke="black" d="M246.28,-99.87C264.97,-99.87 282.3,-99.87 293,-99.87"/>
<polygon fill="black" stroke="black" points="293.31,-103.37 303.31,-99.87 293.31,-96.37 293.31,-103.37"/>
<text text-anchor="middle" x="274.74" y="-106.67" font-family="Helvetica,sans-Serif" font-size="14.00">Finish</text>
</g>
<!-- 8f04a311&#45;4efa&#45;494d&#45;ae71&#45;133ba5681a53 -->
<g id="node4" class="node">
<title>8f04a311&#45;4efa&#45;494d&#45;ae71&#45;133ba5681a53</title>
<polygon fill="yellow" stroke="black" points="318,-36 0,-36 0,0 318,0 318,-36"/>
<text text-anchor="middle" x="159" y="-14.3" font-family="Helvetica,sans-Serif" font-size="14.00">⋯ Run GitHub Actions for `new_feature.py`</text>
</g>
<!-- bb90647f&#45;1f45&#45;478a&#45;9f7d&#45;c3308d045acb&#45;&gt;8f04a311&#45;4efa&#45;494d&#45;ae71&#45;133ba5681a53 -->
<g id="edge1" class="edge">
<title>bb90647f&#45;1f45&#45;478a&#45;9f7d&#45;c3308d045acb&#45;&gt;8f04a311&#45;4efa&#45;494d&#45;ae71&#45;133ba5681a53</title>
<path fill="none" stroke="black" stroke-dasharray="5,2" d="M159,-72.72C159,-64.27 159,-54.89 159,-46.36"/>
<polygon fill="black" stroke="black" points="162.5,-46.15 159,-36.15 155.5,-46.15 162.5,-46.15"/>
</g>
</g>
</svg>
