<?xml version="1.0" encoding="UTF-8" standalone="no"?>
<!DOCTYPE svg PUBLIC "-//W3C//DTD SVG 1.1//EN"
 "http://www.w3.org/Graphics/SVG/1.1/DTD/svg11.dtd">
<!-- Generated by graphviz version 2.43.0 (0)
 -->
<!-- Title: %3 Pages: 1 -->
<svg width="379pt" height="238pt"
 viewBox="0.00 0.00 379.00 237.74" xmlns="http://www.w3.org/2000/svg" xmlns:xlink="http://www.w3.org/1999/xlink">
<g id="graph0" class="graph" transform="scale(1 1) rotate(0) translate(36 201.74)">
<title>%3</title>
<polygon fill="dimgray" stroke="transparent" points="-36,36 -36,-201.74 343,-201.74 343,36 -36,36"/>
<text text-anchor="middle" x="153.5" y="-150.54" font-family="Helvetica,sans-Serif" font-size="14.00">Sweep&#39;s Plan &amp; Progress</text>
<!-- start -->
<g id="node1" class="node">
<title>start</title>
</g>
<!-- e15fca0d&#45;de09&#45;4f16&#45;b3a0&#45;98751469815d -->
<g id="node3" class="node">
<title>e15fca0d&#45;de09&#45;4f16&#45;b3a0&#45;98751469815d</title>
<ellipse fill="#0ee832" stroke="black" cx="153.5" cy="-99.87" rx="79.39" ry="26.74"/>
<text text-anchor="middle" x="153.5" y="-103.67" font-family="Helvetica,sans-Serif" font-size="14.00">✓ Modify</text>
<text text-anchor="middle" x="153.5" y="-88.67" font-family="Helvetica,sans-Serif" font-size="14.00">ROADMAP.md</text>
</g>
<!-- start&#45;&gt;e15fca0d&#45;de09&#45;4f16&#45;b3a0&#45;98751469815d -->
<g id="edge2" class="edge">
<title>start&#45;&gt;e15fca0d&#45;de09&#45;4f16&#45;b3a0&#45;98751469815d</title>
<path fill="none" stroke="black" d="M23.34,-99.87C27.18,-99.87 43.78,-99.87 63.92,-99.87"/>
<polygon fill="black" stroke="black" points="64.05,-103.37 74.05,-99.87 64.05,-96.37 64.05,-103.37"/>
<text text-anchor="middle" x="48.65" y="-106.67" font-family="Helvetica,sans-Serif" font-size="14.00">Start</text>
</g>
<!-- end -->
<g id="node2" class="node">
<title>end</title>
</g>
<!-- e15fca0d&#45;de09&#45;4f16&#45;b3a0&#45;98751469815d&#45;&gt;end -->
<g id="edge3" class="edge">
<title>e15fca0d&#45;de09&#45;4f16&#45;b3a0&#45;98751469815d&#45;&gt;end</title>
<path fill="none" stroke="black" d="M232.8,-99.87C251.46,-99.87 269.02,-99.87 279.76,-99.87"/>
<polygon fill="black" stroke="black" points="279.8,-103.37 289.8,-99.87 279.8,-96.37 279.8,-103.37"/>
<text text-anchor="middle" x="261.35" y="-106.67" font-family="Helvetica,sans-Serif" font-size="14.00">Finish</text>
</g>
<!-- ea6b1d6a&#45;4b89&#45;4afd&#45;a6d9&#45;c8117c6c9cea -->
<g id="node4" class="node">
<title>ea6b1d6a&#45;4b89&#45;4afd&#45;a6d9&#45;c8117c6c9cea</title>
<polygon fill="yellow" stroke="black" points="307,-36 0,-36 0,0 307,0 307,-36"/>
<text text-anchor="middle" x="153.5" y="-14.3" font-family="Helvetica,sans-Serif" font-size="14.00">⋯ Run GitHub Actions for `ROADMAP.md`</text>
</g>
<!-- e15fca0d&#45;de09&#45;4f16&#45;b3a0&#45;98751469815d&#45;&gt;ea6b1d6a&#45;4b89&#45;4afd&#45;a6d9&#45;c8117c6c9cea -->
<g id="edge1" class="edge">
<title>e15fca0d&#45;de09&#45;4f16&#45;b3a0&#45;98751469815d&#45;&gt;ea6b1d6a&#45;4b89&#45;4afd&#45;a6d9&#45;c8117c6c9cea</title>
<path fill="none" stroke="black" stroke-dasharray="5,2" d="M153.5,-72.72C153.5,-64.27 153.5,-54.89 153.5,-46.36"/>
<polygon fill="black" stroke="black" points="157,-46.15 153.5,-36.15 150,-46.15 157,-46.15"/>
</g>
</g>
</svg>
