<?xml version="1.0" encoding="UTF-8" standalone="no"?>
<!DOCTYPE svg PUBLIC "-//W3C//DTD SVG 1.1//EN"
 "http://www.w3.org/Graphics/SVG/1.1/DTD/svg11.dtd">
<!-- Generated by graphviz version 2.43.0 (0)
 -->
<!-- Title: %3 Pages: 1 -->
<svg width="1367pt" height="238pt"
 viewBox="0.00 0.00 1367.00 237.74" xmlns="http://www.w3.org/2000/svg" xmlns:xlink="http://www.w3.org/1999/xlink">
<g id="graph0" class="graph" transform="scale(1 1) rotate(0) translate(36 201.74)">
<title>%3</title>
<polygon fill="dimgray" stroke="transparent" points="-36,36 -36,-201.74 1331,-201.74 1331,36 -36,36"/>
<text text-anchor="middle" x="647.5" y="-150.54" font-family="Helvetica,sans-Serif" font-size="14.00">Sweep&#39;s Plan &amp; Progress</text>
<!-- start -->
<g id="node1" class="node">
<title>start</title>
</g>
<!-- 087d8863&#45;fff0&#45;4dcd&#45;84f1&#45;f85f1cc8954b -->
<g id="node3" class="node">
<title>087d8863&#45;fff0&#45;4dcd&#45;84f1&#45;f85f1cc8954b</title>
<ellipse fill="yellow" stroke="black" cx="301.5" cy="-99.87" rx="247.47" ry="26.74"/>
<text text-anchor="middle" x="301.5" y="-103.67" font-family="Helvetica,sans-Serif" font-size="14.00">⋯ Create</text>
<text text-anchor="middle" x="301.5" y="-88.67" font-family="Helvetica,sans-Serif" font-size="14.00">env/lib/python3.10/site&#45;packages/ai_features.py</text>
</g>
<!-- start&#45;&gt;087d8863&#45;fff0&#45;4dcd&#45;84f1&#45;f85f1cc8954b -->
<g id="edge6" class="edge">
<title>start&#45;&gt;087d8863&#45;fff0&#45;4dcd&#45;84f1&#45;f85f1cc8954b</title>
<path fill="none" stroke="black" d="M3.36,-99.87C7.03,-99.87 22.22,-99.87 43.95,-99.87"/>
<polygon fill="black" stroke="black" points="44.01,-103.37 54.01,-99.87 44.01,-96.37 44.01,-103.37"/>
<text text-anchor="middle" x="28.51" y="-106.67" font-family="Helvetica,sans-Serif" font-size="14.00">Start</text>
</g>
<!-- end -->
<g id="node2" class="node">
<title>end</title>
</g>
<!-- ed2ae7db&#45;1088&#45;4cf7&#45;8c26&#45;a8e6e46cccdb -->
<g id="node4" class="node">
<title>ed2ae7db&#45;1088&#45;4cf7&#45;8c26&#45;a8e6e46cccdb</title>
<ellipse fill="white" stroke="black" cx="747.5" cy="-99.87" rx="130.63" ry="26.74"/>
<text text-anchor="middle" x="747.5" y="-103.67" font-family="Helvetica,sans-Serif" font-size="14.00">▶ Create</text>
<text text-anchor="middle" x="747.5" y="-88.67" font-family="Helvetica,sans-Serif" font-size="14.00">tests/test_ai_features.py</text>
</g>
<!-- 087d8863&#45;fff0&#45;4dcd&#45;84f1&#45;f85f1cc8954b&#45;&gt;ed2ae7db&#45;1088&#45;4cf7&#45;8c26&#45;a8e6e46cccdb -->
<g id="edge2" class="edge">
<title>087d8863&#45;fff0&#45;4dcd&#45;84f1&#45;f85f1cc8954b&#45;&gt;ed2ae7db&#45;1088&#45;4cf7&#45;8c26&#45;a8e6e46cccdb</title>
<path fill="none" stroke="black" d="M549.33,-99.87C568.36,-99.87 587.38,-99.87 606.41,-99.87"/>
<polygon fill="black" stroke="black" points="606.67,-103.37 616.67,-99.87 606.67,-96.37 606.67,-103.37"/>
</g>
<!-- cf654b51&#45;982f&#45;4727&#45;9476&#45;57445c3d1029 -->
<g id="node6" class="node">
<title>cf654b51&#45;982f&#45;4727&#45;9476&#45;57445c3d1029</title>
<polygon fill="white" stroke="black" points="541,-36 0,-36 0,0 541,0 541,-36"/>
<text text-anchor="middle" x="270.5" y="-14.3" font-family="Helvetica,sans-Serif" font-size="14.00">▶ Run GitHub Actions for `env/lib/python3.10/site&#45;packages/ai_features.py`</text>
</g>
<!-- 087d8863&#45;fff0&#45;4dcd&#45;84f1&#45;f85f1cc8954b&#45;&gt;cf654b51&#45;982f&#45;4727&#45;9476&#45;57445c3d1029 -->
<g id="edge1" class="edge">
<title>087d8863&#45;fff0&#45;4dcd&#45;84f1&#45;f85f1cc8954b&#45;&gt;cf654b51&#45;982f&#45;4727&#45;9476&#45;57445c3d1029</title>
<path fill="none" stroke="black" stroke-dasharray="5,2" d="M291.35,-72.72C287.96,-63.99 284.19,-54.26 280.79,-45.51"/>
<polygon fill="black" stroke="black" points="284.04,-44.2 277.16,-36.15 277.51,-46.74 284.04,-44.2"/>
</g>
<!-- c52ce537&#45;41b5&#45;4415&#45;8d50&#45;31ce5d999104 -->
<g id="node5" class="node">
<title>c52ce537&#45;41b5&#45;4415&#45;8d50&#45;31ce5d999104</title>
<ellipse fill="white" stroke="black" cx="1072.5" cy="-99.87" rx="105.22" ry="26.74"/>
<text text-anchor="middle" x="1072.5" y="-103.67" font-family="Helvetica,sans-Serif" font-size="14.00">▶ Modify</text>
<text text-anchor="middle" x="1072.5" y="-88.67" font-family="Helvetica,sans-Serif" font-size="14.00">Documentation.md</text>
</g>
<!-- ed2ae7db&#45;1088&#45;4cf7&#45;8c26&#45;a8e6e46cccdb&#45;&gt;c52ce537&#45;41b5&#45;4415&#45;8d50&#45;31ce5d999104 -->
<g id="edge4" class="edge">
<title>ed2ae7db&#45;1088&#45;4cf7&#45;8c26&#45;a8e6e46cccdb&#45;&gt;c52ce537&#45;41b5&#45;4415&#45;8d50&#45;31ce5d999104</title>
<path fill="none" stroke="black" d="M878.58,-99.87C904.55,-99.87 930.52,-99.87 956.49,-99.87"/>
<polygon fill="black" stroke="black" points="956.83,-103.37 966.83,-99.87 956.83,-96.37 956.83,-103.37"/>
</g>
<!-- eab1cd84&#45;cd90&#45;45dc&#45;b565&#45;fea265fa7aed -->
<g id="node7" class="node">
<title>eab1cd84&#45;cd90&#45;45dc&#45;b565&#45;fea265fa7aed</title>
<polygon fill="white" stroke="black" points="936,-36 559,-36 559,0 936,0 936,-36"/>
<text text-anchor="middle" x="747.5" y="-14.3" font-family="Helvetica,sans-Serif" font-size="14.00">▶ Run GitHub Actions for `tests/test_ai_features.py`</text>
</g>
<!-- ed2ae7db&#45;1088&#45;4cf7&#45;8c26&#45;a8e6e46cccdb&#45;&gt;eab1cd84&#45;cd90&#45;45dc&#45;b565&#45;fea265fa7aed -->
<g id="edge3" class="edge">
<title>ed2ae7db&#45;1088&#45;4cf7&#45;8c26&#45;a8e6e46cccdb&#45;&gt;eab1cd84&#45;cd90&#45;45dc&#45;b565&#45;fea265fa7aed</title>
<path fill="none" stroke="black" stroke-dasharray="5,2" d="M747.5,-72.72C747.5,-64.27 747.5,-54.89 747.5,-46.36"/>
<polygon fill="black" stroke="black" points="751,-46.15 747.5,-36.15 744,-46.15 751,-46.15"/>
</g>
<!-- c52ce537&#45;41b5&#45;4415&#45;8d50&#45;31ce5d999104&#45;&gt;end -->
<g id="edge7" class="edge">
<title>c52ce537&#45;41b5&#45;4415&#45;8d50&#45;31ce5d999104&#45;&gt;end</title>
<path fill="none" stroke="black" d="M1178.03,-99.87C1197.11,-99.87 1214.26,-99.87 1224.76,-99.87"/>
<polygon fill="black" stroke="black" points="1224.83,-103.37 1234.83,-99.87 1224.83,-96.37 1224.83,-103.37"/>
<text text-anchor="middle" x="1206.43" y="-106.67" font-family="Helvetica,sans-Serif" font-size="14.00">Finish</text>
</g>
<!-- 2dca9f05&#45;6da3&#45;4d5f&#45;a6a7&#45;800f0c73c1ef -->
<g id="node8" class="node">
<title>2dca9f05&#45;6da3&#45;4d5f&#45;a6a7&#45;800f0c73c1ef</title>
<polygon fill="white" stroke="black" points="1295,-36 954,-36 954,0 1295,0 1295,-36"/>
<text text-anchor="middle" x="1124.5" y="-14.3" font-family="Helvetica,sans-Serif" font-size="14.00">▶ Run GitHub Actions for `Documentation.md`</text>
</g>
<!-- c52ce537&#45;41b5&#45;4415&#45;8d50&#45;31ce5d999104&#45;&gt;2dca9f05&#45;6da3&#45;4d5f&#45;a6a7&#45;800f0c73c1ef -->
<g id="edge5" class="edge">
<title>c52ce537&#45;41b5&#45;4415&#45;8d50&#45;31ce5d999104&#45;&gt;2dca9f05&#45;6da3&#45;4d5f&#45;a6a7&#45;800f0c73c1ef</title>
<path fill="none" stroke="black" stroke-dasharray="5,2" d="M1089.24,-73.16C1095.12,-64.13 1101.72,-53.98 1107.61,-44.94"/>
<polygon fill="black" stroke="black" points="1110.69,-46.63 1113.21,-36.34 1104.82,-42.81 1110.69,-46.63"/>
</g>
</g>
</svg>
