<?xml version="1.0" encoding="UTF-8" standalone="no"?>
<!DOCTYPE svg PUBLIC "-//W3C//DTD SVG 1.1//EN"
 "http://www.w3.org/Graphics/SVG/1.1/DTD/svg11.dtd">
<!-- Generated by graphviz version 2.43.0 (0)
 -->
<!-- Title: %3 Pages: 1 -->
<svg width="1009pt" height="238pt"
 viewBox="0.00 0.00 1008.50 237.74" xmlns="http://www.w3.org/2000/svg" xmlns:xlink="http://www.w3.org/1999/xlink">
<g id="graph0" class="graph" transform="scale(1 1) rotate(0) translate(36 201.74)">
<title>%3</title>
<polygon fill="dimgray" stroke="transparent" points="-36,36 -36,-201.74 972.5,-201.74 972.5,36 -36,36"/>
<text text-anchor="middle" x="468.25" y="-150.54" font-family="Helvetica,sans-Serif" font-size="14.00">Sweep&#39;s Plan &amp; Progress</text>
<!-- start -->
<g id="node1" class="node">
<title>start</title>
</g>
<!-- 857e1ed9&#45;9056&#45;4b2e&#45;8769&#45;e1888b6c0e1b -->
<g id="node3" class="node">
<title>857e1ed9&#45;9056&#45;4b2e&#45;8769&#45;e1888b6c0e1b</title>
<ellipse fill="#0ee832" stroke="black" cx="217" cy="-99.87" rx="75.82" ry="26.74"/>
<text text-anchor="middle" x="217" y="-103.67" font-family="Helvetica,sans-Serif" font-size="14.00">✓ Create</text>
<text text-anchor="middle" x="217" y="-88.67" font-family="Helvetica,sans-Serif" font-size="14.00">TESTLOG.md</text>
</g>
<!-- start&#45;&gt;857e1ed9&#45;9056&#45;4b2e&#45;8769&#45;e1888b6c0e1b -->
<g id="edge6" class="edge">
<title>start&#45;&gt;857e1ed9&#45;9056&#45;4b2e&#45;8769&#45;e1888b6c0e1b</title>
<path fill="none" stroke="black" d="M89.82,-99.87C93.66,-99.87 110.59,-99.87 130.92,-99.87"/>
<polygon fill="black" stroke="black" points="131.12,-103.37 141.12,-99.87 131.12,-96.37 131.12,-103.37"/>
<text text-anchor="middle" x="115.42" y="-106.67" font-family="Helvetica,sans-Serif" font-size="14.00">Start</text>
</g>
<!-- end -->
<g id="node2" class="node">
<title>end</title>
</g>
<!-- 6cbff1c7&#45;5570&#45;4062&#45;89bd&#45;c444c17f1567 -->
<g id="node4" class="node">
<title>6cbff1c7&#45;5570&#45;4062&#45;89bd&#45;c444c17f1567</title>
<ellipse fill="white" stroke="black" cx="468" cy="-99.87" rx="73.58" ry="26.74"/>
<text text-anchor="middle" x="468" y="-103.67" font-family="Helvetica,sans-Serif" font-size="14.00">▶ Modify</text>
<text text-anchor="middle" x="468" y="-88.67" font-family="Helvetica,sans-Serif" font-size="14.00">README.md</text>
</g>
<!-- 857e1ed9&#45;9056&#45;4b2e&#45;8769&#45;e1888b6c0e1b&#45;&gt;6cbff1c7&#45;5570&#45;4062&#45;89bd&#45;c444c17f1567 -->
<g id="edge2" class="edge">
<title>857e1ed9&#45;9056&#45;4b2e&#45;8769&#45;e1888b6c0e1b&#45;&gt;6cbff1c7&#45;5570&#45;4062&#45;89bd&#45;c444c17f1567</title>
<path fill="none" stroke="black" d="M292.99,-99.87C323.29,-99.87 353.59,-99.87 383.89,-99.87"/>
<polygon fill="black" stroke="black" points="384.17,-103.37 394.17,-99.87 384.17,-96.37 384.17,-103.37"/>
</g>
<!-- 05696cde&#45;868a&#45;4043&#45;95d8&#45;2638539907f3 -->
<g id="node6" class="node">
<title>05696cde&#45;868a&#45;4043&#45;95d8&#45;2638539907f3</title>
<polygon fill="yellow" stroke="black" points="302,-36 0,-36 0,0 302,0 302,-36"/>
<text text-anchor="middle" x="151" y="-14.3" font-family="Helvetica,sans-Serif" font-size="14.00">⋯ Run GitHub Actions for `TESTLOG.md`</text>
</g>
<!-- 857e1ed9&#45;9056&#45;4b2e&#45;8769&#45;e1888b6c0e1b&#45;&gt;05696cde&#45;868a&#45;4043&#45;95d8&#45;2638539907f3 -->
<g id="edge1" class="edge">
<title>857e1ed9&#45;9056&#45;4b2e&#45;8769&#45;e1888b6c0e1b&#45;&gt;05696cde&#45;868a&#45;4043&#45;95d8&#45;2638539907f3</title>
<path fill="none" stroke="black" stroke-dasharray="5,2" d="M196.12,-73.6C188.29,-64.13 179.4,-53.37 171.6,-43.93"/>
<polygon fill="black" stroke="black" points="174.15,-41.52 165.08,-36.04 168.75,-45.97 174.15,-41.52"/>
</g>
<!-- 32ba8c3d&#45;0f31&#45;47d3&#45;9dd2&#45;0cf5f94a9792 -->
<g id="node5" class="node">
<title>32ba8c3d&#45;0f31&#45;47d3&#45;9dd2&#45;0cf5f94a9792</title>
<ellipse fill="white" stroke="black" cx="721" cy="-99.87" rx="79.39" ry="26.74"/>
<text text-anchor="middle" x="721" y="-103.67" font-family="Helvetica,sans-Serif" font-size="14.00">▶ Modify</text>
<text text-anchor="middle" x="721" y="-88.67" font-family="Helvetica,sans-Serif" font-size="14.00">ROADMAP.md</text>
</g>
<!-- 6cbff1c7&#45;5570&#45;4062&#45;89bd&#45;c444c17f1567&#45;&gt;32ba8c3d&#45;0f31&#45;47d3&#45;9dd2&#45;0cf5f94a9792 -->
<g id="edge4" class="edge">
<title>6cbff1c7&#45;5570&#45;4062&#45;89bd&#45;c444c17f1567&#45;&gt;32ba8c3d&#45;0f31&#45;47d3&#45;9dd2&#45;0cf5f94a9792</title>
<path fill="none" stroke="black" d="M541.63,-99.87C571.53,-99.87 601.43,-99.87 631.33,-99.87"/>
<polygon fill="black" stroke="black" points="631.47,-103.37 641.47,-99.87 631.47,-96.37 631.47,-103.37"/>
</g>
<!-- 68266699&#45;e7b2&#45;450a&#45;b3c6&#45;8e4ac0326015 -->
<g id="node7" class="node">
<title>68266699&#45;e7b2&#45;450a&#45;b3c6&#45;8e4ac0326015</title>
<polygon fill="white" stroke="black" points="615.5,-36 320.5,-36 320.5,0 615.5,0 615.5,-36"/>
<text text-anchor="middle" x="468" y="-14.3" font-family="Helvetica,sans-Serif" font-size="14.00">▶ Run GitHub Actions for `README.md`</text>
</g>
<!-- 6cbff1c7&#45;5570&#45;4062&#45;89bd&#45;c444c17f1567&#45;&gt;68266699&#45;e7b2&#45;450a&#45;b3c6&#45;8e4ac0326015 -->
<g id="edge3" class="edge">
<title>6cbff1c7&#45;5570&#45;4062&#45;89bd&#45;c444c17f1567&#45;&gt;68266699&#45;e7b2&#45;450a&#45;b3c6&#45;8e4ac0326015</title>
<path fill="none" stroke="black" stroke-dasharray="5,2" d="M468,-72.72C468,-64.27 468,-54.89 468,-46.36"/>
<polygon fill="black" stroke="black" points="471.5,-46.15 468,-36.15 464.5,-46.15 471.5,-46.15"/>
</g>
<!-- 32ba8c3d&#45;0f31&#45;47d3&#45;9dd2&#45;0cf5f94a9792&#45;&gt;end -->
<g id="edge7" class="edge">
<title>32ba8c3d&#45;0f31&#45;47d3&#45;9dd2&#45;0cf5f94a9792&#45;&gt;end</title>
<path fill="none" stroke="black" d="M800.3,-99.87C818.96,-99.87 836.52,-99.87 847.26,-99.87"/>
<polygon fill="black" stroke="black" points="847.3,-103.37 857.3,-99.87 847.3,-96.37 847.3,-103.37"/>
<text text-anchor="middle" x="828.85" y="-106.67" font-family="Helvetica,sans-Serif" font-size="14.00">Finish</text>
</g>
<!-- 38b90af3&#45;d447&#45;41c2&#45;8d22&#45;a915c88ce6fd -->
<g id="node8" class="node">
<title>38b90af3&#45;d447&#45;41c2&#45;8d22&#45;a915c88ce6fd</title>
<polygon fill="white" stroke="black" points="936.5,-36 633.5,-36 633.5,0 936.5,0 936.5,-36"/>
<text text-anchor="middle" x="785" y="-14.3" font-family="Helvetica,sans-Serif" font-size="14.00">▶ Run GitHub Actions for `ROADMAP.md`</text>
</g>
<!-- 32ba8c3d&#45;0f31&#45;47d3&#45;9dd2&#45;0cf5f94a9792&#45;&gt;38b90af3&#45;d447&#45;41c2&#45;8d22&#45;a915c88ce6fd -->
<g id="edge5" class="edge">
<title>32ba8c3d&#45;0f31&#45;47d3&#45;9dd2&#45;0cf5f94a9792&#45;&gt;38b90af3&#45;d447&#45;41c2&#45;8d22&#45;a915c88ce6fd</title>
<path fill="none" stroke="black" stroke-dasharray="5,2" d="M741.25,-73.6C748.84,-64.13 757.46,-53.37 765.02,-43.93"/>
<polygon fill="black" stroke="black" points="767.83,-46.03 771.35,-36.04 762.36,-41.65 767.83,-46.03"/>
</g>
</g>
</svg>
