<?xml version="1.0" encoding="UTF-8" standalone="no"?>
<!DOCTYPE svg PUBLIC "-//W3C//DTD SVG 1.1//EN"
 "http://www.w3.org/Graphics/SVG/1.1/DTD/svg11.dtd">
<!-- Generated by graphviz version 2.43.0 (0)
 -->
<!-- Title: %3 Pages: 1 -->
<svg width="443pt" height="165pt"
 viewBox="0.00 0.00 443.00 164.74" xmlns="http://www.w3.org/2000/svg" xmlns:xlink="http://www.w3.org/1999/xlink">
<g id="graph0" class="graph" transform="scale(1 1) rotate(0) translate(36 128.74)">
<title>%3</title>
<polygon fill="dimgray" stroke="transparent" points="-36,36 -36,-128.74 407,-128.74 407,36 -36,36"/>
<text text-anchor="middle" x="185.5" y="-77.54" font-family="Helvetica,sans-Serif" font-size="14.00">Sweep&#39;s Plan &amp; Progress</text>
<!-- start -->
<g id="node1" class="node">
<title>start</title>
</g>
<!-- 3cb66d57&#45;d666&#45;4285&#45;8308&#45;8d5fb426b4b3 -->
<g id="node3" class="node">
<title>3cb66d57&#45;d666&#45;4285&#45;8308&#45;8d5fb426b4b3</title>
<ellipse fill="yellow" stroke="black" cx="182.5" cy="-26.87" rx="130.22" ry="26.74"/>
<text text-anchor="middle" x="182.5" y="-30.67" font-family="Helvetica,sans-Serif" font-size="14.00">⋯ Create</text>
<text text-anchor="middle" x="182.5" y="-15.67" font-family="Helvetica,sans-Serif" font-size="14.00">DISCUSSION_GUIDE.md</text>
</g>
<!-- start&#45;&gt;3cb66d57&#45;d666&#45;4285&#45;8308&#45;8d5fb426b4b3 -->
<g id="edge1" class="edge">
<title>start&#45;&gt;3cb66d57&#45;d666&#45;4285&#45;8308&#45;8d5fb426b4b3</title>
<path fill="none" stroke="black" d="M1.02,-26.87C4.08,-26.87 20.25,-26.87 41.79,-26.87"/>
<polygon fill="black" stroke="black" points="42.03,-30.37 52.03,-26.87 42.03,-23.37 42.03,-30.37"/>
<text text-anchor="middle" x="26.7" y="-33.67" font-family="Helvetica,sans-Serif" font-size="14.00">Start</text>
</g>
<!-- end -->
<g id="node2" class="node">
<title>end</title>
</g>
<!-- 3cb66d57&#45;d666&#45;4285&#45;8308&#45;8d5fb426b4b3&#45;&gt;end -->
<g id="edge2" class="edge">
<title>3cb66d57&#45;d666&#45;4285&#45;8308&#45;8d5fb426b4b3&#45;&gt;end</title>
<path fill="none" stroke="black" d="M312.82,-26.87C332.2,-26.87 349.14,-26.87 359.56,-26.87"/>
<polygon fill="black" stroke="black" points="359.84,-30.37 369.84,-26.87 359.84,-23.37 359.84,-30.37"/>
<text text-anchor="middle" x="341.3" y="-33.67" font-family="Helvetica,sans-Serif" font-size="14.00">Finish</text>
</g>
</g>
</svg>
