<?xml version="1.0" encoding="UTF-8" standalone="no"?>
<!DOCTYPE svg PUBLIC "-//W3C//DTD SVG 1.1//EN"
 "http://www.w3.org/Graphics/SVG/1.1/DTD/svg11.dtd">
<!-- Generated by graphviz version 2.43.0 (0)
 -->
<!-- Title: %3 Pages: 1 -->
<svg width="1754pt" height="238pt"
 viewBox="0.00 0.00 1753.50 237.74" xmlns="http://www.w3.org/2000/svg" xmlns:xlink="http://www.w3.org/1999/xlink">
<g id="graph0" class="graph" transform="scale(1 1) rotate(0) translate(36 201.74)">
<title>%3</title>
<polygon fill="dimgray" stroke="transparent" points="-36,36 -36,-201.74 1717.5,-201.74 1717.5,36 -36,36"/>
<text text-anchor="middle" x="840.75" y="-150.54" font-family="Helvetica,sans-Serif" font-size="14.00">Sweep&#39;s Plan &amp; Progress</text>
<!-- start -->
<g id="node1" class="node">
<title>start</title>
</g>
<!-- 76d856fa&#45;ecaf&#45;4f29&#45;8192&#45;74fea76f7c2e -->
<g id="node3" class="node">
<title>76d856fa&#45;ecaf&#45;4f29&#45;8192&#45;74fea76f7c2e</title>
<ellipse fill="#0ee832" stroke="black" cx="273" cy="-99.87" rx="205.54" ry="26.74"/>
<text text-anchor="middle" x="273" y="-103.67" font-family="Helvetica,sans-Serif" font-size="14.00">✓ Create</text>
<text text-anchor="middle" x="273" y="-88.67" font-family="Helvetica,sans-Serif" font-size="14.00">components/PerformanceTrackerUtils.js</text>
</g>
<!-- start&#45;&gt;76d856fa&#45;ecaf&#45;4f29&#45;8192&#45;74fea76f7c2e -->
<g id="edge6" class="edge">
<title>start&#45;&gt;76d856fa&#45;ecaf&#45;4f29&#45;8192&#45;74fea76f7c2e</title>
<path fill="none" stroke="black" d="M15.74,-99.87C19.24,-99.87 34.9,-99.87 56.89,-99.87"/>
<polygon fill="black" stroke="black" points="57.05,-103.37 67.05,-99.87 57.05,-96.37 57.05,-103.37"/>
<text text-anchor="middle" x="41.37" y="-106.67" font-family="Helvetica,sans-Serif" font-size="14.00">Start</text>
</g>
<!-- end -->
<g id="node2" class="node">
<title>end</title>
</g>
<!-- 009ad24d&#45;5ba4&#45;4369&#45;baee&#45;6d43bc55169e -->
<g id="node4" class="node">
<title>009ad24d&#45;5ba4&#45;4369&#45;baee&#45;6d43bc55169e</title>
<ellipse fill="white" stroke="black" cx="734" cy="-99.87" rx="190.42" ry="26.74"/>
<text text-anchor="middle" x="734" y="-103.67" font-family="Helvetica,sans-Serif" font-size="14.00">▶ Modify</text>
<text text-anchor="middle" x="734" y="-88.67" font-family="Helvetica,sans-Serif" font-size="14.00">components/PerformanceTracking.js</text>
</g>
<!-- 76d856fa&#45;ecaf&#45;4f29&#45;8192&#45;74fea76f7c2e&#45;&gt;009ad24d&#45;5ba4&#45;4369&#45;baee&#45;6d43bc55169e -->
<g id="edge2" class="edge">
<title>76d856fa&#45;ecaf&#45;4f29&#45;8192&#45;74fea76f7c2e&#45;&gt;009ad24d&#45;5ba4&#45;4369&#45;baee&#45;6d43bc55169e</title>
<path fill="none" stroke="black" d="M479.19,-99.87C497.25,-99.87 515.3,-99.87 533.36,-99.87"/>
<polygon fill="black" stroke="black" points="533.39,-103.37 543.39,-99.87 533.39,-96.37 533.39,-103.37"/>
</g>
<!-- 344262b9&#45;987b&#45;4986&#45;8cf9&#45;146e563beb8a -->
<g id="node6" class="node">
<title>344262b9&#45;987b&#45;4986&#45;8cf9&#45;146e563beb8a</title>
<polygon fill="yellow" stroke="black" points="486,-36 0,-36 0,0 486,0 486,-36"/>
<text text-anchor="middle" x="243" y="-14.3" font-family="Helvetica,sans-Serif" font-size="14.00">⋯ Run GitHub Actions for `components/PerformanceTrackerUtils.js`</text>
</g>
<!-- 76d856fa&#45;ecaf&#45;4f29&#45;8192&#45;74fea76f7c2e&#45;&gt;344262b9&#45;987b&#45;4986&#45;8cf9&#45;146e563beb8a -->
<g id="edge1" class="edge">
<title>76d856fa&#45;ecaf&#45;4f29&#45;8192&#45;74fea76f7c2e&#45;&gt;344262b9&#45;987b&#45;4986&#45;8cf9&#45;146e563beb8a</title>
<path fill="none" stroke="black" stroke-dasharray="5,2" d="M263.18,-72.72C259.9,-63.99 256.25,-54.26 252.96,-45.51"/>
<polygon fill="black" stroke="black" points="256.23,-44.28 249.44,-36.15 249.68,-46.74 256.23,-44.28"/>
</g>
<!-- b56c69a4&#45;d730&#45;41f4&#45;8252&#45;dff11d909276 -->
<g id="node5" class="node">
<title>b56c69a4&#45;d730&#45;41f4&#45;8252&#45;dff11d909276</title>
<ellipse fill="white" stroke="black" cx="1297" cy="-99.87" rx="325.95" ry="26.74"/>
<text text-anchor="middle" x="1297" y="-103.67" font-family="Helvetica,sans-Serif" font-size="14.00">▶ Modify</text>
<text text-anchor="middle" x="1297" y="-88.67" font-family="Helvetica,sans-Serif" font-size="14.00">env/lib/python3.10/site&#45;packages/pip/_vendor/urllib3/util/ssl_.py</text>
</g>
<!-- 009ad24d&#45;5ba4&#45;4369&#45;baee&#45;6d43bc55169e&#45;&gt;b56c69a4&#45;d730&#45;41f4&#45;8252&#45;dff11d909276 -->
<g id="edge4" class="edge">
<title>009ad24d&#45;5ba4&#45;4369&#45;baee&#45;6d43bc55169e&#45;&gt;b56c69a4&#45;d730&#45;41f4&#45;8252&#45;dff11d909276</title>
<path fill="none" stroke="black" d="M924.23,-99.87C936.37,-99.87 948.5,-99.87 960.64,-99.87"/>
<polygon fill="black" stroke="black" points="960.83,-103.37 970.83,-99.87 960.83,-96.37 960.83,-103.37"/>
</g>
<!-- 9a4bf572&#45;aa80&#45;4a62&#45;bcff&#45;0bf65f55a4d5 -->
<g id="node7" class="node">
<title>9a4bf572&#45;aa80&#45;4a62&#45;bcff&#45;0bf65f55a4d5</title>
<polygon fill="white" stroke="black" points="964,-36 504,-36 504,0 964,0 964,-36"/>
<text text-anchor="middle" x="734" y="-14.3" font-family="Helvetica,sans-Serif" font-size="14.00">▶ Run GitHub Actions for `components/PerformanceTracking.js`</text>
</g>
<!-- 009ad24d&#45;5ba4&#45;4369&#45;baee&#45;6d43bc55169e&#45;&gt;9a4bf572&#45;aa80&#45;4a62&#45;bcff&#45;0bf65f55a4d5 -->
<g id="edge3" class="edge">
<title>009ad24d&#45;5ba4&#45;4369&#45;baee&#45;6d43bc55169e&#45;&gt;9a4bf572&#45;aa80&#45;4a62&#45;bcff&#45;0bf65f55a4d5</title>
<path fill="none" stroke="black" stroke-dasharray="5,2" d="M734,-72.72C734,-64.27 734,-54.89 734,-46.36"/>
<polygon fill="black" stroke="black" points="737.5,-46.15 734,-36.15 730.5,-46.15 737.5,-46.15"/>
</g>
<!-- b56c69a4&#45;d730&#45;41f4&#45;8252&#45;dff11d909276&#45;&gt;end -->
<g id="edge7" class="edge">
<title>b56c69a4&#45;d730&#45;41f4&#45;8252&#45;dff11d909276&#45;&gt;end</title>
<path fill="none" stroke="black" d="M1623.1,-99.87C1643.81,-99.87 1660.37,-99.87 1670.38,-99.87"/>
<polygon fill="black" stroke="black" points="1670.4,-103.37 1680.4,-99.87 1670.4,-96.37 1670.4,-103.37"/>
<text text-anchor="middle" x="1651.74" y="-106.67" font-family="Helvetica,sans-Serif" font-size="14.00">Finish</text>
</g>
<!-- b7473d13&#45;2f90&#45;4b37&#45;8e07&#45;7eceb25247a0 -->
<g id="node8" class="node">
<title>b7473d13&#45;2f90&#45;4b37&#45;8e07&#45;7eceb25247a0</title>
<polygon fill="white" stroke="black" points="1634,-36 982,-36 982,0 1634,0 1634,-36"/>
<text text-anchor="middle" x="1308" y="-14.3" font-family="Helvetica,sans-Serif" font-size="14.00">▶ Run GitHub Actions for `env/lib/python3.10/site&#45;packages/pip/_vendor/urllib3/util/ssl_.py`</text>
</g>
<!-- b56c69a4&#45;d730&#45;41f4&#45;8252&#45;dff11d909276&#45;&gt;b7473d13&#45;2f90&#45;4b37&#45;8e07&#45;7eceb25247a0 -->
<g id="edge5" class="edge">
<title>b56c69a4&#45;d730&#45;41f4&#45;8252&#45;dff11d909276&#45;&gt;b7473d13&#45;2f90&#45;4b37&#45;8e07&#45;7eceb25247a0</title>
<path fill="none" stroke="black" stroke-dasharray="5,2" d="M1300.6,-72.72C1301.78,-64.18 1303.09,-54.68 1304.27,-46.08"/>
<polygon fill="black" stroke="black" points="1307.74,-46.53 1305.64,-36.15 1300.81,-45.58 1307.74,-46.53"/>
</g>
</g>
</svg>
