<?xml version="1.0" encoding="UTF-8" standalone="no"?>
<!DOCTYPE svg PUBLIC "-//W3C//DTD SVG 1.1//EN"
 "http://www.w3.org/Graphics/SVG/1.1/DTD/svg11.dtd">
<!-- Generated by graphviz version 2.43.0 (0)
 -->
<!-- Title: %3 Pages: 1 -->
<svg width="313pt" height="165pt"
 viewBox="0.00 0.00 313.00 164.74" xmlns="http://www.w3.org/2000/svg" xmlns:xlink="http://www.w3.org/1999/xlink">
<g id="graph0" class="graph" transform="scale(1 1) rotate(0) translate(36 128.74)">
<title>%3</title>
<polygon fill="dimgray" stroke="transparent" points="-36,36 -36,-128.74 277,-128.74 277,36 -36,36"/>
<text text-anchor="middle" x="120.5" y="-77.54" font-family="Helvetica,sans-Serif" font-size="14.00">Sweep&#39;s Plan &amp; Progress</text>
<!-- start -->
<g id="node1" class="node">
<title>start</title>
</g>
<!-- 93bee4db&#45;d25c&#45;4698&#45;a0ce&#45;d45f3f2a2c31 -->
<g id="node3" class="node">
<title>93bee4db&#45;d25c&#45;4698&#45;a0ce&#45;d45f3f2a2c31</title>
<ellipse fill="#0ee832" stroke="black" cx="117.5" cy="-26.87" rx="65.11" ry="26.74"/>
<text text-anchor="middle" x="117.5" y="-30.67" font-family="Helvetica,sans-Serif" font-size="14.00">✓ Create</text>
<text text-anchor="middle" x="117.5" y="-15.67" font-family="Helvetica,sans-Serif" font-size="14.00">file_path_1</text>
</g>
<!-- start&#45;&gt;93bee4db&#45;d25c&#45;4698&#45;a0ce&#45;d45f3f2a2c31 -->
<g id="edge1" class="edge">
<title>start&#45;&gt;93bee4db&#45;d25c&#45;4698&#45;a0ce&#45;d45f3f2a2c31</title>
<path fill="none" stroke="black" d="M1.25,-26.87C4.98,-26.87 22.2,-26.87 42.3,-26.87"/>
<polygon fill="black" stroke="black" points="42.34,-30.37 52.34,-26.87 42.34,-23.37 42.34,-30.37"/>
<text text-anchor="middle" x="26.72" y="-33.67" font-family="Helvetica,sans-Serif" font-size="14.00">Start</text>
</g>
<!-- end -->
<g id="node2" class="node">
<title>end</title>
</g>
<!-- 93bee4db&#45;d25c&#45;4698&#45;a0ce&#45;d45f3f2a2c31&#45;&gt;end -->
<g id="edge2" class="edge">
<title>93bee4db&#45;d25c&#45;4698&#45;a0ce&#45;d45f3f2a2c31&#45;&gt;end</title>
<path fill="none" stroke="black" d="M182.6,-26.87C200.78,-26.87 218.53,-26.87 229.48,-26.87"/>
<polygon fill="black" stroke="black" points="229.77,-30.37 239.77,-26.87 229.77,-23.37 229.77,-30.37"/>
<text text-anchor="middle" x="211.28" y="-33.67" font-family="Helvetica,sans-Serif" font-size="14.00">Finish</text>
</g>
</g>
</svg>
