<?xml version="1.0" encoding="UTF-8" standalone="no"?>
<!DOCTYPE svg PUBLIC "-//W3C//DTD SVG 1.1//EN"
 "http://www.w3.org/Graphics/SVG/1.1/DTD/svg11.dtd">
<!-- Generated by graphviz version 2.43.0 (0)
 -->
<!-- Title: %3 Pages: 1 -->
<svg width="1502pt" height="238pt"
 viewBox="0.00 0.00 1501.50 237.74" xmlns="http://www.w3.org/2000/svg" xmlns:xlink="http://www.w3.org/1999/xlink">
<g id="graph0" class="graph" transform="scale(1 1) rotate(0) translate(36 201.74)">
<title>%3</title>
<polygon fill="dimgray" stroke="transparent" points="-36,36 -36,-201.74 1465.5,-201.74 1465.5,36 -36,36"/>
<text text-anchor="middle" x="714.75" y="-150.54" font-family="Helvetica,sans-Serif" font-size="14.00">Sweep&#39;s Plan &amp; Progress</text>
<!-- start -->
<g id="node1" class="node">
<title>start</title>
</g>
<!-- a6131414&#45;ab87&#45;4bc3&#45;bc8d&#45;4d899f2ccbef -->
<g id="node3" class="node">
<title>a6131414&#45;ab87&#45;4bc3&#45;bc8d&#45;4d899f2ccbef</title>
<ellipse fill="#0ee832" stroke="black" cx="248.5" cy="-99.87" rx="134.2" ry="26.74"/>
<text text-anchor="middle" x="248.5" y="-103.67" font-family="Helvetica,sans-Serif" font-size="14.00">✓ Create</text>
<text text-anchor="middle" x="248.5" y="-88.67" font-family="Helvetica,sans-Serif" font-size="14.00">sweep_code_improver.py</text>
</g>
<!-- start&#45;&gt;a6131414&#45;ab87&#45;4bc3&#45;bc8d&#45;4d899f2ccbef -->
<g id="edge8" class="edge">
<title>start&#45;&gt;a6131414&#45;ab87&#45;4bc3&#45;bc8d&#45;4d899f2ccbef</title>
<path fill="none" stroke="black" d="M63.03,-99.87C66.1,-99.87 82.1,-99.87 103.53,-99.87"/>
<polygon fill="black" stroke="black" points="103.73,-103.37 113.73,-99.87 103.73,-96.37 103.73,-103.37"/>
<text text-anchor="middle" x="88.57" y="-106.67" font-family="Helvetica,sans-Serif" font-size="14.00">Start</text>
</g>
<!-- end -->
<g id="node2" class="node">
<title>end</title>
</g>
<!-- e02fec46&#45;d67c&#45;49b2&#45;9142&#45;dafc28559354 -->
<g id="node4" class="node">
<title>e02fec46&#45;d67c&#45;49b2&#45;9142&#45;dafc28559354</title>
<ellipse fill="white" stroke="black" cx="548.5" cy="-99.87" rx="73.58" ry="26.74"/>
<text text-anchor="middle" x="548.5" y="-103.67" font-family="Helvetica,sans-Serif" font-size="14.00">▶ Modify</text>
<text text-anchor="middle" x="548.5" y="-88.67" font-family="Helvetica,sans-Serif" font-size="14.00">README.md</text>
</g>
<!-- a6131414&#45;ab87&#45;4bc3&#45;bc8d&#45;4d899f2ccbef&#45;&gt;e02fec46&#45;d67c&#45;49b2&#45;9142&#45;dafc28559354 -->
<g id="edge2" class="edge">
<title>a6131414&#45;ab87&#45;4bc3&#45;bc8d&#45;4d899f2ccbef&#45;&gt;e02fec46&#45;d67c&#45;49b2&#45;9142&#45;dafc28559354</title>
<path fill="none" stroke="black" d="M382.97,-99.87C410.23,-99.87 437.49,-99.87 464.75,-99.87"/>
<polygon fill="black" stroke="black" points="464.79,-103.37 474.79,-99.87 464.79,-96.37 464.79,-103.37"/>
</g>
<!-- c2024e1d&#45;596c&#45;4edd&#45;949e&#45;160f3a1b8ba5 -->
<g id="node7" class="node">
<title>c2024e1d&#45;596c&#45;4edd&#45;949e&#45;160f3a1b8ba5</title>
<polygon fill="#0ee832" stroke="black" points="383,-36 0,-36 0,0 383,0 383,-36"/>
<text text-anchor="middle" x="191.5" y="-14.3" font-family="Helvetica,sans-Serif" font-size="14.00">✓ Run GitHub Actions for `sweep_code_improver.py`</text>
</g>
<!-- a6131414&#45;ab87&#45;4bc3&#45;bc8d&#45;4d899f2ccbef&#45;&gt;c2024e1d&#45;596c&#45;4edd&#45;949e&#45;160f3a1b8ba5 -->
<g id="edge1" class="edge">
<title>a6131414&#45;ab87&#45;4bc3&#45;bc8d&#45;4d899f2ccbef&#45;&gt;c2024e1d&#45;596c&#45;4edd&#45;949e&#45;160f3a1b8ba5</title>
<path fill="none" stroke="black" stroke-dasharray="5,2" d="M230.15,-73.16C223.64,-64.04 216.32,-53.77 209.81,-44.65"/>
<polygon fill="black" stroke="black" points="212.53,-42.44 203.87,-36.34 206.83,-46.51 212.53,-42.44"/>
</g>
<!-- c652a950&#45;72bc&#45;4e85&#45;92fd&#45;28baa6dd9769 -->
<g id="node5" class="node">
<title>c652a950&#45;72bc&#45;4e85&#45;92fd&#45;28baa6dd9769</title>
<ellipse fill="white" stroke="black" cx="884.5" cy="-99.87" rx="105.22" ry="26.74"/>
<text text-anchor="middle" x="884.5" y="-103.67" font-family="Helvetica,sans-Serif" font-size="14.00">▶ Modify</text>
<text text-anchor="middle" x="884.5" y="-88.67" font-family="Helvetica,sans-Serif" font-size="14.00">Documentation.md</text>
</g>
<!-- e02fec46&#45;d67c&#45;49b2&#45;9142&#45;dafc28559354&#45;&gt;c652a950&#45;72bc&#45;4e85&#45;92fd&#45;28baa6dd9769 -->
<g id="edge4" class="edge">
<title>e02fec46&#45;d67c&#45;49b2&#45;9142&#45;dafc28559354&#45;&gt;c652a950&#45;72bc&#45;4e85&#45;92fd&#45;28baa6dd9769</title>
<path fill="none" stroke="black" d="M622.33,-99.87C671.19,-99.87 720.05,-99.87 768.92,-99.87"/>
<polygon fill="black" stroke="black" points="769.02,-103.37 779.02,-99.87 769.02,-96.37 769.02,-103.37"/>
</g>
<!-- bcf54369&#45;af48&#45;47fa&#45;81dd&#45;2896d93c2afa -->
<g id="node8" class="node">
<title>bcf54369&#45;af48&#45;47fa&#45;81dd&#45;2896d93c2afa</title>
<polygon fill="white" stroke="black" points="696,-36 401,-36 401,0 696,0 696,-36"/>
<text text-anchor="middle" x="548.5" y="-14.3" font-family="Helvetica,sans-Serif" font-size="14.00">▶ Run GitHub Actions for `README.md`</text>
</g>
<!-- e02fec46&#45;d67c&#45;49b2&#45;9142&#45;dafc28559354&#45;&gt;bcf54369&#45;af48&#45;47fa&#45;81dd&#45;2896d93c2afa -->
<g id="edge3" class="edge">
<title>e02fec46&#45;d67c&#45;49b2&#45;9142&#45;dafc28559354&#45;&gt;bcf54369&#45;af48&#45;47fa&#45;81dd&#45;2896d93c2afa</title>
<path fill="none" stroke="black" stroke-dasharray="5,2" d="M548.5,-72.72C548.5,-64.27 548.5,-54.89 548.5,-46.36"/>
<polygon fill="black" stroke="black" points="552,-46.15 548.5,-36.15 545,-46.15 552,-46.15"/>
</g>
<!-- cac8c6af&#45;6f5e&#45;4542&#45;8491&#45;272e45274c39 -->
<g id="node6" class="node">
<title>cac8c6af&#45;6f5e&#45;4542&#45;8491&#45;272e45274c39</title>
<ellipse fill="white" stroke="black" cx="1196.5" cy="-99.87" rx="115.93" ry="26.74"/>
<text text-anchor="middle" x="1196.5" y="-103.67" font-family="Helvetica,sans-Serif" font-size="14.00">▶ Modify</text>
<text text-anchor="middle" x="1196.5" y="-88.67" font-family="Helvetica,sans-Serif" font-size="14.00">tk.egg&#45;info/PKG&#45;INFO</text>
</g>
<!-- c652a950&#45;72bc&#45;4e85&#45;92fd&#45;28baa6dd9769&#45;&gt;cac8c6af&#45;6f5e&#45;4542&#45;8491&#45;272e45274c39 -->
<g id="edge6" class="edge">
<title>c652a950&#45;72bc&#45;4e85&#45;92fd&#45;28baa6dd9769&#45;&gt;cac8c6af&#45;6f5e&#45;4542&#45;8491&#45;272e45274c39</title>
<path fill="none" stroke="black" d="M989.92,-99.87C1016.64,-99.87 1043.35,-99.87 1070.06,-99.87"/>
<polygon fill="black" stroke="black" points="1070.3,-103.37 1080.3,-99.87 1070.3,-96.37 1070.3,-103.37"/>
</g>
<!-- 28c97688&#45;65f7&#45;4135&#45;8193&#45;efb455d25688 -->
<g id="node9" class="node">
<title>28c97688&#45;65f7&#45;4135&#45;8193&#45;efb455d25688</title>
<polygon fill="white" stroke="black" points="1055,-36 714,-36 714,0 1055,0 1055,-36"/>
<text text-anchor="middle" x="884.5" y="-14.3" font-family="Helvetica,sans-Serif" font-size="14.00">▶ Run GitHub Actions for `Documentation.md`</text>
</g>
<!-- c652a950&#45;72bc&#45;4e85&#45;92fd&#45;28baa6dd9769&#45;&gt;28c97688&#45;65f7&#45;4135&#45;8193&#45;efb455d25688 -->
<g id="edge5" class="edge">
<title>c652a950&#45;72bc&#45;4e85&#45;92fd&#45;28baa6dd9769&#45;&gt;28c97688&#45;65f7&#45;4135&#45;8193&#45;efb455d25688</title>
<path fill="none" stroke="black" stroke-dasharray="5,2" d="M884.5,-72.72C884.5,-64.27 884.5,-54.89 884.5,-46.36"/>
<polygon fill="black" stroke="black" points="888,-46.15 884.5,-36.15 881,-46.15 888,-46.15"/>
</g>
<!-- cac8c6af&#45;6f5e&#45;4542&#45;8491&#45;272e45274c39&#45;&gt;end -->
<g id="edge9" class="edge">
<title>cac8c6af&#45;6f5e&#45;4542&#45;8491&#45;272e45274c39&#45;&gt;end</title>
<path fill="none" stroke="black" d="M1312.56,-99.87C1331.99,-99.87 1349.24,-99.87 1359.76,-99.87"/>
<polygon fill="black" stroke="black" points="1359.83,-103.37 1369.83,-99.87 1359.83,-96.37 1359.83,-103.37"/>
<text text-anchor="middle" x="1341.23" y="-106.67" font-family="Helvetica,sans-Serif" font-size="14.00">Finish</text>
</g>
<!-- a147e4c2&#45;d0a8&#45;42d0&#45;b20e&#45;7f810b50ab28 -->
<g id="node10" class="node">
<title>a147e4c2&#45;d0a8&#45;42d0&#45;b20e&#45;7f810b50ab28</title>
<polygon fill="white" stroke="black" points="1429.5,-36 1073.5,-36 1073.5,0 1429.5,0 1429.5,-36"/>
<text text-anchor="middle" x="1251.5" y="-14.3" font-family="Helvetica,sans-Serif" font-size="14.00">▶ Run GitHub Actions for `tk.egg&#45;info/PKG&#45;INFO`</text>
</g>
<!-- cac8c6af&#45;6f5e&#45;4542&#45;8491&#45;272e45274c39&#45;&gt;a147e4c2&#45;d0a8&#45;42d0&#45;b20e&#45;7f810b50ab28 -->
<g id="edge7" class="edge">
<title>cac8c6af&#45;6f5e&#45;4542&#45;8491&#45;272e45274c39&#45;&gt;a147e4c2&#45;d0a8&#45;42d0&#45;b20e&#45;7f810b50ab28</title>
<path fill="none" stroke="black" stroke-dasharray="5,2" d="M1214.21,-73.16C1220.49,-64.04 1227.55,-53.77 1233.83,-44.65"/>
<polygon fill="black" stroke="black" points="1236.77,-46.56 1239.56,-36.34 1231.01,-42.59 1236.77,-46.56"/>
</g>
</g>
</svg>
