<?xml version="1.0" encoding="UTF-8" standalone="no"?>
<!DOCTYPE svg PUBLIC "-//W3C//DTD SVG 1.1//EN"
 "http://www.w3.org/Graphics/SVG/1.1/DTD/svg11.dtd">
<!-- Generated by graphviz version 2.43.0 (0)
 -->
<!-- Title: %3 Pages: 1 -->
<svg width="3091pt" height="238pt"
 viewBox="0.00 0.00 3091.00 237.74" xmlns="http://www.w3.org/2000/svg" xmlns:xlink="http://www.w3.org/1999/xlink">
<g id="graph0" class="graph" transform="scale(1 1) rotate(0) translate(36 201.74)">
<title>%3</title>
<polygon fill="dimgray" stroke="transparent" points="-36,36 -36,-201.74 3055,-201.74 3055,36 -36,36"/>
<text text-anchor="middle" x="1509.5" y="-150.54" font-family="Helvetica,sans-Serif" font-size="14.00">Sweep&#39;s Plan &amp; Progress</text>
<!-- start -->
<g id="node1" class="node">
<title>start</title>
</g>
<!-- 23a40263&#45;5d70&#45;4500&#45;beb5&#45;be4238f6534d -->
<g id="node3" class="node">
<title>23a40263&#45;5d70&#45;4500&#45;beb5&#45;be4238f6534d</title>
<ellipse fill="#ee0000" stroke="black" cx="396.5" cy="-99.87" rx="343.81" ry="26.74"/>
<text text-anchor="middle" x="396.5" y="-103.67" font-family="Helvetica,sans-Serif" font-size="14.00">✗ Modify</text>
<text text-anchor="middle" x="396.5" y="-88.67" font-family="Helvetica,sans-Serif" font-size="14.00">env/lib/python3.10/site&#45;packages/pip/_vendor/typing_extensions.py</text>
</g>
<!-- start&#45;&gt;23a40263&#45;5d70&#45;4500&#45;beb5&#45;be4238f6534d -->
<g id="edge8" class="edge">
<title>start&#45;&gt;23a40263&#45;5d70&#45;4500&#45;beb5&#45;be4238f6534d</title>
<path fill="none" stroke="black" d="M1.14,-99.87C4.38,-99.87 19.65,-99.87 42.45,-99.87"/>
<polygon fill="black" stroke="black" points="42.67,-103.37 52.67,-99.87 42.67,-96.37 42.67,-103.37"/>
<text text-anchor="middle" x="26.92" y="-106.67" font-family="Helvetica,sans-Serif" font-size="14.00">Start</text>
</g>
<!-- end -->
<g id="node2" class="node">
<title>end</title>
</g>
<!-- f3dee308&#45;e57c&#45;4d4a&#45;bda7&#45;65c9b9c493ef -->
<g id="node4" class="node">
<title>f3dee308&#45;e57c&#45;4d4a&#45;bda7&#45;65c9b9c493ef</title>
<ellipse fill="#ee0000" stroke="black" cx="1132.5" cy="-99.87" rx="356.26" ry="26.74"/>
<text text-anchor="middle" x="1132.5" y="-103.67" font-family="Helvetica,sans-Serif" font-size="14.00">✗ Create</text>
<text text-anchor="middle" x="1132.5" y="-88.67" font-family="Helvetica,sans-Serif" font-size="14.00">env/lib64/python3.10/site&#45;packages/pip/_vendor/typing_extensions.py</text>
</g>
<!-- 23a40263&#45;5d70&#45;4500&#45;beb5&#45;be4238f6534d&#45;&gt;f3dee308&#45;e57c&#45;4d4a&#45;bda7&#45;65c9b9c493ef -->
<g id="edge2" class="edge">
<title>23a40263&#45;5d70&#45;4500&#45;beb5&#45;be4238f6534d&#45;&gt;f3dee308&#45;e57c&#45;4d4a&#45;bda7&#45;65c9b9c493ef</title>
<path fill="none" stroke="black" d="M740.42,-99.87C748.95,-99.87 757.48,-99.87 766.02,-99.87"/>
<polygon fill="black" stroke="black" points="766.03,-103.37 776.03,-99.87 766.03,-96.37 766.03,-103.37"/>
</g>
<!-- 7f6fe2d8&#45;f86a&#45;4a13&#45;81e7&#45;408df0864638 -->
<g id="node7" class="node">
<title>7f6fe2d8&#45;f86a&#45;4a13&#45;81e7&#45;408df0864638</title>
<polygon fill="#ee0000" stroke="black" points="736,-36 57,-36 57,0 736,0 736,-36"/>
<text text-anchor="middle" x="396.5" y="-14.3" font-family="Helvetica,sans-Serif" font-size="14.00">✗ Run GitHub Actions for `env/lib/python3.10/site&#45;packages/pip/_vendor/typing_extensions.py`</text>
</g>
<!-- 23a40263&#45;5d70&#45;4500&#45;beb5&#45;be4238f6534d&#45;&gt;7f6fe2d8&#45;f86a&#45;4a13&#45;81e7&#45;408df0864638 -->
<g id="edge1" class="edge">
<title>23a40263&#45;5d70&#45;4500&#45;beb5&#45;be4238f6534d&#45;&gt;7f6fe2d8&#45;f86a&#45;4a13&#45;81e7&#45;408df0864638</title>
<path fill="none" stroke="black" stroke-dasharray="5,2" d="M396.5,-72.72C396.5,-64.27 396.5,-54.89 396.5,-46.36"/>
<polygon fill="black" stroke="black" points="400,-46.15 396.5,-36.15 393,-46.15 400,-46.15"/>
</g>
<!-- c2e6a418&#45;b4a5&#45;4abe&#45;b4da&#45;598c3d23929a -->
<g id="node5" class="node">
<title>c2e6a418&#45;b4a5&#45;4abe&#45;b4da&#45;598c3d23929a</title>
<ellipse fill="#0ee832" stroke="black" cx="1868.5" cy="-99.87" rx="343.81" ry="26.74"/>
<text text-anchor="middle" x="1868.5" y="-103.67" font-family="Helvetica,sans-Serif" font-size="14.00">✓ Modify</text>
<text text-anchor="middle" x="1868.5" y="-88.67" font-family="Helvetica,sans-Serif" font-size="14.00">env/lib/python3.10/site&#45;packages/pip/_vendor/typing_extensions.py</text>
</g>
<!-- f3dee308&#45;e57c&#45;4d4a&#45;bda7&#45;65c9b9c493ef&#45;&gt;c2e6a418&#45;b4a5&#45;4abe&#45;b4da&#45;598c3d23929a -->
<g id="edge4" class="edge">
<title>f3dee308&#45;e57c&#45;4d4a&#45;bda7&#45;65c9b9c493ef&#45;&gt;c2e6a418&#45;b4a5&#45;4abe&#45;b4da&#45;598c3d23929a</title>
<path fill="none" stroke="black" d="M1489,-99.87C1497.52,-99.87 1506.05,-99.87 1514.57,-99.87"/>
<polygon fill="black" stroke="black" points="1514.58,-103.37 1524.58,-99.87 1514.58,-96.37 1514.58,-103.37"/>
</g>
<!-- 1802798f&#45;85ff&#45;47f8&#45;9a58&#45;14e127104b55 -->
<g id="node8" class="node">
<title>1802798f&#45;85ff&#45;47f8&#45;9a58&#45;14e127104b55</title>
<polygon fill="#ee0000" stroke="black" points="1481,-36 784,-36 784,0 1481,0 1481,-36"/>
<text text-anchor="middle" x="1132.5" y="-14.3" font-family="Helvetica,sans-Serif" font-size="14.00">✗ Run GitHub Actions for `env/lib64/python3.10/site&#45;packages/pip/_vendor/typing_extensions.py`</text>
</g>
<!-- f3dee308&#45;e57c&#45;4d4a&#45;bda7&#45;65c9b9c493ef&#45;&gt;1802798f&#45;85ff&#45;47f8&#45;9a58&#45;14e127104b55 -->
<g id="edge3" class="edge">
<title>f3dee308&#45;e57c&#45;4d4a&#45;bda7&#45;65c9b9c493ef&#45;&gt;1802798f&#45;85ff&#45;47f8&#45;9a58&#45;14e127104b55</title>
<path fill="none" stroke="black" stroke-dasharray="5,2" d="M1132.5,-72.72C1132.5,-64.27 1132.5,-54.89 1132.5,-46.36"/>
<polygon fill="black" stroke="black" points="1136,-46.15 1132.5,-36.15 1129,-46.15 1136,-46.15"/>
</g>
<!-- d49c72d2&#45;3291&#45;4177&#45;8d5a&#45;e9548e045d21 -->
<g id="node6" class="node">
<title>d49c72d2&#45;3291&#45;4177&#45;8d5a&#45;e9548e045d21</title>
<ellipse fill="#ee0000" stroke="black" cx="2604.5" cy="-99.87" rx="356.26" ry="26.74"/>
<text text-anchor="middle" x="2604.5" y="-103.67" font-family="Helvetica,sans-Serif" font-size="14.00">✗ Modify</text>
<text text-anchor="middle" x="2604.5" y="-88.67" font-family="Helvetica,sans-Serif" font-size="14.00">env/lib64/python3.10/site&#45;packages/pip/_vendor/typing_extensions.py</text>
</g>
<!-- c2e6a418&#45;b4a5&#45;4abe&#45;b4da&#45;598c3d23929a&#45;&gt;d49c72d2&#45;3291&#45;4177&#45;8d5a&#45;e9548e045d21 -->
<g id="edge6" class="edge">
<title>c2e6a418&#45;b4a5&#45;4abe&#45;b4da&#45;598c3d23929a&#45;&gt;d49c72d2&#45;3291&#45;4177&#45;8d5a&#45;e9548e045d21</title>
<path fill="none" stroke="black" d="M2212.42,-99.87C2220.95,-99.87 2229.48,-99.87 2238.02,-99.87"/>
<polygon fill="black" stroke="black" points="2238.03,-103.37 2248.03,-99.87 2238.03,-96.37 2238.03,-103.37"/>
</g>
<!-- 9bebf735&#45;38e3&#45;4150&#45;b969&#45;b55c223aa176 -->
<g id="node9" class="node">
<title>9bebf735&#45;38e3&#45;4150&#45;b969&#45;b55c223aa176</title>
<polygon fill="#0ee832" stroke="black" points="2208,-36 1529,-36 1529,0 2208,0 2208,-36"/>
<text text-anchor="middle" x="1868.5" y="-14.3" font-family="Helvetica,sans-Serif" font-size="14.00">✓ Run GitHub Actions for `env/lib/python3.10/site&#45;packages/pip/_vendor/typing_extensions.py`</text>
</g>
<!-- c2e6a418&#45;b4a5&#45;4abe&#45;b4da&#45;598c3d23929a&#45;&gt;9bebf735&#45;38e3&#45;4150&#45;b969&#45;b55c223aa176 -->
<g id="edge5" class="edge">
<title>c2e6a418&#45;b4a5&#45;4abe&#45;b4da&#45;598c3d23929a&#45;&gt;9bebf735&#45;38e3&#45;4150&#45;b969&#45;b55c223aa176</title>
<path fill="none" stroke="black" stroke-dasharray="5,2" d="M1868.5,-72.72C1868.5,-64.27 1868.5,-54.89 1868.5,-46.36"/>
<polygon fill="black" stroke="black" points="1872,-46.15 1868.5,-36.15 1865,-46.15 1872,-46.15"/>
</g>
<!-- d49c72d2&#45;3291&#45;4177&#45;8d5a&#45;e9548e045d21&#45;&gt;end -->
<g id="edge9" class="edge">
<title>d49c72d2&#45;3291&#45;4177&#45;8d5a&#45;e9548e045d21&#45;&gt;end</title>
<path fill="none" stroke="black" d="M2960.94,-99.87C2981.4,-99.87 2997.69,-99.87 3007.65,-99.87"/>
<polygon fill="black" stroke="black" points="3007.91,-103.37 3017.91,-99.87 3007.91,-96.37 3007.91,-103.37"/>
<text text-anchor="middle" x="2989.44" y="-106.67" font-family="Helvetica,sans-Serif" font-size="14.00">Finish</text>
</g>
<!-- b332019e&#45;ad5d&#45;47fa&#45;86ae&#45;bdf2eef52be1 -->
<g id="node10" class="node">
<title>b332019e&#45;ad5d&#45;47fa&#45;86ae&#45;bdf2eef52be1</title>
<polygon fill="#ee0000" stroke="black" points="2953,-36 2256,-36 2256,0 2953,0 2953,-36"/>
<text text-anchor="middle" x="2604.5" y="-14.3" font-family="Helvetica,sans-Serif" font-size="14.00">✗ Run GitHub Actions for `env/lib64/python3.10/site&#45;packages/pip/_vendor/typing_extensions.py`</text>
</g>
<!-- d49c72d2&#45;3291&#45;4177&#45;8d5a&#45;e9548e045d21&#45;&gt;b332019e&#45;ad5d&#45;47fa&#45;86ae&#45;bdf2eef52be1 -->
<g id="edge7" class="edge">
<title>d49c72d2&#45;3291&#45;4177&#45;8d5a&#45;e9548e045d21&#45;&gt;b332019e&#45;ad5d&#45;47fa&#45;86ae&#45;bdf2eef52be1</title>
<path fill="none" stroke="black" stroke-dasharray="5,2" d="M2604.5,-72.72C2604.5,-64.27 2604.5,-54.89 2604.5,-46.36"/>
<polygon fill="black" stroke="black" points="2608,-46.15 2604.5,-36.15 2601,-46.15 2608,-46.15"/>
</g>
</g>
</svg>
