<?xml version="1.0" encoding="UTF-8" standalone="no"?>
<!DOCTYPE svg PUBLIC "-//W3C//DTD SVG 1.1//EN"
 "http://www.w3.org/Graphics/SVG/1.1/DTD/svg11.dtd">
<!-- Generated by graphviz version 2.43.0 (0)
 -->
<!-- Title: %3 Pages: 1 -->
<svg width="787pt" height="165pt"
 viewBox="0.00 0.00 787.00 164.74" xmlns="http://www.w3.org/2000/svg" xmlns:xlink="http://www.w3.org/1999/xlink">
<g id="graph0" class="graph" transform="scale(1 1) rotate(0) translate(36 128.74)">
<title>%3</title>
<polygon fill="dimgray" stroke="transparent" points="-36,36 -36,-128.74 751,-128.74 751,36 -36,36"/>
<text text-anchor="middle" x="357.5" y="-77.54" font-family="Helvetica,sans-Serif" font-size="14.00">Sweep&#39;s Plan &amp; Progress</text>
<!-- start -->
<g id="node1" class="node">
<title>start</title>
</g>
<!-- 77dad93d&#45;1519&#45;42fa&#45;81e0&#45;6c7962347d08 -->
<g id="node3" class="node">
<title>77dad93d&#45;1519&#45;42fa&#45;81e0&#45;6c7962347d08</title>
<ellipse fill="#0ee832" stroke="black" cx="204.5" cy="-26.87" rx="152.06" ry="26.74"/>
<text text-anchor="middle" x="204.5" y="-30.67" font-family="Helvetica,sans-Serif" font-size="14.00">✓ Create</text>
<text text-anchor="middle" x="204.5" y="-15.67" font-family="Helvetica,sans-Serif" font-size="14.00">All Python files in the project</text>
</g>
<!-- start&#45;&gt;77dad93d&#45;1519&#45;42fa&#45;81e0&#45;6c7962347d08 -->
<g id="edge2" class="edge">
<title>start&#45;&gt;77dad93d&#45;1519&#45;42fa&#45;81e0&#45;6c7962347d08</title>
<path fill="none" stroke="black" d="M1.09,-26.87C4.29,-26.87 20.39,-26.87 42.23,-26.87"/>
<polygon fill="black" stroke="black" points="42.28,-30.37 52.28,-26.87 42.28,-23.37 42.28,-30.37"/>
<text text-anchor="middle" x="26.74" y="-33.67" font-family="Helvetica,sans-Serif" font-size="14.00">Start</text>
</g>
<!-- end -->
<g id="node2" class="node">
<title>end</title>
</g>
<!-- 0d78e40a&#45;dee2&#45;4d01&#45;b5f2&#45;34ad230bfabc -->
<g id="node4" class="node">
<title>0d78e40a&#45;dee2&#45;4d01&#45;b5f2&#45;34ad230bfabc</title>
<ellipse fill="yellow" stroke="black" cx="524.5" cy="-26.87" rx="132.46" ry="26.74"/>
<text text-anchor="middle" x="524.5" y="-30.67" font-family="Helvetica,sans-Serif" font-size="14.00">⋯ Create</text>
<text text-anchor="middle" x="524.5" y="-15.67" font-family="Helvetica,sans-Serif" font-size="14.00">.pre&#45;commit&#45;config.yaml</text>
</g>
<!-- 77dad93d&#45;1519&#45;42fa&#45;81e0&#45;6c7962347d08&#45;&gt;0d78e40a&#45;dee2&#45;4d01&#45;b5f2&#45;34ad230bfabc -->
<g id="edge1" class="edge">
<title>77dad93d&#45;1519&#45;42fa&#45;81e0&#45;6c7962347d08&#45;&gt;0d78e40a&#45;dee2&#45;4d01&#45;b5f2&#45;34ad230bfabc</title>
<path fill="none" stroke="black" d="M356.69,-26.87C365.08,-26.87 373.46,-26.87 381.85,-26.87"/>
<polygon fill="black" stroke="black" points="382.09,-30.37 392.09,-26.87 382.09,-23.37 382.09,-30.37"/>
</g>
<!-- 0d78e40a&#45;dee2&#45;4d01&#45;b5f2&#45;34ad230bfabc&#45;&gt;end -->
<g id="edge3" class="edge">
<title>0d78e40a&#45;dee2&#45;4d01&#45;b5f2&#45;34ad230bfabc&#45;&gt;end</title>
<path fill="none" stroke="black" d="M656.98,-26.87C676.34,-26.87 693.23,-26.87 703.61,-26.87"/>
<polygon fill="black" stroke="black" points="703.85,-30.37 713.85,-26.87 703.85,-23.37 703.85,-30.37"/>
<text text-anchor="middle" x="685.36" y="-33.67" font-family="Helvetica,sans-Serif" font-size="14.00">Finish</text>
</g>
</g>
</svg>
