<?xml version="1.0" encoding="UTF-8" standalone="no"?>
<!DOCTYPE svg PUBLIC "-//W3C//DTD SVG 1.1//EN"
 "http://www.w3.org/Graphics/SVG/1.1/DTD/svg11.dtd">
<!-- Generated by graphviz version 2.43.0 (0)
 -->
<!-- Title: %3 Pages: 1 -->
<svg width="1047pt" height="238pt"
 viewBox="0.00 0.00 1047.00 237.74" xmlns="http://www.w3.org/2000/svg" xmlns:xlink="http://www.w3.org/1999/xlink">
<g id="graph0" class="graph" transform="scale(1 1) rotate(0) translate(36 201.74)">
<title>%3</title>
<polygon fill="dimgray" stroke="transparent" points="-36,36 -36,-201.74 1011,-201.74 1011,36 -36,36"/>
<text text-anchor="middle" x="487.5" y="-150.54" font-family="Helvetica,sans-Serif" font-size="14.00">Sweep&#39;s Plan &amp; Progress</text>
<!-- start -->
<g id="node1" class="node">
<title>start</title>
</g>
<!-- 8971a91c&#45;3c08&#45;4954&#45;a55c&#45;3b8cdead9017 -->
<g id="node3" class="node">
<title>8971a91c&#45;3c08&#45;4954&#45;a55c&#45;3b8cdead9017</title>
<ellipse fill="#0ee832" stroke="black" cx="274.5" cy="-99.87" rx="211.35" ry="26.74"/>
<text text-anchor="middle" x="274.5" y="-103.67" font-family="Helvetica,sans-Serif" font-size="14.00">✓ Create</text>
<text text-anchor="middle" x="274.5" y="-88.67" font-family="Helvetica,sans-Serif" font-size="14.00">components/PerformanceOptimization.js</text>
</g>
<!-- start&#45;&gt;8971a91c&#45;3c08&#45;4954&#45;a55c&#45;3b8cdead9017 -->
<g id="edge4" class="edge">
<title>start&#45;&gt;8971a91c&#45;3c08&#45;4954&#45;a55c&#45;3b8cdead9017</title>
<path fill="none" stroke="black" d="M12.25,-99.87C15.76,-99.87 31.2,-99.87 52.97,-99.87"/>
<polygon fill="black" stroke="black" points="53.04,-103.37 63.04,-99.87 53.04,-96.37 53.04,-103.37"/>
<text text-anchor="middle" x="37.54" y="-106.67" font-family="Helvetica,sans-Serif" font-size="14.00">Start</text>
</g>
<!-- end -->
<g id="node2" class="node">
<title>end</title>
</g>
<!-- 245b8367&#45;e5e4&#45;4e71&#45;9a0b&#45;78bf8784c5d0 -->
<g id="node4" class="node">
<title>245b8367&#45;e5e4&#45;4e71&#45;9a0b&#45;78bf8784c5d0</title>
<ellipse fill="#ee0000" stroke="black" cx="726.5" cy="-99.87" rx="190.42" ry="26.74"/>
<text text-anchor="middle" x="726.5" y="-103.67" font-family="Helvetica,sans-Serif" font-size="14.00">✗ Modify</text>
<text text-anchor="middle" x="726.5" y="-88.67" font-family="Helvetica,sans-Serif" font-size="14.00">components/PerformanceTracking.js</text>
</g>
<!-- 8971a91c&#45;3c08&#45;4954&#45;a55c&#45;3b8cdead9017&#45;&gt;245b8367&#45;e5e4&#45;4e71&#45;9a0b&#45;78bf8784c5d0 -->
<g id="edge2" class="edge">
<title>8971a91c&#45;3c08&#45;4954&#45;a55c&#45;3b8cdead9017&#45;&gt;245b8367&#45;e5e4&#45;4e71&#45;9a0b&#45;78bf8784c5d0</title>
<path fill="none" stroke="black" d="M485.93,-99.87C499.29,-99.87 512.64,-99.87 526,-99.87"/>
<polygon fill="black" stroke="black" points="526.21,-103.37 536.21,-99.87 526.21,-96.37 526.21,-103.37"/>
</g>
<!-- 3d0563d8&#45;2276&#45;401b&#45;835c&#45;656a0a96bd71 -->
<g id="node5" class="node">
<title>3d0563d8&#45;2276&#45;401b&#45;835c&#45;656a0a96bd71</title>
<polygon fill="#0ee832" stroke="black" points="491,-36 0,-36 0,0 491,0 491,-36"/>
<text text-anchor="middle" x="245.5" y="-14.3" font-family="Helvetica,sans-Serif" font-size="14.00">✓ Run GitHub Actions for `components/PerformanceOptimization.js`</text>
</g>
<!-- 8971a91c&#45;3c08&#45;4954&#45;a55c&#45;3b8cdead9017&#45;&gt;3d0563d8&#45;2276&#45;401b&#45;835c&#45;656a0a96bd71 -->
<g id="edge1" class="edge">
<title>8971a91c&#45;3c08&#45;4954&#45;a55c&#45;3b8cdead9017&#45;&gt;3d0563d8&#45;2276&#45;401b&#45;835c&#45;656a0a96bd71</title>
<path fill="none" stroke="black" stroke-dasharray="5,2" d="M265,-72.72C261.87,-64.08 258.38,-54.47 255.23,-45.79"/>
<polygon fill="black" stroke="black" points="258.43,-44.35 251.73,-36.15 251.85,-46.74 258.43,-44.35"/>
</g>
<!-- 245b8367&#45;e5e4&#45;4e71&#45;9a0b&#45;78bf8784c5d0&#45;&gt;end -->
<g id="edge5" class="edge">
<title>245b8367&#45;e5e4&#45;4e71&#45;9a0b&#45;78bf8784c5d0&#45;&gt;end</title>
<path fill="none" stroke="black" d="M916.98,-99.87C936.79,-99.87 953.38,-99.87 963.57,-99.87"/>
<polygon fill="black" stroke="black" points="963.87,-103.37 973.87,-99.87 963.87,-96.37 963.87,-103.37"/>
<text text-anchor="middle" x="945.36" y="-106.67" font-family="Helvetica,sans-Serif" font-size="14.00">Finish</text>
</g>
<!-- 2bf57584&#45;335e&#45;4fca&#45;9754&#45;8c2a22ec3531 -->
<g id="node6" class="node">
<title>2bf57584&#45;335e&#45;4fca&#45;9754&#45;8c2a22ec3531</title>
<polygon fill="yellow" stroke="black" points="973.5,-36 509.5,-36 509.5,0 973.5,0 973.5,-36"/>
<text text-anchor="middle" x="741.5" y="-14.3" font-family="Helvetica,sans-Serif" font-size="14.00">⋯ Run GitHub Actions for `components/PerformanceTracking.js`</text>
</g>
<!-- 245b8367&#45;e5e4&#45;4e71&#45;9a0b&#45;78bf8784c5d0&#45;&gt;2bf57584&#45;335e&#45;4fca&#45;9754&#45;8c2a22ec3531 -->
<g id="edge3" class="edge">
<title>245b8367&#45;e5e4&#45;4e71&#45;9a0b&#45;78bf8784c5d0&#45;&gt;2bf57584&#45;335e&#45;4fca&#45;9754&#45;8c2a22ec3531</title>
<path fill="none" stroke="black" stroke-dasharray="5,2" d="M731.41,-72.72C733.02,-64.18 734.8,-54.68 736.41,-46.08"/>
<polygon fill="black" stroke="black" points="739.87,-46.62 738.28,-36.15 732.99,-45.33 739.87,-46.62"/>
</g>
</g>
</svg>
