<?xml version="1.0" encoding="UTF-8" standalone="no"?>
<!DOCTYPE svg PUBLIC "-//W3C//DTD SVG 1.1//EN"
 "http://www.w3.org/Graphics/SVG/1.1/DTD/svg11.dtd">
<!-- Generated by graphviz version 2.43.0 (0)
 -->
<!-- Title: %3 Pages: 1 -->
<svg width="1046pt" height="238pt"
 viewBox="0.00 0.00 1046.00 237.74" xmlns="http://www.w3.org/2000/svg" xmlns:xlink="http://www.w3.org/1999/xlink">
<g id="graph0" class="graph" transform="scale(1 1) rotate(0) translate(36 201.74)">
<title>%3</title>
<polygon fill="dimgray" stroke="transparent" points="-36,36 -36,-201.74 1010,-201.74 1010,36 -36,36"/>
<text text-anchor="middle" x="487" y="-150.54" font-family="Helvetica,sans-Serif" font-size="14.00">Sweep&#39;s Plan &amp; Progress</text>
<!-- start -->
<g id="node1" class="node">
<title>start</title>
</g>
<!-- 8971a91c&#45;3c08&#45;4954&#45;a55c&#45;3b8cdead9017 -->
<g id="node3" class="node">
<title>8971a91c&#45;3c08&#45;4954&#45;a55c&#45;3b8cdead9017</title>
<ellipse fill="#0ee832" stroke="black" cx="273.5" cy="-99.87" rx="211.35" ry="26.74"/>
<text text-anchor="middle" x="273.5" y="-103.67" font-family="Helvetica,sans-Serif" font-size="14.00">✓ Create</text>
<text text-anchor="middle" x="273.5" y="-88.67" font-family="Helvetica,sans-Serif" font-size="14.00">components/PerformanceOptimization.js</text>
</g>
<!-- start&#45;&gt;8971a91c&#45;3c08&#45;4954&#45;a55c&#45;3b8cdead9017 -->
<g id="edge4" class="edge">
<title>start&#45;&gt;8971a91c&#45;3c08&#45;4954&#45;a55c&#45;3b8cdead9017</title>
<path fill="none" stroke="black" d="M11.25,-99.87C14.76,-99.87 30.2,-99.87 51.97,-99.87"/>
<polygon fill="black" stroke="black" points="52.04,-103.37 62.04,-99.87 52.04,-96.37 52.04,-103.37"/>
<text text-anchor="middle" x="36.54" y="-106.67" font-family="Helvetica,sans-Serif" font-size="14.00">Start</text>
</g>
<!-- end -->
<g id="node2" class="node">
<title>end</title>
</g>
<!-- 245b8367&#45;e5e4&#45;4e71&#45;9a0b&#45;78bf8784c5d0 -->
<g id="node4" class="node">
<title>245b8367&#45;e5e4&#45;4e71&#45;9a0b&#45;78bf8784c5d0</title>
<ellipse fill="#ee0000" stroke="black" cx="725.5" cy="-99.87" rx="190.42" ry="26.74"/>
<text text-anchor="middle" x="725.5" y="-103.67" font-family="Helvetica,sans-Serif" font-size="14.00">✗ Modify</text>
<text text-anchor="middle" x="725.5" y="-88.67" font-family="Helvetica,sans-Serif" font-size="14.00">components/PerformanceTracking.js</text>
</g>
<!-- 8971a91c&#45;3c08&#45;4954&#45;a55c&#45;3b8cdead9017&#45;&gt;245b8367&#45;e5e4&#45;4e71&#45;9a0b&#45;78bf8784c5d0 -->
<g id="edge2" class="edge">
<title>8971a91c&#45;3c08&#45;4954&#45;a55c&#45;3b8cdead9017&#45;&gt;245b8367&#45;e5e4&#45;4e71&#45;9a0b&#45;78bf8784c5d0</title>
<path fill="none" stroke="black" d="M484.93,-99.87C498.29,-99.87 511.64,-99.87 525,-99.87"/>
<polygon fill="black" stroke="black" points="525.21,-103.37 535.21,-99.87 525.21,-96.37 525.21,-103.37"/>
</g>
<!-- 3d0563d8&#45;2276&#45;401b&#45;835c&#45;656a0a96bd71 -->
<g id="node5" class="node">
<title>3d0563d8&#45;2276&#45;401b&#45;835c&#45;656a0a96bd71</title>
<polygon fill="#0ee832" stroke="black" points="491,-36 0,-36 0,0 491,0 491,-36"/>
<text text-anchor="middle" x="245.5" y="-14.3" font-family="Helvetica,sans-Serif" font-size="14.00">✓ Run GitHub Actions for `components/PerformanceOptimization.js`</text>
</g>
<!-- 8971a91c&#45;3c08&#45;4954&#45;a55c&#45;3b8cdead9017&#45;&gt;3d0563d8&#45;2276&#45;401b&#45;835c&#45;656a0a96bd71 -->
<g id="edge1" class="edge">
<title>8971a91c&#45;3c08&#45;4954&#45;a55c&#45;3b8cdead9017&#45;&gt;3d0563d8&#45;2276&#45;401b&#45;835c&#45;656a0a96bd71</title>
<path fill="none" stroke="black" stroke-dasharray="5,2" d="M264.33,-72.72C261.31,-64.08 257.94,-54.47 254.89,-45.79"/>
<polygon fill="black" stroke="black" points="258.12,-44.43 251.51,-36.15 251.52,-46.74 258.12,-44.43"/>
</g>
<!-- 245b8367&#45;e5e4&#45;4e71&#45;9a0b&#45;78bf8784c5d0&#45;&gt;end -->
<g id="edge5" class="edge">
<title>245b8367&#45;e5e4&#45;4e71&#45;9a0b&#45;78bf8784c5d0&#45;&gt;end</title>
<path fill="none" stroke="black" d="M915.98,-99.87C935.79,-99.87 952.38,-99.87 962.57,-99.87"/>
<polygon fill="black" stroke="black" points="962.87,-103.37 972.87,-99.87 962.87,-96.37 962.87,-103.37"/>
<text text-anchor="middle" x="944.36" y="-106.67" font-family="Helvetica,sans-Serif" font-size="14.00">Finish</text>
</g>
<!-- 2bf57584&#45;335e&#45;4fca&#45;9754&#45;8c2a22ec3531 -->
<g id="node6" class="node">
<title>2bf57584&#45;335e&#45;4fca&#45;9754&#45;8c2a22ec3531</title>
<polygon fill="#ee0000" stroke="black" points="970,-36 509,-36 509,0 970,0 970,-36"/>
<text text-anchor="middle" x="739.5" y="-14.3" font-family="Helvetica,sans-Serif" font-size="14.00">✗ Run GitHub Actions for `components/PerformanceTracking.js`</text>
</g>
<!-- 245b8367&#45;e5e4&#45;4e71&#45;9a0b&#45;78bf8784c5d0&#45;&gt;2bf57584&#45;335e&#45;4fca&#45;9754&#45;8c2a22ec3531 -->
<g id="edge3" class="edge">
<title>245b8367&#45;e5e4&#45;4e71&#45;9a0b&#45;78bf8784c5d0&#45;&gt;2bf57584&#45;335e&#45;4fca&#45;9754&#45;8c2a22ec3531</title>
<path fill="none" stroke="black" stroke-dasharray="5,2" d="M730.08,-72.72C731.58,-64.18 733.25,-54.68 734.75,-46.08"/>
<polygon fill="black" stroke="black" points="738.22,-46.6 736.49,-36.15 731.32,-45.39 738.22,-46.6"/>
</g>
</g>
</svg>
